G04 #@! TF.GenerationSoftware,KiCad,Pcbnew,(5.0.1)-rc2*
G04 #@! TF.CreationDate,2020-01-05T22:16:04+01:00*
G04 #@! TF.ProjectId,IoT_Messenger,496F545F4D657373656E6765722E6B69,rev?*
G04 #@! TF.SameCoordinates,Original*
G04 #@! TF.FileFunction,Copper,L2,Bot,Signal*
G04 #@! TF.FilePolarity,Positive*
%FSLAX46Y46*%
G04 Gerber Fmt 4.6, Leading zero omitted, Abs format (unit mm)*
G04 Created by KiCad (PCBNEW (5.0.1)-rc2) date 05/01/2020 22:16:04*
%MOMM*%
%LPD*%
G01*
G04 APERTURE LIST*
G04 #@! TA.AperFunction,ComponentPad*
%ADD10R,1.700000X1.700000*%
G04 #@! TD*
G04 #@! TA.AperFunction,ComponentPad*
%ADD11O,1.700000X1.700000*%
G04 #@! TD*
G04 #@! TA.AperFunction,ComponentPad*
%ADD12R,1.700000X1.200000*%
G04 #@! TD*
G04 #@! TA.AperFunction,ComponentPad*
%ADD13O,1.700000X1.200000*%
G04 #@! TD*
G04 #@! TA.AperFunction,ComponentPad*
%ADD14O,1.070000X1.800000*%
G04 #@! TD*
G04 #@! TA.AperFunction,ComponentPad*
%ADD15R,1.070000X1.800000*%
G04 #@! TD*
G04 #@! TA.AperFunction,ComponentPad*
%ADD16R,2.000000X2.000000*%
G04 #@! TD*
G04 #@! TA.AperFunction,ComponentPad*
%ADD17C,2.000000*%
G04 #@! TD*
G04 #@! TA.AperFunction,ComponentPad*
%ADD18C,1.500000*%
G04 #@! TD*
G04 #@! TA.AperFunction,ComponentPad*
%ADD19R,1.500000X1.500000*%
G04 #@! TD*
G04 #@! TA.AperFunction,ViaPad*
%ADD20C,1.270000*%
G04 #@! TD*
G04 #@! TA.AperFunction,Conductor*
%ADD21C,0.254000*%
G04 #@! TD*
G04 #@! TA.AperFunction,Conductor*
%ADD22C,0.508000*%
G04 #@! TD*
G04 #@! TA.AperFunction,Conductor*
%ADD23C,0.889000*%
G04 #@! TD*
G04 #@! TA.AperFunction,Conductor*
%ADD24C,0.203200*%
G04 #@! TD*
G04 APERTURE END LIST*
D10*
G04 #@! TO.P,J4,1*
G04 #@! TO.N,GND*
X116840000Y-84328000D03*
D11*
G04 #@! TO.P,J4,2*
G04 #@! TO.N,Net-(IC4-Pad21)*
X119380000Y-84328000D03*
G04 #@! TO.P,J4,3*
G04 #@! TO.N,Net-(IC4-Pad22)*
X121920000Y-84328000D03*
G04 #@! TO.P,J4,4*
G04 #@! TO.N,/RST*
X124460000Y-84328000D03*
G04 #@! TD*
D12*
G04 #@! TO.P,CONN2,1*
G04 #@! TO.N,Net-(CONN2-Pad1)*
X142240000Y-124460000D03*
D13*
G04 #@! TO.P,CONN2,2*
G04 #@! TO.N,GND*
X142240000Y-122460000D03*
G04 #@! TD*
D14*
G04 #@! TO.P,LED2,4*
G04 #@! TO.N,/GPIO2*
X89662000Y-86868000D03*
G04 #@! TO.P,LED2,3*
G04 #@! TO.N,+3V3*
X88646000Y-84328000D03*
G04 #@! TO.P,LED2,2*
G04 #@! TO.N,GND*
X86868000Y-84328000D03*
D15*
G04 #@! TO.P,LED2,1*
G04 #@! TO.N,Net-(J5-Pad2)*
X85852000Y-86868000D03*
G04 #@! TD*
D16*
G04 #@! TO.P,BZ1,1*
G04 #@! TO.N,/GPIO13*
X132080000Y-116840000D03*
D17*
G04 #@! TO.P,BZ1,2*
G04 #@! TO.N,GND*
X139680000Y-116840000D03*
G04 #@! TD*
D18*
G04 #@! TO.P,IC3,4*
G04 #@! TO.N,GND*
X71755000Y-84328000D03*
G04 #@! TO.P,IC3,3*
G04 #@! TO.N,N/C*
X74295000Y-84328000D03*
G04 #@! TO.P,IC3,2*
G04 #@! TO.N,/GPIO0*
X76835000Y-84328000D03*
D19*
G04 #@! TO.P,IC3,1*
G04 #@! TO.N,+3V3*
X79375000Y-84328000D03*
G04 #@! TD*
D10*
G04 #@! TO.P,J1,1*
G04 #@! TO.N,/GPIO4*
X79375000Y-94742000D03*
D11*
G04 #@! TO.P,J1,2*
G04 #@! TO.N,/GPIO5*
X79375000Y-97282000D03*
G04 #@! TO.P,J1,3*
G04 #@! TO.N,+3V3*
X79375000Y-99822000D03*
G04 #@! TO.P,J1,4*
G04 #@! TO.N,GND*
X79375000Y-102362000D03*
G04 #@! TD*
G04 #@! TO.P,J2,4*
G04 #@! TO.N,GND*
X71755000Y-102362000D03*
G04 #@! TO.P,J2,3*
G04 #@! TO.N,+3V3*
X71755000Y-99822000D03*
G04 #@! TO.P,J2,2*
G04 #@! TO.N,/GPIO5*
X71755000Y-97282000D03*
D10*
G04 #@! TO.P,J2,1*
G04 #@! TO.N,/GPIO4*
X71755000Y-94742000D03*
G04 #@! TD*
D11*
G04 #@! TO.P,J3,2*
G04 #@! TO.N,/GPIO0*
X109855000Y-84328000D03*
D10*
G04 #@! TO.P,J3,1*
G04 #@! TO.N,GND*
X107315000Y-84328000D03*
G04 #@! TD*
D11*
G04 #@! TO.P,J5,3*
G04 #@! TO.N,GND*
X100330000Y-84328000D03*
G04 #@! TO.P,J5,2*
G04 #@! TO.N,Net-(J5-Pad2)*
X97790000Y-84328000D03*
D10*
G04 #@! TO.P,J5,1*
G04 #@! TO.N,+3V3*
X95250000Y-84328000D03*
G04 #@! TD*
D20*
G04 #@! TO.N,GND*
X107950000Y-99060000D03*
X143510000Y-105410000D03*
X137287000Y-107950000D03*
X95250000Y-91440000D03*
X95250000Y-101600000D03*
X140970000Y-102870000D03*
X83820000Y-91440000D03*
X83820000Y-101600000D03*
X114300000Y-92710000D03*
X116840000Y-92710000D03*
X110490000Y-92710000D03*
X123825000Y-109220000D03*
X109220000Y-111125000D03*
X87630000Y-111125000D03*
X109220000Y-115570000D03*
X87630000Y-115570000D03*
X73660000Y-114300000D03*
X123825000Y-115570000D03*
X143510000Y-107950000D03*
X143510000Y-110490000D03*
X143510000Y-113030000D03*
X130810000Y-124968000D03*
X135890000Y-115570000D03*
X79248000Y-123444000D03*
X90170000Y-125730000D03*
X72390000Y-121920000D03*
X104140000Y-91440000D03*
X113411000Y-84328000D03*
X103886000Y-84328000D03*
X83820000Y-84328000D03*
X89535000Y-91440000D03*
X89535000Y-101600000D03*
X91694000Y-84328000D03*
X73660000Y-86360000D03*
X77470000Y-86360000D03*
X71755000Y-91440000D03*
X97155000Y-114300000D03*
X97155000Y-108585000D03*
X123825000Y-124968000D03*
X105410000Y-125730000D03*
X91440000Y-123190000D03*
X118110000Y-115570000D03*
X106680000Y-115570000D03*
X104140000Y-115570000D03*
X106680000Y-111125000D03*
X81280000Y-114300000D03*
G04 #@! TO.N,/GPIO0*
X138430000Y-93345000D03*
G04 #@! TO.N,+BATT*
X92075000Y-118430000D03*
X125730000Y-118364000D03*
G04 #@! TO.N,+3V3*
X79375000Y-106680000D03*
X116840000Y-107950000D03*
G04 #@! TO.N,/GPIO13*
X102870000Y-111125000D03*
G04 #@! TO.N,Net-(IC4-Pad22)*
X140970000Y-90043000D03*
G04 #@! TO.N,Net-(IC4-Pad21)*
X140970000Y-91821000D03*
G04 #@! TO.N,/GPIO5*
X139700000Y-96901000D03*
X110490000Y-97282000D03*
G04 #@! TO.N,/GPIO4*
X140970000Y-95758000D03*
X109855000Y-94742000D03*
G04 #@! TO.N,/GPIO2*
X135890000Y-94615000D03*
G04 #@! TO.N,/A0*
X125730000Y-104013000D03*
X133350000Y-102870000D03*
G04 #@! TD*
D21*
G04 #@! TO.N,/GPIO0*
X121920000Y-93345000D02*
X138430000Y-93345000D01*
X117348000Y-88773000D02*
X121920000Y-93345000D01*
X109855000Y-84328000D02*
X114300000Y-88773000D01*
X114300000Y-88773000D02*
X117348000Y-88773000D01*
D22*
G04 #@! TO.N,+BATT*
X125664000Y-118430000D02*
X125730000Y-118364000D01*
D23*
X92075000Y-118430000D02*
X125664000Y-118430000D01*
D22*
G04 #@! TO.N,+3V3*
X79375000Y-84328000D02*
X81153000Y-82550000D01*
X93472000Y-82550000D02*
X95250000Y-84328000D01*
X88646000Y-84328000D02*
X88646000Y-82550000D01*
X81153000Y-82550000D02*
X88646000Y-82550000D01*
X88646000Y-82550000D02*
X93472000Y-82550000D01*
D23*
X79375000Y-106680000D02*
X115570000Y-106680000D01*
X115570000Y-106680000D02*
X116840000Y-107950000D01*
X71755000Y-99822000D02*
X79375000Y-99822000D01*
X79375000Y-106680000D02*
X77470000Y-104775000D01*
X77470000Y-101727000D02*
X79375000Y-99822000D01*
X77470000Y-104775000D02*
X77470000Y-101727000D01*
D21*
G04 #@! TO.N,/GPIO13*
X104775000Y-113030000D02*
X102870000Y-111125000D01*
X128270000Y-113030000D02*
X104775000Y-113030000D01*
X132080000Y-116840000D02*
X128270000Y-113030000D01*
G04 #@! TO.N,Net-(IC4-Pad22)*
X121920000Y-84328000D02*
X121920000Y-88773000D01*
X121920000Y-88773000D02*
X123190000Y-90043000D01*
X123190000Y-90043000D02*
X140970000Y-90043000D01*
G04 #@! TO.N,Net-(IC4-Pad21)*
X140970000Y-91821000D02*
X122428000Y-91821000D01*
X119380000Y-88773000D02*
X119380000Y-84328000D01*
X122428000Y-91821000D02*
X119380000Y-88773000D01*
G04 #@! TO.N,/GPIO5*
X76835000Y-97282000D02*
X75565000Y-97282000D01*
X71755000Y-97282000D02*
X75565000Y-97282000D01*
X119888000Y-97282000D02*
X110490000Y-97282000D01*
X110490000Y-97282000D02*
X76835000Y-97282000D01*
X120015000Y-97282000D02*
X120396000Y-96901000D01*
X119888000Y-97282000D02*
X120015000Y-97282000D01*
X139700000Y-96901000D02*
X120396000Y-96901000D01*
G04 #@! TO.N,/GPIO4*
X76835000Y-94742000D02*
X75565000Y-94742000D01*
X71755000Y-94742000D02*
X75565000Y-94742000D01*
X76835000Y-94742000D02*
X110490000Y-94742000D01*
X119380000Y-94742000D02*
X120396000Y-95758000D01*
X110490000Y-94742000D02*
X119380000Y-94742000D01*
X120396000Y-95758000D02*
X140970000Y-95758000D01*
G04 #@! TO.N,/GPIO2*
X91567000Y-88773000D02*
X89662000Y-86868000D01*
X112141000Y-88773000D02*
X91567000Y-88773000D01*
X113538000Y-90170000D02*
X112141000Y-88773000D01*
X116840000Y-90170000D02*
X113538000Y-90170000D01*
X135890000Y-94615000D02*
X121285000Y-94615000D01*
X121285000Y-94615000D02*
X116840000Y-90170000D01*
G04 #@! TO.N,/A0*
X125730000Y-104013000D02*
X130937000Y-104013000D01*
X130937000Y-104013000D02*
X132207000Y-104013000D01*
X132207000Y-104013000D02*
X133350000Y-102870000D01*
G04 #@! TD*
D24*
G04 #@! TO.N,GND*
G36*
X127660400Y-88519000D02*
X127668134Y-88557881D01*
X127690158Y-88590842D01*
X127723119Y-88612866D01*
X127762000Y-88620600D01*
X144654201Y-88620600D01*
X144654200Y-127509200D01*
X69213800Y-127509200D01*
X69213800Y-123969861D01*
X73740200Y-123969861D01*
X73740200Y-124270139D01*
X73855112Y-124547560D01*
X74067440Y-124759888D01*
X74344861Y-124874800D01*
X74645139Y-124874800D01*
X74922560Y-124759888D01*
X75134888Y-124547560D01*
X75249800Y-124270139D01*
X75249800Y-123969861D01*
X75134888Y-123692440D01*
X74922560Y-123480112D01*
X74645139Y-123365200D01*
X74344861Y-123365200D01*
X74067440Y-123480112D01*
X73855112Y-123692440D01*
X73740200Y-123969861D01*
X69213800Y-123969861D01*
X69213800Y-122818250D01*
X140702306Y-122818250D01*
X140707724Y-122868221D01*
X140961551Y-123327853D01*
X141269726Y-123573785D01*
X141170252Y-123640252D01*
X141102885Y-123741073D01*
X141079229Y-123860000D01*
X141079229Y-125060000D01*
X141102885Y-125178927D01*
X141170252Y-125279748D01*
X141271073Y-125347115D01*
X141390000Y-125370771D01*
X143090000Y-125370771D01*
X143208927Y-125347115D01*
X143309748Y-125279748D01*
X143377115Y-125178927D01*
X143400771Y-125060000D01*
X143400771Y-123860000D01*
X143377115Y-123741073D01*
X143309748Y-123640252D01*
X143210274Y-123573785D01*
X143518449Y-123327853D01*
X143772276Y-122868221D01*
X143777694Y-122818250D01*
X143632329Y-122612400D01*
X142392400Y-122612400D01*
X142392400Y-122632400D01*
X142087600Y-122632400D01*
X142087600Y-122612400D01*
X140847671Y-122612400D01*
X140702306Y-122818250D01*
X69213800Y-122818250D01*
X69213800Y-122101750D01*
X140702306Y-122101750D01*
X140847671Y-122307600D01*
X142087600Y-122307600D01*
X142087600Y-121302006D01*
X142392400Y-121302006D01*
X142392400Y-122307600D01*
X143632329Y-122307600D01*
X143777694Y-122101750D01*
X143772276Y-122051779D01*
X143518449Y-121592147D01*
X143108050Y-121264638D01*
X142603559Y-121119112D01*
X142392400Y-121302006D01*
X142087600Y-121302006D01*
X141876441Y-121119112D01*
X141371950Y-121264638D01*
X140961551Y-121592147D01*
X140707724Y-122051779D01*
X140702306Y-122101750D01*
X69213800Y-122101750D01*
X69213800Y-119569861D01*
X73740200Y-119569861D01*
X73740200Y-119870139D01*
X73855112Y-120147560D01*
X74067440Y-120359888D01*
X74344861Y-120474800D01*
X74645139Y-120474800D01*
X74922560Y-120359888D01*
X75134888Y-120147560D01*
X75249800Y-119870139D01*
X75249800Y-119569861D01*
X75134888Y-119292440D01*
X74922560Y-119080112D01*
X74645139Y-118965200D01*
X74344861Y-118965200D01*
X74067440Y-119080112D01*
X73855112Y-119292440D01*
X73740200Y-119569861D01*
X69213800Y-119569861D01*
X69213800Y-118243062D01*
X91135200Y-118243062D01*
X91135200Y-118616938D01*
X91278276Y-118962354D01*
X91542646Y-119226724D01*
X91888062Y-119369800D01*
X92261938Y-119369800D01*
X92607354Y-119226724D01*
X92654778Y-119179300D01*
X125242492Y-119179300D01*
X125543062Y-119303800D01*
X125916938Y-119303800D01*
X126262354Y-119160724D01*
X126526724Y-118896354D01*
X126669800Y-118550938D01*
X126669800Y-118177062D01*
X126526724Y-117831646D01*
X126262354Y-117567276D01*
X125916938Y-117424200D01*
X125543062Y-117424200D01*
X125197646Y-117567276D01*
X125084222Y-117680700D01*
X92654778Y-117680700D01*
X92607354Y-117633276D01*
X92261938Y-117490200D01*
X91888062Y-117490200D01*
X91542646Y-117633276D01*
X91278276Y-117897646D01*
X91135200Y-118243062D01*
X69213800Y-118243062D01*
X69213800Y-110938062D01*
X101930200Y-110938062D01*
X101930200Y-111311938D01*
X102073276Y-111657354D01*
X102337646Y-111921724D01*
X102683062Y-112064800D01*
X103056938Y-112064800D01*
X103157492Y-112023149D01*
X104439602Y-113305260D01*
X104463690Y-113341310D01*
X104499740Y-113365398D01*
X104499741Y-113365399D01*
X104606520Y-113436746D01*
X104732474Y-113461800D01*
X104732478Y-113461800D01*
X104775000Y-113470258D01*
X104817522Y-113461800D01*
X128091143Y-113461800D01*
X130769229Y-116139887D01*
X130769229Y-117840000D01*
X130792885Y-117958927D01*
X130860252Y-118059748D01*
X130961073Y-118127115D01*
X131080000Y-118150771D01*
X133080000Y-118150771D01*
X133198927Y-118127115D01*
X133292815Y-118064380D01*
X138671146Y-118064380D01*
X138766411Y-118356726D01*
X139416379Y-118590887D01*
X140106482Y-118558492D01*
X140593589Y-118356726D01*
X140688854Y-118064380D01*
X139680000Y-117055526D01*
X138671146Y-118064380D01*
X133292815Y-118064380D01*
X133299748Y-118059748D01*
X133367115Y-117958927D01*
X133390771Y-117840000D01*
X133390771Y-116576379D01*
X137929113Y-116576379D01*
X137961508Y-117266482D01*
X138163274Y-117753589D01*
X138455620Y-117848854D01*
X139464474Y-116840000D01*
X139895526Y-116840000D01*
X140904380Y-117848854D01*
X141196726Y-117753589D01*
X141430887Y-117103621D01*
X141398492Y-116413518D01*
X141196726Y-115926411D01*
X140904380Y-115831146D01*
X139895526Y-116840000D01*
X139464474Y-116840000D01*
X138455620Y-115831146D01*
X138163274Y-115926411D01*
X137929113Y-116576379D01*
X133390771Y-116576379D01*
X133390771Y-115840000D01*
X133367115Y-115721073D01*
X133299748Y-115620252D01*
X133292816Y-115615620D01*
X138671146Y-115615620D01*
X139680000Y-116624474D01*
X140688854Y-115615620D01*
X140593589Y-115323274D01*
X139943621Y-115089113D01*
X139253518Y-115121508D01*
X138766411Y-115323274D01*
X138671146Y-115615620D01*
X133292816Y-115615620D01*
X133198927Y-115552885D01*
X133080000Y-115529229D01*
X131379887Y-115529229D01*
X128605400Y-112754743D01*
X128581310Y-112718690D01*
X128438480Y-112623254D01*
X128312526Y-112598200D01*
X128312522Y-112598200D01*
X128270000Y-112589742D01*
X128227478Y-112598200D01*
X104953858Y-112598200D01*
X103768149Y-111412492D01*
X103809800Y-111311938D01*
X103809800Y-110938062D01*
X103666724Y-110592646D01*
X103402354Y-110328276D01*
X103056938Y-110185200D01*
X102683062Y-110185200D01*
X102337646Y-110328276D01*
X102073276Y-110592646D01*
X101930200Y-110938062D01*
X69213800Y-110938062D01*
X69213800Y-102759575D01*
X70219020Y-102759575D01*
X70387760Y-103166981D01*
X70799888Y-103628925D01*
X71357423Y-103897991D01*
X71602600Y-103757125D01*
X71602600Y-102514400D01*
X71907400Y-102514400D01*
X71907400Y-103757125D01*
X72152577Y-103897991D01*
X72710112Y-103628925D01*
X73122240Y-103166981D01*
X73290980Y-102759575D01*
X73149145Y-102514400D01*
X71907400Y-102514400D01*
X71602600Y-102514400D01*
X70360855Y-102514400D01*
X70219020Y-102759575D01*
X69213800Y-102759575D01*
X69213800Y-101964425D01*
X70219020Y-101964425D01*
X70360855Y-102209600D01*
X71602600Y-102209600D01*
X71602600Y-102189600D01*
X71907400Y-102189600D01*
X71907400Y-102209600D01*
X73149145Y-102209600D01*
X73290980Y-101964425D01*
X73122240Y-101557019D01*
X72710112Y-101095075D01*
X72256162Y-100875999D01*
X72587564Y-100654564D01*
X72643199Y-100571300D01*
X77566031Y-100571300D01*
X76992350Y-101144981D01*
X76929786Y-101186785D01*
X76887983Y-101249348D01*
X76764176Y-101434638D01*
X76706021Y-101727000D01*
X76720701Y-101800800D01*
X76720700Y-104701204D01*
X76706021Y-104775000D01*
X76720700Y-104848796D01*
X76764175Y-105067361D01*
X76929785Y-105315215D01*
X76992352Y-105357021D01*
X78435200Y-106799870D01*
X78435200Y-106866938D01*
X78578276Y-107212354D01*
X78842646Y-107476724D01*
X79188062Y-107619800D01*
X79561938Y-107619800D01*
X79907354Y-107476724D01*
X79954778Y-107429300D01*
X115259631Y-107429300D01*
X115900200Y-108069870D01*
X115900200Y-108136938D01*
X116043276Y-108482354D01*
X116307646Y-108746724D01*
X116653062Y-108889800D01*
X117026938Y-108889800D01*
X117372354Y-108746724D01*
X117636724Y-108482354D01*
X117779800Y-108136938D01*
X117779800Y-107763062D01*
X117636724Y-107417646D01*
X117372354Y-107153276D01*
X117026938Y-107010200D01*
X116959870Y-107010200D01*
X116152021Y-106202352D01*
X116110215Y-106139785D01*
X115862362Y-105974175D01*
X115643797Y-105930700D01*
X115643796Y-105930700D01*
X115570000Y-105916021D01*
X115496204Y-105930700D01*
X79954778Y-105930700D01*
X79907354Y-105883276D01*
X79561938Y-105740200D01*
X79494870Y-105740200D01*
X78219300Y-104464631D01*
X78219300Y-103404091D01*
X78419888Y-103628925D01*
X78977423Y-103897991D01*
X79222600Y-103757125D01*
X79222600Y-102514400D01*
X79527400Y-102514400D01*
X79527400Y-103757125D01*
X79772577Y-103897991D01*
X79921621Y-103826062D01*
X124790200Y-103826062D01*
X124790200Y-104199938D01*
X124933276Y-104545354D01*
X125197646Y-104809724D01*
X125543062Y-104952800D01*
X125916938Y-104952800D01*
X126262354Y-104809724D01*
X126526724Y-104545354D01*
X126568375Y-104444800D01*
X132164478Y-104444800D01*
X132207000Y-104453258D01*
X132249522Y-104444800D01*
X132249526Y-104444800D01*
X132375480Y-104419746D01*
X132518310Y-104324310D01*
X132542399Y-104288258D01*
X133062508Y-103768149D01*
X133163062Y-103809800D01*
X133536938Y-103809800D01*
X133882354Y-103666724D01*
X134146724Y-103402354D01*
X134289800Y-103056938D01*
X134289800Y-102683062D01*
X134146724Y-102337646D01*
X133882354Y-102073276D01*
X133536938Y-101930200D01*
X133163062Y-101930200D01*
X132817646Y-102073276D01*
X132553276Y-102337646D01*
X132410200Y-102683062D01*
X132410200Y-103056938D01*
X132451851Y-103157492D01*
X132028143Y-103581200D01*
X126568375Y-103581200D01*
X126526724Y-103480646D01*
X126262354Y-103216276D01*
X125916938Y-103073200D01*
X125543062Y-103073200D01*
X125197646Y-103216276D01*
X124933276Y-103480646D01*
X124790200Y-103826062D01*
X79921621Y-103826062D01*
X80330112Y-103628925D01*
X80742240Y-103166981D01*
X80910980Y-102759575D01*
X80769145Y-102514400D01*
X79527400Y-102514400D01*
X79222600Y-102514400D01*
X79202600Y-102514400D01*
X79202600Y-102209600D01*
X79222600Y-102209600D01*
X79222600Y-102189600D01*
X79527400Y-102189600D01*
X79527400Y-102209600D01*
X80769145Y-102209600D01*
X80910980Y-101964425D01*
X80742240Y-101557019D01*
X80330112Y-101095075D01*
X79876162Y-100875999D01*
X80207564Y-100654564D01*
X80462797Y-100272580D01*
X80552423Y-99822000D01*
X80462797Y-99371420D01*
X80207564Y-98989436D01*
X79825580Y-98734203D01*
X79488733Y-98667200D01*
X79261267Y-98667200D01*
X78924420Y-98734203D01*
X78542436Y-98989436D01*
X78486801Y-99072700D01*
X72643199Y-99072700D01*
X72587564Y-98989436D01*
X72205580Y-98734203D01*
X71868733Y-98667200D01*
X71641267Y-98667200D01*
X71304420Y-98734203D01*
X70922436Y-98989436D01*
X70667203Y-99371420D01*
X70577577Y-99822000D01*
X70667203Y-100272580D01*
X70922436Y-100654564D01*
X71253838Y-100875999D01*
X70799888Y-101095075D01*
X70387760Y-101557019D01*
X70219020Y-101964425D01*
X69213800Y-101964425D01*
X69213800Y-97282000D01*
X70577577Y-97282000D01*
X70667203Y-97732580D01*
X70922436Y-98114564D01*
X71304420Y-98369797D01*
X71641267Y-98436800D01*
X71868733Y-98436800D01*
X72205580Y-98369797D01*
X72587564Y-98114564D01*
X72842797Y-97732580D01*
X72846533Y-97713800D01*
X78283467Y-97713800D01*
X78287203Y-97732580D01*
X78542436Y-98114564D01*
X78924420Y-98369797D01*
X79261267Y-98436800D01*
X79488733Y-98436800D01*
X79825580Y-98369797D01*
X80207564Y-98114564D01*
X80462797Y-97732580D01*
X80466533Y-97713800D01*
X109651625Y-97713800D01*
X109693276Y-97814354D01*
X109957646Y-98078724D01*
X110303062Y-98221800D01*
X110676938Y-98221800D01*
X111022354Y-98078724D01*
X111286724Y-97814354D01*
X111328375Y-97713800D01*
X119972478Y-97713800D01*
X120015000Y-97722258D01*
X120057522Y-97713800D01*
X120057526Y-97713800D01*
X120183480Y-97688746D01*
X120326310Y-97593310D01*
X120350400Y-97557257D01*
X120574857Y-97332800D01*
X138861625Y-97332800D01*
X138903276Y-97433354D01*
X139167646Y-97697724D01*
X139513062Y-97840800D01*
X139886938Y-97840800D01*
X140232354Y-97697724D01*
X140496724Y-97433354D01*
X140639800Y-97087938D01*
X140639800Y-96714062D01*
X140601998Y-96622801D01*
X140783062Y-96697800D01*
X141156938Y-96697800D01*
X141502354Y-96554724D01*
X141766724Y-96290354D01*
X141909800Y-95944938D01*
X141909800Y-95571062D01*
X141766724Y-95225646D01*
X141502354Y-94961276D01*
X141156938Y-94818200D01*
X140783062Y-94818200D01*
X140437646Y-94961276D01*
X140173276Y-95225646D01*
X140131625Y-95326200D01*
X136507878Y-95326200D01*
X136686724Y-95147354D01*
X136829800Y-94801938D01*
X136829800Y-94428062D01*
X136686724Y-94082646D01*
X136422354Y-93818276D01*
X136322222Y-93776800D01*
X137591625Y-93776800D01*
X137633276Y-93877354D01*
X137897646Y-94141724D01*
X138243062Y-94284800D01*
X138616938Y-94284800D01*
X138962354Y-94141724D01*
X139226724Y-93877354D01*
X139369800Y-93531938D01*
X139369800Y-93158062D01*
X139226724Y-92812646D01*
X138962354Y-92548276D01*
X138616938Y-92405200D01*
X138243062Y-92405200D01*
X137897646Y-92548276D01*
X137633276Y-92812646D01*
X137591625Y-92913200D01*
X122098857Y-92913200D01*
X117683400Y-88497743D01*
X117659310Y-88461690D01*
X117516480Y-88366254D01*
X117390526Y-88341200D01*
X117390522Y-88341200D01*
X117348000Y-88332742D01*
X117305478Y-88341200D01*
X114478857Y-88341200D01*
X110932159Y-84794502D01*
X110942797Y-84778580D01*
X110965478Y-84664550D01*
X115253400Y-84664550D01*
X115253400Y-85324519D01*
X115365541Y-85595251D01*
X115572750Y-85802459D01*
X115843481Y-85914600D01*
X116503450Y-85914600D01*
X116687600Y-85730450D01*
X116687600Y-84480400D01*
X115437550Y-84480400D01*
X115253400Y-84664550D01*
X110965478Y-84664550D01*
X111032423Y-84328000D01*
X110942797Y-83877420D01*
X110687564Y-83495436D01*
X110442188Y-83331481D01*
X115253400Y-83331481D01*
X115253400Y-83991450D01*
X115437550Y-84175600D01*
X116687600Y-84175600D01*
X116687600Y-82925550D01*
X116992400Y-82925550D01*
X116992400Y-84175600D01*
X117012400Y-84175600D01*
X117012400Y-84480400D01*
X116992400Y-84480400D01*
X116992400Y-85730450D01*
X117176550Y-85914600D01*
X117836519Y-85914600D01*
X118107250Y-85802459D01*
X118314459Y-85595251D01*
X118426600Y-85324519D01*
X118426600Y-84979720D01*
X118547436Y-85160564D01*
X118929420Y-85415797D01*
X118948201Y-85419533D01*
X118948200Y-88730478D01*
X118939742Y-88773000D01*
X118948200Y-88815522D01*
X118948200Y-88815525D01*
X118973254Y-88941479D01*
X119068690Y-89084310D01*
X119104742Y-89108399D01*
X122092602Y-92096260D01*
X122116690Y-92132310D01*
X122152740Y-92156398D01*
X122152741Y-92156399D01*
X122259520Y-92227746D01*
X122385474Y-92252800D01*
X122385478Y-92252800D01*
X122428000Y-92261258D01*
X122470522Y-92252800D01*
X140131625Y-92252800D01*
X140173276Y-92353354D01*
X140437646Y-92617724D01*
X140783062Y-92760800D01*
X141156938Y-92760800D01*
X141502354Y-92617724D01*
X141766724Y-92353354D01*
X141909800Y-92007938D01*
X141909800Y-91634062D01*
X141766724Y-91288646D01*
X141502354Y-91024276D01*
X141279580Y-90932000D01*
X141502354Y-90839724D01*
X141766724Y-90575354D01*
X141909800Y-90229938D01*
X141909800Y-89856062D01*
X141766724Y-89510646D01*
X141502354Y-89246276D01*
X141156938Y-89103200D01*
X140783062Y-89103200D01*
X140437646Y-89246276D01*
X140173276Y-89510646D01*
X140131625Y-89611200D01*
X123368857Y-89611200D01*
X122351800Y-88594143D01*
X122351800Y-85419533D01*
X122370580Y-85415797D01*
X122752564Y-85160564D01*
X123007797Y-84778580D01*
X123097423Y-84328000D01*
X123282577Y-84328000D01*
X123372203Y-84778580D01*
X123627436Y-85160564D01*
X124009420Y-85415797D01*
X124346267Y-85482800D01*
X124573733Y-85482800D01*
X124910580Y-85415797D01*
X125292564Y-85160564D01*
X125547797Y-84778580D01*
X125637423Y-84328000D01*
X125547797Y-83877420D01*
X125292564Y-83495436D01*
X124910580Y-83240203D01*
X124573733Y-83173200D01*
X124346267Y-83173200D01*
X124009420Y-83240203D01*
X123627436Y-83495436D01*
X123372203Y-83877420D01*
X123282577Y-84328000D01*
X123097423Y-84328000D01*
X123007797Y-83877420D01*
X122752564Y-83495436D01*
X122370580Y-83240203D01*
X122033733Y-83173200D01*
X121806267Y-83173200D01*
X121469420Y-83240203D01*
X121087436Y-83495436D01*
X120832203Y-83877420D01*
X120742577Y-84328000D01*
X120832203Y-84778580D01*
X121087436Y-85160564D01*
X121469420Y-85415797D01*
X121488200Y-85419533D01*
X121488201Y-88730473D01*
X121479742Y-88773000D01*
X121513254Y-88941479D01*
X121584601Y-89048258D01*
X121584603Y-89048260D01*
X121608691Y-89084310D01*
X121644741Y-89108398D01*
X122854600Y-90318257D01*
X122878690Y-90354310D01*
X123021520Y-90449746D01*
X123147474Y-90474800D01*
X123147477Y-90474800D01*
X123189999Y-90483258D01*
X123232521Y-90474800D01*
X140131625Y-90474800D01*
X140173276Y-90575354D01*
X140437646Y-90839724D01*
X140660420Y-90932000D01*
X140437646Y-91024276D01*
X140173276Y-91288646D01*
X140131625Y-91389200D01*
X122606858Y-91389200D01*
X119811800Y-88594143D01*
X119811800Y-85419533D01*
X119830580Y-85415797D01*
X120212564Y-85160564D01*
X120467797Y-84778580D01*
X120557423Y-84328000D01*
X120467797Y-83877420D01*
X120212564Y-83495436D01*
X119830580Y-83240203D01*
X119493733Y-83173200D01*
X119266267Y-83173200D01*
X118929420Y-83240203D01*
X118547436Y-83495436D01*
X118426600Y-83676280D01*
X118426600Y-83331481D01*
X118314459Y-83060749D01*
X118107250Y-82853541D01*
X117836519Y-82741400D01*
X117176550Y-82741400D01*
X116992400Y-82925550D01*
X116687600Y-82925550D01*
X116503450Y-82741400D01*
X115843481Y-82741400D01*
X115572750Y-82853541D01*
X115365541Y-83060749D01*
X115253400Y-83331481D01*
X110442188Y-83331481D01*
X110305580Y-83240203D01*
X109968733Y-83173200D01*
X109741267Y-83173200D01*
X109404420Y-83240203D01*
X109022436Y-83495436D01*
X108901600Y-83676280D01*
X108901600Y-83331481D01*
X108789459Y-83060749D01*
X108582250Y-82853541D01*
X108311519Y-82741400D01*
X107651550Y-82741400D01*
X107467400Y-82925550D01*
X107467400Y-84175600D01*
X107487400Y-84175600D01*
X107487400Y-84480400D01*
X107467400Y-84480400D01*
X107467400Y-85730450D01*
X107651550Y-85914600D01*
X108311519Y-85914600D01*
X108582250Y-85802459D01*
X108789459Y-85595251D01*
X108901600Y-85324519D01*
X108901600Y-84979720D01*
X109022436Y-85160564D01*
X109404420Y-85415797D01*
X109741267Y-85482800D01*
X109968733Y-85482800D01*
X110305580Y-85415797D01*
X110321502Y-85405159D01*
X113964600Y-89048257D01*
X113988690Y-89084310D01*
X114131520Y-89179746D01*
X114257474Y-89204800D01*
X114257477Y-89204800D01*
X114299999Y-89213258D01*
X114342521Y-89204800D01*
X117169143Y-89204800D01*
X121584600Y-93620257D01*
X121608690Y-93656310D01*
X121751520Y-93751746D01*
X121877474Y-93776800D01*
X121877478Y-93776800D01*
X121919999Y-93785258D01*
X121962520Y-93776800D01*
X135457778Y-93776800D01*
X135357646Y-93818276D01*
X135093276Y-94082646D01*
X135051625Y-94183200D01*
X121463857Y-94183200D01*
X117175400Y-89894743D01*
X117151310Y-89858690D01*
X117008480Y-89763254D01*
X116882526Y-89738200D01*
X116882522Y-89738200D01*
X116840000Y-89729742D01*
X116797478Y-89738200D01*
X113716857Y-89738200D01*
X112476400Y-88497743D01*
X112452310Y-88461690D01*
X112309480Y-88366254D01*
X112183526Y-88341200D01*
X112183522Y-88341200D01*
X112141000Y-88332742D01*
X112098478Y-88341200D01*
X91745858Y-88341200D01*
X90501800Y-87097143D01*
X90501800Y-86420290D01*
X90453074Y-86175327D01*
X90267462Y-85897538D01*
X89989672Y-85711926D01*
X89662000Y-85646748D01*
X89334327Y-85711926D01*
X89056538Y-85897538D01*
X88870926Y-86175328D01*
X88822200Y-86420291D01*
X88822200Y-87315710D01*
X88870927Y-87560673D01*
X89056539Y-87838462D01*
X89334328Y-88024074D01*
X89662000Y-88089252D01*
X89989673Y-88024074D01*
X90120201Y-87936858D01*
X91231602Y-89048260D01*
X91255690Y-89084310D01*
X91291740Y-89108398D01*
X91291741Y-89108399D01*
X91398520Y-89179746D01*
X91524474Y-89204800D01*
X91524478Y-89204800D01*
X91567000Y-89213258D01*
X91609522Y-89204800D01*
X111962143Y-89204800D01*
X113202600Y-90445257D01*
X113226690Y-90481310D01*
X113369520Y-90576746D01*
X113495474Y-90601800D01*
X113495478Y-90601800D01*
X113537999Y-90610258D01*
X113580520Y-90601800D01*
X116661143Y-90601800D01*
X120949600Y-94890257D01*
X120973690Y-94926310D01*
X121116520Y-95021746D01*
X121242474Y-95046800D01*
X121242477Y-95046800D01*
X121284999Y-95055258D01*
X121327521Y-95046800D01*
X135051625Y-95046800D01*
X135093276Y-95147354D01*
X135272122Y-95326200D01*
X120574858Y-95326200D01*
X119715399Y-94466742D01*
X119691310Y-94430690D01*
X119548480Y-94335254D01*
X119422526Y-94310200D01*
X119422522Y-94310200D01*
X119380000Y-94301742D01*
X119337478Y-94310200D01*
X110693375Y-94310200D01*
X110651724Y-94209646D01*
X110387354Y-93945276D01*
X110041938Y-93802200D01*
X109668062Y-93802200D01*
X109322646Y-93945276D01*
X109058276Y-94209646D01*
X109016625Y-94310200D01*
X80535771Y-94310200D01*
X80535771Y-93892000D01*
X80512115Y-93773073D01*
X80444748Y-93672252D01*
X80343927Y-93604885D01*
X80225000Y-93581229D01*
X78525000Y-93581229D01*
X78406073Y-93604885D01*
X78305252Y-93672252D01*
X78237885Y-93773073D01*
X78214229Y-93892000D01*
X78214229Y-94310200D01*
X72915771Y-94310200D01*
X72915771Y-93892000D01*
X72892115Y-93773073D01*
X72824748Y-93672252D01*
X72723927Y-93604885D01*
X72605000Y-93581229D01*
X70905000Y-93581229D01*
X70786073Y-93604885D01*
X70685252Y-93672252D01*
X70617885Y-93773073D01*
X70594229Y-93892000D01*
X70594229Y-95592000D01*
X70617885Y-95710927D01*
X70685252Y-95811748D01*
X70786073Y-95879115D01*
X70905000Y-95902771D01*
X72605000Y-95902771D01*
X72723927Y-95879115D01*
X72824748Y-95811748D01*
X72892115Y-95710927D01*
X72915771Y-95592000D01*
X72915771Y-95173800D01*
X78214229Y-95173800D01*
X78214229Y-95592000D01*
X78237885Y-95710927D01*
X78305252Y-95811748D01*
X78406073Y-95879115D01*
X78525000Y-95902771D01*
X80225000Y-95902771D01*
X80343927Y-95879115D01*
X80444748Y-95811748D01*
X80512115Y-95710927D01*
X80535771Y-95592000D01*
X80535771Y-95173800D01*
X109016625Y-95173800D01*
X109058276Y-95274354D01*
X109322646Y-95538724D01*
X109668062Y-95681800D01*
X110041938Y-95681800D01*
X110387354Y-95538724D01*
X110651724Y-95274354D01*
X110693375Y-95173800D01*
X119201143Y-95173800D01*
X120060602Y-96033260D01*
X120084690Y-96069310D01*
X120120740Y-96093398D01*
X120120741Y-96093399D01*
X120137020Y-96104276D01*
X120227520Y-96164746D01*
X120353474Y-96189800D01*
X120353478Y-96189800D01*
X120396000Y-96198258D01*
X120438522Y-96189800D01*
X139082122Y-96189800D01*
X138903276Y-96368646D01*
X138861625Y-96469200D01*
X120438520Y-96469200D01*
X120395999Y-96460742D01*
X120353478Y-96469200D01*
X120353474Y-96469200D01*
X120227520Y-96494254D01*
X120084690Y-96589690D01*
X120060600Y-96625743D01*
X119836143Y-96850200D01*
X111328375Y-96850200D01*
X111286724Y-96749646D01*
X111022354Y-96485276D01*
X110676938Y-96342200D01*
X110303062Y-96342200D01*
X109957646Y-96485276D01*
X109693276Y-96749646D01*
X109651625Y-96850200D01*
X80466533Y-96850200D01*
X80462797Y-96831420D01*
X80207564Y-96449436D01*
X79825580Y-96194203D01*
X79488733Y-96127200D01*
X79261267Y-96127200D01*
X78924420Y-96194203D01*
X78542436Y-96449436D01*
X78287203Y-96831420D01*
X78283467Y-96850200D01*
X72846533Y-96850200D01*
X72842797Y-96831420D01*
X72587564Y-96449436D01*
X72205580Y-96194203D01*
X71868733Y-96127200D01*
X71641267Y-96127200D01*
X71304420Y-96194203D01*
X70922436Y-96449436D01*
X70667203Y-96831420D01*
X70577577Y-97282000D01*
X69213800Y-97282000D01*
X69213800Y-85968000D01*
X85006229Y-85968000D01*
X85006229Y-87768000D01*
X85029885Y-87886927D01*
X85097252Y-87987748D01*
X85198073Y-88055115D01*
X85317000Y-88078771D01*
X86387000Y-88078771D01*
X86505927Y-88055115D01*
X86606748Y-87987748D01*
X86674115Y-87886927D01*
X86697771Y-87768000D01*
X86697771Y-85968000D01*
X86674115Y-85849073D01*
X86652588Y-85816856D01*
X86715600Y-85769718D01*
X86715600Y-84480400D01*
X85596400Y-84480400D01*
X85596400Y-84845400D01*
X85751516Y-85320419D01*
X86040036Y-85657229D01*
X85317000Y-85657229D01*
X85198073Y-85680885D01*
X85097252Y-85748252D01*
X85029885Y-85849073D01*
X85006229Y-85968000D01*
X69213800Y-85968000D01*
X69213800Y-85371141D01*
X70927385Y-85371141D01*
X70991889Y-85637611D01*
X71551144Y-85829953D01*
X72141434Y-85793636D01*
X72518111Y-85637611D01*
X72582615Y-85371141D01*
X71755000Y-84543526D01*
X70927385Y-85371141D01*
X69213800Y-85371141D01*
X69213800Y-84124144D01*
X70253047Y-84124144D01*
X70289364Y-84714434D01*
X70445389Y-85091111D01*
X70711859Y-85155615D01*
X71539474Y-84328000D01*
X71970526Y-84328000D01*
X72798141Y-85155615D01*
X73064611Y-85091111D01*
X73248234Y-84557208D01*
X73400784Y-84925496D01*
X73697504Y-85222216D01*
X74085187Y-85382800D01*
X74504813Y-85382800D01*
X74892496Y-85222216D01*
X75189216Y-84925496D01*
X75349800Y-84537813D01*
X75349800Y-84118187D01*
X75780200Y-84118187D01*
X75780200Y-84537813D01*
X75940784Y-84925496D01*
X76237504Y-85222216D01*
X76625187Y-85382800D01*
X77044813Y-85382800D01*
X77432496Y-85222216D01*
X77729216Y-84925496D01*
X77889800Y-84537813D01*
X77889800Y-84118187D01*
X77729216Y-83730504D01*
X77576712Y-83578000D01*
X78314229Y-83578000D01*
X78314229Y-85078000D01*
X78337885Y-85196927D01*
X78405252Y-85297748D01*
X78506073Y-85365115D01*
X78625000Y-85388771D01*
X80125000Y-85388771D01*
X80243927Y-85365115D01*
X80344748Y-85297748D01*
X80412115Y-85196927D01*
X80435771Y-85078000D01*
X80435771Y-84057491D01*
X81384463Y-83108800D01*
X85945782Y-83108800D01*
X85751516Y-83335581D01*
X85596400Y-83810600D01*
X85596400Y-84175600D01*
X86715600Y-84175600D01*
X86715600Y-84155600D01*
X87020400Y-84155600D01*
X87020400Y-84175600D01*
X87040400Y-84175600D01*
X87040400Y-84480400D01*
X87020400Y-84480400D01*
X87020400Y-85769718D01*
X87216012Y-85916051D01*
X87659394Y-85699920D01*
X87984484Y-85320419D01*
X88007702Y-85249318D01*
X88040539Y-85298462D01*
X88318328Y-85484074D01*
X88646000Y-85549252D01*
X88973673Y-85484074D01*
X89251462Y-85298462D01*
X89437074Y-85020673D01*
X89485800Y-84775710D01*
X89485800Y-83880290D01*
X89437074Y-83635327D01*
X89251462Y-83357538D01*
X89204800Y-83326360D01*
X89204800Y-83108800D01*
X93240539Y-83108800D01*
X94089229Y-83957491D01*
X94089229Y-85178000D01*
X94112885Y-85296927D01*
X94180252Y-85397748D01*
X94281073Y-85465115D01*
X94400000Y-85488771D01*
X96100000Y-85488771D01*
X96218927Y-85465115D01*
X96319748Y-85397748D01*
X96387115Y-85296927D01*
X96410771Y-85178000D01*
X96410771Y-84328000D01*
X96612577Y-84328000D01*
X96702203Y-84778580D01*
X96957436Y-85160564D01*
X97339420Y-85415797D01*
X97676267Y-85482800D01*
X97903733Y-85482800D01*
X98240580Y-85415797D01*
X98622564Y-85160564D01*
X98843999Y-84829162D01*
X99063075Y-85283112D01*
X99525019Y-85695240D01*
X99932425Y-85863980D01*
X100177600Y-85722145D01*
X100177600Y-84480400D01*
X100482400Y-84480400D01*
X100482400Y-85722145D01*
X100727575Y-85863980D01*
X101134981Y-85695240D01*
X101596925Y-85283112D01*
X101865991Y-84725577D01*
X101830929Y-84664550D01*
X105728400Y-84664550D01*
X105728400Y-85324519D01*
X105840541Y-85595251D01*
X106047750Y-85802459D01*
X106318481Y-85914600D01*
X106978450Y-85914600D01*
X107162600Y-85730450D01*
X107162600Y-84480400D01*
X105912550Y-84480400D01*
X105728400Y-84664550D01*
X101830929Y-84664550D01*
X101725125Y-84480400D01*
X100482400Y-84480400D01*
X100177600Y-84480400D01*
X100157600Y-84480400D01*
X100157600Y-84175600D01*
X100177600Y-84175600D01*
X100177600Y-82933855D01*
X100482400Y-82933855D01*
X100482400Y-84175600D01*
X101725125Y-84175600D01*
X101865991Y-83930423D01*
X101596925Y-83372888D01*
X101550513Y-83331481D01*
X105728400Y-83331481D01*
X105728400Y-83991450D01*
X105912550Y-84175600D01*
X107162600Y-84175600D01*
X107162600Y-82925550D01*
X106978450Y-82741400D01*
X106318481Y-82741400D01*
X106047750Y-82853541D01*
X105840541Y-83060749D01*
X105728400Y-83331481D01*
X101550513Y-83331481D01*
X101134981Y-82960760D01*
X100727575Y-82792020D01*
X100482400Y-82933855D01*
X100177600Y-82933855D01*
X99932425Y-82792020D01*
X99525019Y-82960760D01*
X99063075Y-83372888D01*
X98843999Y-83826838D01*
X98622564Y-83495436D01*
X98240580Y-83240203D01*
X97903733Y-83173200D01*
X97676267Y-83173200D01*
X97339420Y-83240203D01*
X96957436Y-83495436D01*
X96702203Y-83877420D01*
X96612577Y-84328000D01*
X96410771Y-84328000D01*
X96410771Y-83478000D01*
X96387115Y-83359073D01*
X96319748Y-83258252D01*
X96218927Y-83190885D01*
X96100000Y-83167229D01*
X94879491Y-83167229D01*
X93906050Y-82193789D01*
X93874872Y-82147128D01*
X93690033Y-82023622D01*
X93527035Y-81991200D01*
X93472000Y-81980253D01*
X93416965Y-81991200D01*
X88701035Y-81991200D01*
X88646000Y-81980253D01*
X88590965Y-81991200D01*
X81208035Y-81991200D01*
X81153000Y-81980253D01*
X81097965Y-81991200D01*
X80934967Y-82023622D01*
X80750128Y-82147128D01*
X80718954Y-82193783D01*
X79645509Y-83267229D01*
X78625000Y-83267229D01*
X78506073Y-83290885D01*
X78405252Y-83358252D01*
X78337885Y-83459073D01*
X78314229Y-83578000D01*
X77576712Y-83578000D01*
X77432496Y-83433784D01*
X77044813Y-83273200D01*
X76625187Y-83273200D01*
X76237504Y-83433784D01*
X75940784Y-83730504D01*
X75780200Y-84118187D01*
X75349800Y-84118187D01*
X75189216Y-83730504D01*
X74892496Y-83433784D01*
X74504813Y-83273200D01*
X74085187Y-83273200D01*
X73697504Y-83433784D01*
X73400784Y-83730504D01*
X73240200Y-84118187D01*
X73240200Y-84259556D01*
X73220636Y-83941566D01*
X73064611Y-83564889D01*
X72798141Y-83500385D01*
X71970526Y-84328000D01*
X71539474Y-84328000D01*
X70711859Y-83500385D01*
X70445389Y-83564889D01*
X70253047Y-84124144D01*
X69213800Y-84124144D01*
X69213800Y-83284859D01*
X70927385Y-83284859D01*
X71755000Y-84112474D01*
X72582615Y-83284859D01*
X72518111Y-83018389D01*
X71958856Y-82826047D01*
X71368566Y-82862364D01*
X70991889Y-83018389D01*
X70927385Y-83284859D01*
X69213800Y-83284859D01*
X69213800Y-81405800D01*
X127660400Y-81405800D01*
X127660400Y-88519000D01*
X127660400Y-88519000D01*
G37*
X127660400Y-88519000D02*
X127668134Y-88557881D01*
X127690158Y-88590842D01*
X127723119Y-88612866D01*
X127762000Y-88620600D01*
X144654201Y-88620600D01*
X144654200Y-127509200D01*
X69213800Y-127509200D01*
X69213800Y-123969861D01*
X73740200Y-123969861D01*
X73740200Y-124270139D01*
X73855112Y-124547560D01*
X74067440Y-124759888D01*
X74344861Y-124874800D01*
X74645139Y-124874800D01*
X74922560Y-124759888D01*
X75134888Y-124547560D01*
X75249800Y-124270139D01*
X75249800Y-123969861D01*
X75134888Y-123692440D01*
X74922560Y-123480112D01*
X74645139Y-123365200D01*
X74344861Y-123365200D01*
X74067440Y-123480112D01*
X73855112Y-123692440D01*
X73740200Y-123969861D01*
X69213800Y-123969861D01*
X69213800Y-122818250D01*
X140702306Y-122818250D01*
X140707724Y-122868221D01*
X140961551Y-123327853D01*
X141269726Y-123573785D01*
X141170252Y-123640252D01*
X141102885Y-123741073D01*
X141079229Y-123860000D01*
X141079229Y-125060000D01*
X141102885Y-125178927D01*
X141170252Y-125279748D01*
X141271073Y-125347115D01*
X141390000Y-125370771D01*
X143090000Y-125370771D01*
X143208927Y-125347115D01*
X143309748Y-125279748D01*
X143377115Y-125178927D01*
X143400771Y-125060000D01*
X143400771Y-123860000D01*
X143377115Y-123741073D01*
X143309748Y-123640252D01*
X143210274Y-123573785D01*
X143518449Y-123327853D01*
X143772276Y-122868221D01*
X143777694Y-122818250D01*
X143632329Y-122612400D01*
X142392400Y-122612400D01*
X142392400Y-122632400D01*
X142087600Y-122632400D01*
X142087600Y-122612400D01*
X140847671Y-122612400D01*
X140702306Y-122818250D01*
X69213800Y-122818250D01*
X69213800Y-122101750D01*
X140702306Y-122101750D01*
X140847671Y-122307600D01*
X142087600Y-122307600D01*
X142087600Y-121302006D01*
X142392400Y-121302006D01*
X142392400Y-122307600D01*
X143632329Y-122307600D01*
X143777694Y-122101750D01*
X143772276Y-122051779D01*
X143518449Y-121592147D01*
X143108050Y-121264638D01*
X142603559Y-121119112D01*
X142392400Y-121302006D01*
X142087600Y-121302006D01*
X141876441Y-121119112D01*
X141371950Y-121264638D01*
X140961551Y-121592147D01*
X140707724Y-122051779D01*
X140702306Y-122101750D01*
X69213800Y-122101750D01*
X69213800Y-119569861D01*
X73740200Y-119569861D01*
X73740200Y-119870139D01*
X73855112Y-120147560D01*
X74067440Y-120359888D01*
X74344861Y-120474800D01*
X74645139Y-120474800D01*
X74922560Y-120359888D01*
X75134888Y-120147560D01*
X75249800Y-119870139D01*
X75249800Y-119569861D01*
X75134888Y-119292440D01*
X74922560Y-119080112D01*
X74645139Y-118965200D01*
X74344861Y-118965200D01*
X74067440Y-119080112D01*
X73855112Y-119292440D01*
X73740200Y-119569861D01*
X69213800Y-119569861D01*
X69213800Y-118243062D01*
X91135200Y-118243062D01*
X91135200Y-118616938D01*
X91278276Y-118962354D01*
X91542646Y-119226724D01*
X91888062Y-119369800D01*
X92261938Y-119369800D01*
X92607354Y-119226724D01*
X92654778Y-119179300D01*
X125242492Y-119179300D01*
X125543062Y-119303800D01*
X125916938Y-119303800D01*
X126262354Y-119160724D01*
X126526724Y-118896354D01*
X126669800Y-118550938D01*
X126669800Y-118177062D01*
X126526724Y-117831646D01*
X126262354Y-117567276D01*
X125916938Y-117424200D01*
X125543062Y-117424200D01*
X125197646Y-117567276D01*
X125084222Y-117680700D01*
X92654778Y-117680700D01*
X92607354Y-117633276D01*
X92261938Y-117490200D01*
X91888062Y-117490200D01*
X91542646Y-117633276D01*
X91278276Y-117897646D01*
X91135200Y-118243062D01*
X69213800Y-118243062D01*
X69213800Y-110938062D01*
X101930200Y-110938062D01*
X101930200Y-111311938D01*
X102073276Y-111657354D01*
X102337646Y-111921724D01*
X102683062Y-112064800D01*
X103056938Y-112064800D01*
X103157492Y-112023149D01*
X104439602Y-113305260D01*
X104463690Y-113341310D01*
X104499740Y-113365398D01*
X104499741Y-113365399D01*
X104606520Y-113436746D01*
X104732474Y-113461800D01*
X104732478Y-113461800D01*
X104775000Y-113470258D01*
X104817522Y-113461800D01*
X128091143Y-113461800D01*
X130769229Y-116139887D01*
X130769229Y-117840000D01*
X130792885Y-117958927D01*
X130860252Y-118059748D01*
X130961073Y-118127115D01*
X131080000Y-118150771D01*
X133080000Y-118150771D01*
X133198927Y-118127115D01*
X133292815Y-118064380D01*
X138671146Y-118064380D01*
X138766411Y-118356726D01*
X139416379Y-118590887D01*
X140106482Y-118558492D01*
X140593589Y-118356726D01*
X140688854Y-118064380D01*
X139680000Y-117055526D01*
X138671146Y-118064380D01*
X133292815Y-118064380D01*
X133299748Y-118059748D01*
X133367115Y-117958927D01*
X133390771Y-117840000D01*
X133390771Y-116576379D01*
X137929113Y-116576379D01*
X137961508Y-117266482D01*
X138163274Y-117753589D01*
X138455620Y-117848854D01*
X139464474Y-116840000D01*
X139895526Y-116840000D01*
X140904380Y-117848854D01*
X141196726Y-117753589D01*
X141430887Y-117103621D01*
X141398492Y-116413518D01*
X141196726Y-115926411D01*
X140904380Y-115831146D01*
X139895526Y-116840000D01*
X139464474Y-116840000D01*
X138455620Y-115831146D01*
X138163274Y-115926411D01*
X137929113Y-116576379D01*
X133390771Y-116576379D01*
X133390771Y-115840000D01*
X133367115Y-115721073D01*
X133299748Y-115620252D01*
X133292816Y-115615620D01*
X138671146Y-115615620D01*
X139680000Y-116624474D01*
X140688854Y-115615620D01*
X140593589Y-115323274D01*
X139943621Y-115089113D01*
X139253518Y-115121508D01*
X138766411Y-115323274D01*
X138671146Y-115615620D01*
X133292816Y-115615620D01*
X133198927Y-115552885D01*
X133080000Y-115529229D01*
X131379887Y-115529229D01*
X128605400Y-112754743D01*
X128581310Y-112718690D01*
X128438480Y-112623254D01*
X128312526Y-112598200D01*
X128312522Y-112598200D01*
X128270000Y-112589742D01*
X128227478Y-112598200D01*
X104953858Y-112598200D01*
X103768149Y-111412492D01*
X103809800Y-111311938D01*
X103809800Y-110938062D01*
X103666724Y-110592646D01*
X103402354Y-110328276D01*
X103056938Y-110185200D01*
X102683062Y-110185200D01*
X102337646Y-110328276D01*
X102073276Y-110592646D01*
X101930200Y-110938062D01*
X69213800Y-110938062D01*
X69213800Y-102759575D01*
X70219020Y-102759575D01*
X70387760Y-103166981D01*
X70799888Y-103628925D01*
X71357423Y-103897991D01*
X71602600Y-103757125D01*
X71602600Y-102514400D01*
X71907400Y-102514400D01*
X71907400Y-103757125D01*
X72152577Y-103897991D01*
X72710112Y-103628925D01*
X73122240Y-103166981D01*
X73290980Y-102759575D01*
X73149145Y-102514400D01*
X71907400Y-102514400D01*
X71602600Y-102514400D01*
X70360855Y-102514400D01*
X70219020Y-102759575D01*
X69213800Y-102759575D01*
X69213800Y-101964425D01*
X70219020Y-101964425D01*
X70360855Y-102209600D01*
X71602600Y-102209600D01*
X71602600Y-102189600D01*
X71907400Y-102189600D01*
X71907400Y-102209600D01*
X73149145Y-102209600D01*
X73290980Y-101964425D01*
X73122240Y-101557019D01*
X72710112Y-101095075D01*
X72256162Y-100875999D01*
X72587564Y-100654564D01*
X72643199Y-100571300D01*
X77566031Y-100571300D01*
X76992350Y-101144981D01*
X76929786Y-101186785D01*
X76887983Y-101249348D01*
X76764176Y-101434638D01*
X76706021Y-101727000D01*
X76720701Y-101800800D01*
X76720700Y-104701204D01*
X76706021Y-104775000D01*
X76720700Y-104848796D01*
X76764175Y-105067361D01*
X76929785Y-105315215D01*
X76992352Y-105357021D01*
X78435200Y-106799870D01*
X78435200Y-106866938D01*
X78578276Y-107212354D01*
X78842646Y-107476724D01*
X79188062Y-107619800D01*
X79561938Y-107619800D01*
X79907354Y-107476724D01*
X79954778Y-107429300D01*
X115259631Y-107429300D01*
X115900200Y-108069870D01*
X115900200Y-108136938D01*
X116043276Y-108482354D01*
X116307646Y-108746724D01*
X116653062Y-108889800D01*
X117026938Y-108889800D01*
X117372354Y-108746724D01*
X117636724Y-108482354D01*
X117779800Y-108136938D01*
X117779800Y-107763062D01*
X117636724Y-107417646D01*
X117372354Y-107153276D01*
X117026938Y-107010200D01*
X116959870Y-107010200D01*
X116152021Y-106202352D01*
X116110215Y-106139785D01*
X115862362Y-105974175D01*
X115643797Y-105930700D01*
X115643796Y-105930700D01*
X115570000Y-105916021D01*
X115496204Y-105930700D01*
X79954778Y-105930700D01*
X79907354Y-105883276D01*
X79561938Y-105740200D01*
X79494870Y-105740200D01*
X78219300Y-104464631D01*
X78219300Y-103404091D01*
X78419888Y-103628925D01*
X78977423Y-103897991D01*
X79222600Y-103757125D01*
X79222600Y-102514400D01*
X79527400Y-102514400D01*
X79527400Y-103757125D01*
X79772577Y-103897991D01*
X79921621Y-103826062D01*
X124790200Y-103826062D01*
X124790200Y-104199938D01*
X124933276Y-104545354D01*
X125197646Y-104809724D01*
X125543062Y-104952800D01*
X125916938Y-104952800D01*
X126262354Y-104809724D01*
X126526724Y-104545354D01*
X126568375Y-104444800D01*
X132164478Y-104444800D01*
X132207000Y-104453258D01*
X132249522Y-104444800D01*
X132249526Y-104444800D01*
X132375480Y-104419746D01*
X132518310Y-104324310D01*
X132542399Y-104288258D01*
X133062508Y-103768149D01*
X133163062Y-103809800D01*
X133536938Y-103809800D01*
X133882354Y-103666724D01*
X134146724Y-103402354D01*
X134289800Y-103056938D01*
X134289800Y-102683062D01*
X134146724Y-102337646D01*
X133882354Y-102073276D01*
X133536938Y-101930200D01*
X133163062Y-101930200D01*
X132817646Y-102073276D01*
X132553276Y-102337646D01*
X132410200Y-102683062D01*
X132410200Y-103056938D01*
X132451851Y-103157492D01*
X132028143Y-103581200D01*
X126568375Y-103581200D01*
X126526724Y-103480646D01*
X126262354Y-103216276D01*
X125916938Y-103073200D01*
X125543062Y-103073200D01*
X125197646Y-103216276D01*
X124933276Y-103480646D01*
X124790200Y-103826062D01*
X79921621Y-103826062D01*
X80330112Y-103628925D01*
X80742240Y-103166981D01*
X80910980Y-102759575D01*
X80769145Y-102514400D01*
X79527400Y-102514400D01*
X79222600Y-102514400D01*
X79202600Y-102514400D01*
X79202600Y-102209600D01*
X79222600Y-102209600D01*
X79222600Y-102189600D01*
X79527400Y-102189600D01*
X79527400Y-102209600D01*
X80769145Y-102209600D01*
X80910980Y-101964425D01*
X80742240Y-101557019D01*
X80330112Y-101095075D01*
X79876162Y-100875999D01*
X80207564Y-100654564D01*
X80462797Y-100272580D01*
X80552423Y-99822000D01*
X80462797Y-99371420D01*
X80207564Y-98989436D01*
X79825580Y-98734203D01*
X79488733Y-98667200D01*
X79261267Y-98667200D01*
X78924420Y-98734203D01*
X78542436Y-98989436D01*
X78486801Y-99072700D01*
X72643199Y-99072700D01*
X72587564Y-98989436D01*
X72205580Y-98734203D01*
X71868733Y-98667200D01*
X71641267Y-98667200D01*
X71304420Y-98734203D01*
X70922436Y-98989436D01*
X70667203Y-99371420D01*
X70577577Y-99822000D01*
X70667203Y-100272580D01*
X70922436Y-100654564D01*
X71253838Y-100875999D01*
X70799888Y-101095075D01*
X70387760Y-101557019D01*
X70219020Y-101964425D01*
X69213800Y-101964425D01*
X69213800Y-97282000D01*
X70577577Y-97282000D01*
X70667203Y-97732580D01*
X70922436Y-98114564D01*
X71304420Y-98369797D01*
X71641267Y-98436800D01*
X71868733Y-98436800D01*
X72205580Y-98369797D01*
X72587564Y-98114564D01*
X72842797Y-97732580D01*
X72846533Y-97713800D01*
X78283467Y-97713800D01*
X78287203Y-97732580D01*
X78542436Y-98114564D01*
X78924420Y-98369797D01*
X79261267Y-98436800D01*
X79488733Y-98436800D01*
X79825580Y-98369797D01*
X80207564Y-98114564D01*
X80462797Y-97732580D01*
X80466533Y-97713800D01*
X109651625Y-97713800D01*
X109693276Y-97814354D01*
X109957646Y-98078724D01*
X110303062Y-98221800D01*
X110676938Y-98221800D01*
X111022354Y-98078724D01*
X111286724Y-97814354D01*
X111328375Y-97713800D01*
X119972478Y-97713800D01*
X120015000Y-97722258D01*
X120057522Y-97713800D01*
X120057526Y-97713800D01*
X120183480Y-97688746D01*
X120326310Y-97593310D01*
X120350400Y-97557257D01*
X120574857Y-97332800D01*
X138861625Y-97332800D01*
X138903276Y-97433354D01*
X139167646Y-97697724D01*
X139513062Y-97840800D01*
X139886938Y-97840800D01*
X140232354Y-97697724D01*
X140496724Y-97433354D01*
X140639800Y-97087938D01*
X140639800Y-96714062D01*
X140601998Y-96622801D01*
X140783062Y-96697800D01*
X141156938Y-96697800D01*
X141502354Y-96554724D01*
X141766724Y-96290354D01*
X141909800Y-95944938D01*
X141909800Y-95571062D01*
X141766724Y-95225646D01*
X141502354Y-94961276D01*
X141156938Y-94818200D01*
X140783062Y-94818200D01*
X140437646Y-94961276D01*
X140173276Y-95225646D01*
X140131625Y-95326200D01*
X136507878Y-95326200D01*
X136686724Y-95147354D01*
X136829800Y-94801938D01*
X136829800Y-94428062D01*
X136686724Y-94082646D01*
X136422354Y-93818276D01*
X136322222Y-93776800D01*
X137591625Y-93776800D01*
X137633276Y-93877354D01*
X137897646Y-94141724D01*
X138243062Y-94284800D01*
X138616938Y-94284800D01*
X138962354Y-94141724D01*
X139226724Y-93877354D01*
X139369800Y-93531938D01*
X139369800Y-93158062D01*
X139226724Y-92812646D01*
X138962354Y-92548276D01*
X138616938Y-92405200D01*
X138243062Y-92405200D01*
X137897646Y-92548276D01*
X137633276Y-92812646D01*
X137591625Y-92913200D01*
X122098857Y-92913200D01*
X117683400Y-88497743D01*
X117659310Y-88461690D01*
X117516480Y-88366254D01*
X117390526Y-88341200D01*
X117390522Y-88341200D01*
X117348000Y-88332742D01*
X117305478Y-88341200D01*
X114478857Y-88341200D01*
X110932159Y-84794502D01*
X110942797Y-84778580D01*
X110965478Y-84664550D01*
X115253400Y-84664550D01*
X115253400Y-85324519D01*
X115365541Y-85595251D01*
X115572750Y-85802459D01*
X115843481Y-85914600D01*
X116503450Y-85914600D01*
X116687600Y-85730450D01*
X116687600Y-84480400D01*
X115437550Y-84480400D01*
X115253400Y-84664550D01*
X110965478Y-84664550D01*
X111032423Y-84328000D01*
X110942797Y-83877420D01*
X110687564Y-83495436D01*
X110442188Y-83331481D01*
X115253400Y-83331481D01*
X115253400Y-83991450D01*
X115437550Y-84175600D01*
X116687600Y-84175600D01*
X116687600Y-82925550D01*
X116992400Y-82925550D01*
X116992400Y-84175600D01*
X117012400Y-84175600D01*
X117012400Y-84480400D01*
X116992400Y-84480400D01*
X116992400Y-85730450D01*
X117176550Y-85914600D01*
X117836519Y-85914600D01*
X118107250Y-85802459D01*
X118314459Y-85595251D01*
X118426600Y-85324519D01*
X118426600Y-84979720D01*
X118547436Y-85160564D01*
X118929420Y-85415797D01*
X118948201Y-85419533D01*
X118948200Y-88730478D01*
X118939742Y-88773000D01*
X118948200Y-88815522D01*
X118948200Y-88815525D01*
X118973254Y-88941479D01*
X119068690Y-89084310D01*
X119104742Y-89108399D01*
X122092602Y-92096260D01*
X122116690Y-92132310D01*
X122152740Y-92156398D01*
X122152741Y-92156399D01*
X122259520Y-92227746D01*
X122385474Y-92252800D01*
X122385478Y-92252800D01*
X122428000Y-92261258D01*
X122470522Y-92252800D01*
X140131625Y-92252800D01*
X140173276Y-92353354D01*
X140437646Y-92617724D01*
X140783062Y-92760800D01*
X141156938Y-92760800D01*
X141502354Y-92617724D01*
X141766724Y-92353354D01*
X141909800Y-92007938D01*
X141909800Y-91634062D01*
X141766724Y-91288646D01*
X141502354Y-91024276D01*
X141279580Y-90932000D01*
X141502354Y-90839724D01*
X141766724Y-90575354D01*
X141909800Y-90229938D01*
X141909800Y-89856062D01*
X141766724Y-89510646D01*
X141502354Y-89246276D01*
X141156938Y-89103200D01*
X140783062Y-89103200D01*
X140437646Y-89246276D01*
X140173276Y-89510646D01*
X140131625Y-89611200D01*
X123368857Y-89611200D01*
X122351800Y-88594143D01*
X122351800Y-85419533D01*
X122370580Y-85415797D01*
X122752564Y-85160564D01*
X123007797Y-84778580D01*
X123097423Y-84328000D01*
X123282577Y-84328000D01*
X123372203Y-84778580D01*
X123627436Y-85160564D01*
X124009420Y-85415797D01*
X124346267Y-85482800D01*
X124573733Y-85482800D01*
X124910580Y-85415797D01*
X125292564Y-85160564D01*
X125547797Y-84778580D01*
X125637423Y-84328000D01*
X125547797Y-83877420D01*
X125292564Y-83495436D01*
X124910580Y-83240203D01*
X124573733Y-83173200D01*
X124346267Y-83173200D01*
X124009420Y-83240203D01*
X123627436Y-83495436D01*
X123372203Y-83877420D01*
X123282577Y-84328000D01*
X123097423Y-84328000D01*
X123007797Y-83877420D01*
X122752564Y-83495436D01*
X122370580Y-83240203D01*
X122033733Y-83173200D01*
X121806267Y-83173200D01*
X121469420Y-83240203D01*
X121087436Y-83495436D01*
X120832203Y-83877420D01*
X120742577Y-84328000D01*
X120832203Y-84778580D01*
X121087436Y-85160564D01*
X121469420Y-85415797D01*
X121488200Y-85419533D01*
X121488201Y-88730473D01*
X121479742Y-88773000D01*
X121513254Y-88941479D01*
X121584601Y-89048258D01*
X121584603Y-89048260D01*
X121608691Y-89084310D01*
X121644741Y-89108398D01*
X122854600Y-90318257D01*
X122878690Y-90354310D01*
X123021520Y-90449746D01*
X123147474Y-90474800D01*
X123147477Y-90474800D01*
X123189999Y-90483258D01*
X123232521Y-90474800D01*
X140131625Y-90474800D01*
X140173276Y-90575354D01*
X140437646Y-90839724D01*
X140660420Y-90932000D01*
X140437646Y-91024276D01*
X140173276Y-91288646D01*
X140131625Y-91389200D01*
X122606858Y-91389200D01*
X119811800Y-88594143D01*
X119811800Y-85419533D01*
X119830580Y-85415797D01*
X120212564Y-85160564D01*
X120467797Y-84778580D01*
X120557423Y-84328000D01*
X120467797Y-83877420D01*
X120212564Y-83495436D01*
X119830580Y-83240203D01*
X119493733Y-83173200D01*
X119266267Y-83173200D01*
X118929420Y-83240203D01*
X118547436Y-83495436D01*
X118426600Y-83676280D01*
X118426600Y-83331481D01*
X118314459Y-83060749D01*
X118107250Y-82853541D01*
X117836519Y-82741400D01*
X117176550Y-82741400D01*
X116992400Y-82925550D01*
X116687600Y-82925550D01*
X116503450Y-82741400D01*
X115843481Y-82741400D01*
X115572750Y-82853541D01*
X115365541Y-83060749D01*
X115253400Y-83331481D01*
X110442188Y-83331481D01*
X110305580Y-83240203D01*
X109968733Y-83173200D01*
X109741267Y-83173200D01*
X109404420Y-83240203D01*
X109022436Y-83495436D01*
X108901600Y-83676280D01*
X108901600Y-83331481D01*
X108789459Y-83060749D01*
X108582250Y-82853541D01*
X108311519Y-82741400D01*
X107651550Y-82741400D01*
X107467400Y-82925550D01*
X107467400Y-84175600D01*
X107487400Y-84175600D01*
X107487400Y-84480400D01*
X107467400Y-84480400D01*
X107467400Y-85730450D01*
X107651550Y-85914600D01*
X108311519Y-85914600D01*
X108582250Y-85802459D01*
X108789459Y-85595251D01*
X108901600Y-85324519D01*
X108901600Y-84979720D01*
X109022436Y-85160564D01*
X109404420Y-85415797D01*
X109741267Y-85482800D01*
X109968733Y-85482800D01*
X110305580Y-85415797D01*
X110321502Y-85405159D01*
X113964600Y-89048257D01*
X113988690Y-89084310D01*
X114131520Y-89179746D01*
X114257474Y-89204800D01*
X114257477Y-89204800D01*
X114299999Y-89213258D01*
X114342521Y-89204800D01*
X117169143Y-89204800D01*
X121584600Y-93620257D01*
X121608690Y-93656310D01*
X121751520Y-93751746D01*
X121877474Y-93776800D01*
X121877478Y-93776800D01*
X121919999Y-93785258D01*
X121962520Y-93776800D01*
X135457778Y-93776800D01*
X135357646Y-93818276D01*
X135093276Y-94082646D01*
X135051625Y-94183200D01*
X121463857Y-94183200D01*
X117175400Y-89894743D01*
X117151310Y-89858690D01*
X117008480Y-89763254D01*
X116882526Y-89738200D01*
X116882522Y-89738200D01*
X116840000Y-89729742D01*
X116797478Y-89738200D01*
X113716857Y-89738200D01*
X112476400Y-88497743D01*
X112452310Y-88461690D01*
X112309480Y-88366254D01*
X112183526Y-88341200D01*
X112183522Y-88341200D01*
X112141000Y-88332742D01*
X112098478Y-88341200D01*
X91745858Y-88341200D01*
X90501800Y-87097143D01*
X90501800Y-86420290D01*
X90453074Y-86175327D01*
X90267462Y-85897538D01*
X89989672Y-85711926D01*
X89662000Y-85646748D01*
X89334327Y-85711926D01*
X89056538Y-85897538D01*
X88870926Y-86175328D01*
X88822200Y-86420291D01*
X88822200Y-87315710D01*
X88870927Y-87560673D01*
X89056539Y-87838462D01*
X89334328Y-88024074D01*
X89662000Y-88089252D01*
X89989673Y-88024074D01*
X90120201Y-87936858D01*
X91231602Y-89048260D01*
X91255690Y-89084310D01*
X91291740Y-89108398D01*
X91291741Y-89108399D01*
X91398520Y-89179746D01*
X91524474Y-89204800D01*
X91524478Y-89204800D01*
X91567000Y-89213258D01*
X91609522Y-89204800D01*
X111962143Y-89204800D01*
X113202600Y-90445257D01*
X113226690Y-90481310D01*
X113369520Y-90576746D01*
X113495474Y-90601800D01*
X113495478Y-90601800D01*
X113537999Y-90610258D01*
X113580520Y-90601800D01*
X116661143Y-90601800D01*
X120949600Y-94890257D01*
X120973690Y-94926310D01*
X121116520Y-95021746D01*
X121242474Y-95046800D01*
X121242477Y-95046800D01*
X121284999Y-95055258D01*
X121327521Y-95046800D01*
X135051625Y-95046800D01*
X135093276Y-95147354D01*
X135272122Y-95326200D01*
X120574858Y-95326200D01*
X119715399Y-94466742D01*
X119691310Y-94430690D01*
X119548480Y-94335254D01*
X119422526Y-94310200D01*
X119422522Y-94310200D01*
X119380000Y-94301742D01*
X119337478Y-94310200D01*
X110693375Y-94310200D01*
X110651724Y-94209646D01*
X110387354Y-93945276D01*
X110041938Y-93802200D01*
X109668062Y-93802200D01*
X109322646Y-93945276D01*
X109058276Y-94209646D01*
X109016625Y-94310200D01*
X80535771Y-94310200D01*
X80535771Y-93892000D01*
X80512115Y-93773073D01*
X80444748Y-93672252D01*
X80343927Y-93604885D01*
X80225000Y-93581229D01*
X78525000Y-93581229D01*
X78406073Y-93604885D01*
X78305252Y-93672252D01*
X78237885Y-93773073D01*
X78214229Y-93892000D01*
X78214229Y-94310200D01*
X72915771Y-94310200D01*
X72915771Y-93892000D01*
X72892115Y-93773073D01*
X72824748Y-93672252D01*
X72723927Y-93604885D01*
X72605000Y-93581229D01*
X70905000Y-93581229D01*
X70786073Y-93604885D01*
X70685252Y-93672252D01*
X70617885Y-93773073D01*
X70594229Y-93892000D01*
X70594229Y-95592000D01*
X70617885Y-95710927D01*
X70685252Y-95811748D01*
X70786073Y-95879115D01*
X70905000Y-95902771D01*
X72605000Y-95902771D01*
X72723927Y-95879115D01*
X72824748Y-95811748D01*
X72892115Y-95710927D01*
X72915771Y-95592000D01*
X72915771Y-95173800D01*
X78214229Y-95173800D01*
X78214229Y-95592000D01*
X78237885Y-95710927D01*
X78305252Y-95811748D01*
X78406073Y-95879115D01*
X78525000Y-95902771D01*
X80225000Y-95902771D01*
X80343927Y-95879115D01*
X80444748Y-95811748D01*
X80512115Y-95710927D01*
X80535771Y-95592000D01*
X80535771Y-95173800D01*
X109016625Y-95173800D01*
X109058276Y-95274354D01*
X109322646Y-95538724D01*
X109668062Y-95681800D01*
X110041938Y-95681800D01*
X110387354Y-95538724D01*
X110651724Y-95274354D01*
X110693375Y-95173800D01*
X119201143Y-95173800D01*
X120060602Y-96033260D01*
X120084690Y-96069310D01*
X120120740Y-96093398D01*
X120120741Y-96093399D01*
X120137020Y-96104276D01*
X120227520Y-96164746D01*
X120353474Y-96189800D01*
X120353478Y-96189800D01*
X120396000Y-96198258D01*
X120438522Y-96189800D01*
X139082122Y-96189800D01*
X138903276Y-96368646D01*
X138861625Y-96469200D01*
X120438520Y-96469200D01*
X120395999Y-96460742D01*
X120353478Y-96469200D01*
X120353474Y-96469200D01*
X120227520Y-96494254D01*
X120084690Y-96589690D01*
X120060600Y-96625743D01*
X119836143Y-96850200D01*
X111328375Y-96850200D01*
X111286724Y-96749646D01*
X111022354Y-96485276D01*
X110676938Y-96342200D01*
X110303062Y-96342200D01*
X109957646Y-96485276D01*
X109693276Y-96749646D01*
X109651625Y-96850200D01*
X80466533Y-96850200D01*
X80462797Y-96831420D01*
X80207564Y-96449436D01*
X79825580Y-96194203D01*
X79488733Y-96127200D01*
X79261267Y-96127200D01*
X78924420Y-96194203D01*
X78542436Y-96449436D01*
X78287203Y-96831420D01*
X78283467Y-96850200D01*
X72846533Y-96850200D01*
X72842797Y-96831420D01*
X72587564Y-96449436D01*
X72205580Y-96194203D01*
X71868733Y-96127200D01*
X71641267Y-96127200D01*
X71304420Y-96194203D01*
X70922436Y-96449436D01*
X70667203Y-96831420D01*
X70577577Y-97282000D01*
X69213800Y-97282000D01*
X69213800Y-85968000D01*
X85006229Y-85968000D01*
X85006229Y-87768000D01*
X85029885Y-87886927D01*
X85097252Y-87987748D01*
X85198073Y-88055115D01*
X85317000Y-88078771D01*
X86387000Y-88078771D01*
X86505927Y-88055115D01*
X86606748Y-87987748D01*
X86674115Y-87886927D01*
X86697771Y-87768000D01*
X86697771Y-85968000D01*
X86674115Y-85849073D01*
X86652588Y-85816856D01*
X86715600Y-85769718D01*
X86715600Y-84480400D01*
X85596400Y-84480400D01*
X85596400Y-84845400D01*
X85751516Y-85320419D01*
X86040036Y-85657229D01*
X85317000Y-85657229D01*
X85198073Y-85680885D01*
X85097252Y-85748252D01*
X85029885Y-85849073D01*
X85006229Y-85968000D01*
X69213800Y-85968000D01*
X69213800Y-85371141D01*
X70927385Y-85371141D01*
X70991889Y-85637611D01*
X71551144Y-85829953D01*
X72141434Y-85793636D01*
X72518111Y-85637611D01*
X72582615Y-85371141D01*
X71755000Y-84543526D01*
X70927385Y-85371141D01*
X69213800Y-85371141D01*
X69213800Y-84124144D01*
X70253047Y-84124144D01*
X70289364Y-84714434D01*
X70445389Y-85091111D01*
X70711859Y-85155615D01*
X71539474Y-84328000D01*
X71970526Y-84328000D01*
X72798141Y-85155615D01*
X73064611Y-85091111D01*
X73248234Y-84557208D01*
X73400784Y-84925496D01*
X73697504Y-85222216D01*
X74085187Y-85382800D01*
X74504813Y-85382800D01*
X74892496Y-85222216D01*
X75189216Y-84925496D01*
X75349800Y-84537813D01*
X75349800Y-84118187D01*
X75780200Y-84118187D01*
X75780200Y-84537813D01*
X75940784Y-84925496D01*
X76237504Y-85222216D01*
X76625187Y-85382800D01*
X77044813Y-85382800D01*
X77432496Y-85222216D01*
X77729216Y-84925496D01*
X77889800Y-84537813D01*
X77889800Y-84118187D01*
X77729216Y-83730504D01*
X77576712Y-83578000D01*
X78314229Y-83578000D01*
X78314229Y-85078000D01*
X78337885Y-85196927D01*
X78405252Y-85297748D01*
X78506073Y-85365115D01*
X78625000Y-85388771D01*
X80125000Y-85388771D01*
X80243927Y-85365115D01*
X80344748Y-85297748D01*
X80412115Y-85196927D01*
X80435771Y-85078000D01*
X80435771Y-84057491D01*
X81384463Y-83108800D01*
X85945782Y-83108800D01*
X85751516Y-83335581D01*
X85596400Y-83810600D01*
X85596400Y-84175600D01*
X86715600Y-84175600D01*
X86715600Y-84155600D01*
X87020400Y-84155600D01*
X87020400Y-84175600D01*
X87040400Y-84175600D01*
X87040400Y-84480400D01*
X87020400Y-84480400D01*
X87020400Y-85769718D01*
X87216012Y-85916051D01*
X87659394Y-85699920D01*
X87984484Y-85320419D01*
X88007702Y-85249318D01*
X88040539Y-85298462D01*
X88318328Y-85484074D01*
X88646000Y-85549252D01*
X88973673Y-85484074D01*
X89251462Y-85298462D01*
X89437074Y-85020673D01*
X89485800Y-84775710D01*
X89485800Y-83880290D01*
X89437074Y-83635327D01*
X89251462Y-83357538D01*
X89204800Y-83326360D01*
X89204800Y-83108800D01*
X93240539Y-83108800D01*
X94089229Y-83957491D01*
X94089229Y-85178000D01*
X94112885Y-85296927D01*
X94180252Y-85397748D01*
X94281073Y-85465115D01*
X94400000Y-85488771D01*
X96100000Y-85488771D01*
X96218927Y-85465115D01*
X96319748Y-85397748D01*
X96387115Y-85296927D01*
X96410771Y-85178000D01*
X96410771Y-84328000D01*
X96612577Y-84328000D01*
X96702203Y-84778580D01*
X96957436Y-85160564D01*
X97339420Y-85415797D01*
X97676267Y-85482800D01*
X97903733Y-85482800D01*
X98240580Y-85415797D01*
X98622564Y-85160564D01*
X98843999Y-84829162D01*
X99063075Y-85283112D01*
X99525019Y-85695240D01*
X99932425Y-85863980D01*
X100177600Y-85722145D01*
X100177600Y-84480400D01*
X100482400Y-84480400D01*
X100482400Y-85722145D01*
X100727575Y-85863980D01*
X101134981Y-85695240D01*
X101596925Y-85283112D01*
X101865991Y-84725577D01*
X101830929Y-84664550D01*
X105728400Y-84664550D01*
X105728400Y-85324519D01*
X105840541Y-85595251D01*
X106047750Y-85802459D01*
X106318481Y-85914600D01*
X106978450Y-85914600D01*
X107162600Y-85730450D01*
X107162600Y-84480400D01*
X105912550Y-84480400D01*
X105728400Y-84664550D01*
X101830929Y-84664550D01*
X101725125Y-84480400D01*
X100482400Y-84480400D01*
X100177600Y-84480400D01*
X100157600Y-84480400D01*
X100157600Y-84175600D01*
X100177600Y-84175600D01*
X100177600Y-82933855D01*
X100482400Y-82933855D01*
X100482400Y-84175600D01*
X101725125Y-84175600D01*
X101865991Y-83930423D01*
X101596925Y-83372888D01*
X101550513Y-83331481D01*
X105728400Y-83331481D01*
X105728400Y-83991450D01*
X105912550Y-84175600D01*
X107162600Y-84175600D01*
X107162600Y-82925550D01*
X106978450Y-82741400D01*
X106318481Y-82741400D01*
X106047750Y-82853541D01*
X105840541Y-83060749D01*
X105728400Y-83331481D01*
X101550513Y-83331481D01*
X101134981Y-82960760D01*
X100727575Y-82792020D01*
X100482400Y-82933855D01*
X100177600Y-82933855D01*
X99932425Y-82792020D01*
X99525019Y-82960760D01*
X99063075Y-83372888D01*
X98843999Y-83826838D01*
X98622564Y-83495436D01*
X98240580Y-83240203D01*
X97903733Y-83173200D01*
X97676267Y-83173200D01*
X97339420Y-83240203D01*
X96957436Y-83495436D01*
X96702203Y-83877420D01*
X96612577Y-84328000D01*
X96410771Y-84328000D01*
X96410771Y-83478000D01*
X96387115Y-83359073D01*
X96319748Y-83258252D01*
X96218927Y-83190885D01*
X96100000Y-83167229D01*
X94879491Y-83167229D01*
X93906050Y-82193789D01*
X93874872Y-82147128D01*
X93690033Y-82023622D01*
X93527035Y-81991200D01*
X93472000Y-81980253D01*
X93416965Y-81991200D01*
X88701035Y-81991200D01*
X88646000Y-81980253D01*
X88590965Y-81991200D01*
X81208035Y-81991200D01*
X81153000Y-81980253D01*
X81097965Y-81991200D01*
X80934967Y-82023622D01*
X80750128Y-82147128D01*
X80718954Y-82193783D01*
X79645509Y-83267229D01*
X78625000Y-83267229D01*
X78506073Y-83290885D01*
X78405252Y-83358252D01*
X78337885Y-83459073D01*
X78314229Y-83578000D01*
X77576712Y-83578000D01*
X77432496Y-83433784D01*
X77044813Y-83273200D01*
X76625187Y-83273200D01*
X76237504Y-83433784D01*
X75940784Y-83730504D01*
X75780200Y-84118187D01*
X75349800Y-84118187D01*
X75189216Y-83730504D01*
X74892496Y-83433784D01*
X74504813Y-83273200D01*
X74085187Y-83273200D01*
X73697504Y-83433784D01*
X73400784Y-83730504D01*
X73240200Y-84118187D01*
X73240200Y-84259556D01*
X73220636Y-83941566D01*
X73064611Y-83564889D01*
X72798141Y-83500385D01*
X71970526Y-84328000D01*
X71539474Y-84328000D01*
X70711859Y-83500385D01*
X70445389Y-83564889D01*
X70253047Y-84124144D01*
X69213800Y-84124144D01*
X69213800Y-83284859D01*
X70927385Y-83284859D01*
X71755000Y-84112474D01*
X72582615Y-83284859D01*
X72518111Y-83018389D01*
X71958856Y-82826047D01*
X71368566Y-82862364D01*
X70991889Y-83018389D01*
X70927385Y-83284859D01*
X69213800Y-83284859D01*
X69213800Y-81405800D01*
X127660400Y-81405800D01*
X127660400Y-88519000D01*
G04 #@! TD*
M02*
