M48
;DRILL file {KiCad (5.0.1)-rc2} date 05/01/2020 22:16:08
;FORMAT={-:-/ absolute / inch / decimal}
FMAT,2
INCH,TZ
T1C0.0160
T2C0.0295
T3C0.0315
T4C0.0354
T5C0.0394
%
G90
G05
M72
T1
X2.825Y-3.6
X2.85Y-4.8
X2.9Y-3.4
X2.9Y-4.5
X3.05Y-3.4
X3.12Y-4.86
X3.125Y-4.2
X3.2Y-4.5
X3.3Y-3.32
X3.3Y-3.6
X3.3Y-4.
X3.45Y-4.375
X3.45Y-4.55
X3.525Y-3.6
X3.525Y-4.
X3.55Y-4.95
X3.6Y-4.85
X3.61Y-3.32
X3.625Y-4.6626
X3.75Y-3.6
X3.75Y-4.
X3.825Y-4.275
X3.825Y-4.5
X4.05Y-4.375
X4.09Y-3.32
X4.1Y-3.6
X4.1Y-4.55
X4.15Y-4.95
X4.2Y-4.375
X4.2Y-4.55
X4.25Y-3.9
X4.3Y-4.375
X4.3Y-4.55
X4.325Y-3.73
X4.35Y-3.65
X4.35Y-3.83
X4.465Y-3.32
X4.5Y-3.65
X4.6Y-3.65
X4.6Y-4.25
X4.65Y-4.55
X4.875Y-4.3
X4.875Y-4.55
X4.875Y-4.92
X4.95Y-4.095
X4.95Y-4.66
X5.15Y-4.92
X5.25Y-4.05
X5.35Y-3.725
X5.35Y-4.55
X5.405Y-4.25
X5.45Y-3.675
X5.5Y-3.815
X5.55Y-3.545
X5.55Y-3.615
X5.55Y-3.77
X5.55Y-4.05
X5.65Y-4.15
X5.65Y-4.25
X5.65Y-4.35
X5.65Y-4.45
T2
X5.6Y-4.8213
X5.6Y-4.9
T3
X2.825Y-3.32
X2.925Y-3.32
X3.025Y-3.32
X3.125Y-3.32
T4
X3.38Y-3.42
X3.42Y-3.32
X3.49Y-3.32
X3.53Y-3.42
T5
X4.225Y-3.32
X4.325Y-3.32
X5.2Y-4.6
X5.4992Y-4.6
X2.825Y-3.73
X2.825Y-3.83
X2.825Y-3.93
X2.825Y-4.03
X3.75Y-3.32
X3.85Y-3.32
X3.95Y-3.32
X3.125Y-3.73
X3.125Y-3.83
X3.125Y-3.93
X3.125Y-4.03
X4.6Y-3.32
X4.7Y-3.32
X4.8Y-3.32
X4.9Y-3.32
T0
M30
