G04 #@! TF.GenerationSoftware,KiCad,Pcbnew,(5.0.1)-rc2*
G04 #@! TF.CreationDate,2020-01-05T22:16:04+01:00*
G04 #@! TF.ProjectId,IoT_Messenger,496F545F4D657373656E6765722E6B69,rev?*
G04 #@! TF.SameCoordinates,Original*
G04 #@! TF.FileFunction,Legend,Bot*
G04 #@! TF.FilePolarity,Positive*
%FSLAX46Y46*%
G04 Gerber Fmt 4.6, Leading zero omitted, Abs format (unit mm)*
G04 Created by KiCad (PCBNEW (5.0.1)-rc2) date 05/01/2020 22:16:04*
%MOMM*%
%LPD*%
G01*
G04 APERTURE LIST*
%ADD10C,0.200000*%
%ADD11C,0.300000*%
%ADD12C,0.120000*%
%ADD13C,0.150000*%
G04 APERTURE END LIST*
D10*
X81143974Y-122174000D02*
G75*
G03X81915000Y-123063000I898026J0D01*
G01*
X81915000Y-123063000D02*
X127508000Y-123063000D01*
X82042000Y-121402974D02*
G75*
G03X81153000Y-122174000I0J-898026D01*
G01*
X129540000Y-121412000D02*
X82042000Y-121412000D01*
X129540000Y-121412000D02*
G75*
G03X130810000Y-120142000I0J1270000D01*
G01*
X80899000Y-89789000D02*
X130810000Y-89789000D01*
X80899000Y-120269000D02*
X80899000Y-89789000D01*
X130810000Y-120269000D02*
X80899000Y-120269000D01*
X130810000Y-89789000D02*
X130810000Y-120269000D01*
D11*
X95361857Y-91650428D02*
X94647571Y-91650428D01*
X94647571Y-93150428D01*
X95861857Y-91650428D02*
X95861857Y-92650428D01*
X95861857Y-93150428D02*
X95790428Y-93079000D01*
X95861857Y-93007571D01*
X95933285Y-93079000D01*
X95861857Y-93150428D01*
X95861857Y-93007571D01*
X96576142Y-91650428D02*
X96576142Y-93150428D01*
X97147571Y-93150428D01*
X97290428Y-93079000D01*
X97361857Y-93007571D01*
X97433285Y-92864714D01*
X97433285Y-92650428D01*
X97361857Y-92507571D01*
X97290428Y-92436142D01*
X97147571Y-92364714D01*
X96576142Y-92364714D01*
X98290428Y-91650428D02*
X98147571Y-91721857D01*
X98076142Y-91793285D01*
X98004714Y-91936142D01*
X98004714Y-92364714D01*
X98076142Y-92507571D01*
X98147571Y-92579000D01*
X98290428Y-92650428D01*
X98504714Y-92650428D01*
X98647571Y-92579000D01*
X98719000Y-92507571D01*
X98790428Y-92364714D01*
X98790428Y-91936142D01*
X98719000Y-91793285D01*
X98647571Y-91721857D01*
X98504714Y-91650428D01*
X98290428Y-91650428D01*
X101076142Y-92436142D02*
X101290428Y-92364714D01*
X101361857Y-92293285D01*
X101433285Y-92150428D01*
X101433285Y-91936142D01*
X101361857Y-91793285D01*
X101290428Y-91721857D01*
X101147571Y-91650428D01*
X100576142Y-91650428D01*
X100576142Y-93150428D01*
X101076142Y-93150428D01*
X101219000Y-93079000D01*
X101290428Y-93007571D01*
X101361857Y-92864714D01*
X101361857Y-92721857D01*
X101290428Y-92579000D01*
X101219000Y-92507571D01*
X101076142Y-92436142D01*
X100576142Y-92436142D01*
X102719000Y-91650428D02*
X102719000Y-92436142D01*
X102647571Y-92579000D01*
X102504714Y-92650428D01*
X102219000Y-92650428D01*
X102076142Y-92579000D01*
X102719000Y-91721857D02*
X102576142Y-91650428D01*
X102219000Y-91650428D01*
X102076142Y-91721857D01*
X102004714Y-91864714D01*
X102004714Y-92007571D01*
X102076142Y-92150428D01*
X102219000Y-92221857D01*
X102576142Y-92221857D01*
X102719000Y-92293285D01*
X103219000Y-92650428D02*
X103790428Y-92650428D01*
X103433285Y-93150428D02*
X103433285Y-91864714D01*
X103504714Y-91721857D01*
X103647571Y-91650428D01*
X103790428Y-91650428D01*
X104076142Y-92650428D02*
X104647571Y-92650428D01*
X104290428Y-93150428D02*
X104290428Y-91864714D01*
X104361857Y-91721857D01*
X104504714Y-91650428D01*
X104647571Y-91650428D01*
X105719000Y-91721857D02*
X105576142Y-91650428D01*
X105290428Y-91650428D01*
X105147571Y-91721857D01*
X105076142Y-91864714D01*
X105076142Y-92436142D01*
X105147571Y-92579000D01*
X105290428Y-92650428D01*
X105576142Y-92650428D01*
X105719000Y-92579000D01*
X105790428Y-92436142D01*
X105790428Y-92293285D01*
X105076142Y-92150428D01*
X106433285Y-91650428D02*
X106433285Y-92650428D01*
X106433285Y-92364714D02*
X106504714Y-92507571D01*
X106576142Y-92579000D01*
X106719000Y-92650428D01*
X106861857Y-92650428D01*
X107219000Y-92650428D02*
X107576142Y-91650428D01*
X107933285Y-92650428D02*
X107576142Y-91650428D01*
X107433285Y-91293285D01*
X107361857Y-91221857D01*
X107219000Y-91150428D01*
D12*
G04 #@! TO.C,CONN2*
X135890000Y-123960000D02*
X140240000Y-123960000D01*
X140240000Y-123960000D02*
X140240000Y-122960000D01*
X140240000Y-122960000D02*
X135890000Y-122960000D01*
X142090000Y-125260000D02*
X142090000Y-125610000D01*
X142090000Y-125610000D02*
X143690000Y-125610000D01*
X143690000Y-125610000D02*
X143690000Y-126510000D01*
X143690000Y-126510000D02*
X135890000Y-126510000D01*
X135890000Y-126510000D02*
X135890000Y-120410000D01*
X135890000Y-120410000D02*
X143690000Y-120410000D01*
X143690000Y-120410000D02*
X143690000Y-121310000D01*
X143690000Y-121310000D02*
X142090000Y-121310000D01*
X142090000Y-121310000D02*
X142090000Y-121660000D01*
X142090000Y-126510000D02*
X142090000Y-125610000D01*
X142090000Y-120410000D02*
X142090000Y-121310000D01*
X139740000Y-125760000D02*
X138140000Y-125760000D01*
X138140000Y-125760000D02*
X138140000Y-124760000D01*
X138140000Y-124760000D02*
X139740000Y-124760000D01*
X139740000Y-124760000D02*
X139740000Y-125760000D01*
X139740000Y-121160000D02*
X138140000Y-121160000D01*
X138140000Y-121160000D02*
X138140000Y-122160000D01*
X138140000Y-122160000D02*
X139740000Y-122160000D01*
X139740000Y-122160000D02*
X139740000Y-121160000D01*
X138140000Y-124760000D02*
X135890000Y-124760000D01*
X138140000Y-125260000D02*
X135890000Y-125260000D01*
X142090000Y-125260000D02*
X143290000Y-125260000D01*
D13*
X134977142Y-121705904D02*
X135024761Y-121658285D01*
X135072380Y-121515428D01*
X135072380Y-121420190D01*
X135024761Y-121277333D01*
X134929523Y-121182095D01*
X134834285Y-121134476D01*
X134643809Y-121086857D01*
X134500952Y-121086857D01*
X134310476Y-121134476D01*
X134215238Y-121182095D01*
X134120000Y-121277333D01*
X134072380Y-121420190D01*
X134072380Y-121515428D01*
X134120000Y-121658285D01*
X134167619Y-121705904D01*
X134072380Y-122324952D02*
X134072380Y-122515428D01*
X134120000Y-122610666D01*
X134215238Y-122705904D01*
X134405714Y-122753523D01*
X134739047Y-122753523D01*
X134929523Y-122705904D01*
X135024761Y-122610666D01*
X135072380Y-122515428D01*
X135072380Y-122324952D01*
X135024761Y-122229714D01*
X134929523Y-122134476D01*
X134739047Y-122086857D01*
X134405714Y-122086857D01*
X134215238Y-122134476D01*
X134120000Y-122229714D01*
X134072380Y-122324952D01*
X135072380Y-123182095D02*
X134072380Y-123182095D01*
X135072380Y-123753523D01*
X134072380Y-123753523D01*
X135072380Y-124229714D02*
X134072380Y-124229714D01*
X135072380Y-124801142D01*
X134072380Y-124801142D01*
X134167619Y-125229714D02*
X134120000Y-125277333D01*
X134072380Y-125372571D01*
X134072380Y-125610666D01*
X134120000Y-125705904D01*
X134167619Y-125753523D01*
X134262857Y-125801142D01*
X134358095Y-125801142D01*
X134500952Y-125753523D01*
X135072380Y-125182095D01*
X135072380Y-125801142D01*
G04 #@! TD*
M02*
