G04 #@! TF.GenerationSoftware,KiCad,Pcbnew,(5.0.1)-rc2*
G04 #@! TF.CreationDate,2020-01-05T22:16:04+01:00*
G04 #@! TF.ProjectId,IoT_Messenger,496F545F4D657373656E6765722E6B69,rev?*
G04 #@! TF.SameCoordinates,Original*
G04 #@! TF.FileFunction,Soldermask,Top*
G04 #@! TF.FilePolarity,Negative*
%FSLAX46Y46*%
G04 Gerber Fmt 4.6, Leading zero omitted, Abs format (unit mm)*
G04 Created by KiCad (PCBNEW (5.0.1)-rc2) date 05/01/2020 22:16:04*
%MOMM*%
%LPD*%
G01*
G04 APERTURE LIST*
%ADD10C,0.100000*%
G04 APERTURE END LIST*
D10*
G36*
X78296000Y-127421000D02*
X75694000Y-127421000D01*
X75694000Y-125319000D01*
X78296000Y-125319000D01*
X78296000Y-127421000D01*
X78296000Y-127421000D01*
G37*
G36*
X72796000Y-127421000D02*
X70194000Y-127421000D01*
X70194000Y-125319000D01*
X72796000Y-125319000D01*
X72796000Y-127421000D01*
X72796000Y-127421000D01*
G37*
G36*
X82231000Y-126461000D02*
X80329000Y-126461000D01*
X80329000Y-124809000D01*
X82231000Y-124809000D01*
X82231000Y-126461000D01*
X82231000Y-126461000D01*
G37*
G36*
X113711000Y-126121000D02*
X109809000Y-126121000D01*
X109809000Y-124019000D01*
X113711000Y-124019000D01*
X113711000Y-126121000D01*
X113711000Y-126121000D01*
G37*
G36*
X85791000Y-125811000D02*
X84389000Y-125811000D01*
X84389000Y-125009000D01*
X85791000Y-125009000D01*
X85791000Y-125811000D01*
X85791000Y-125811000D01*
G37*
G36*
X93919000Y-125811000D02*
X92517000Y-125811000D01*
X92517000Y-125009000D01*
X93919000Y-125009000D01*
X93919000Y-125811000D01*
X93919000Y-125811000D01*
G37*
G36*
X88331000Y-125811000D02*
X86929000Y-125811000D01*
X86929000Y-125009000D01*
X88331000Y-125009000D01*
X88331000Y-125811000D01*
X88331000Y-125811000D01*
G37*
G36*
X102361000Y-125411000D02*
X99759000Y-125411000D01*
X99759000Y-123509000D01*
X102361000Y-123509000D01*
X102361000Y-125411000D01*
X102361000Y-125411000D01*
G37*
G36*
X98361000Y-125411000D02*
X95759000Y-125411000D01*
X95759000Y-123509000D01*
X98361000Y-123509000D01*
X98361000Y-125411000D01*
X98361000Y-125411000D01*
G37*
G36*
X143141000Y-125111000D02*
X141339000Y-125111000D01*
X141339000Y-123809000D01*
X143141000Y-123809000D01*
X143141000Y-125111000D01*
X143141000Y-125111000D01*
G37*
G36*
X74641136Y-123638253D02*
X74732312Y-123676019D01*
X74814372Y-123730850D01*
X74884150Y-123800628D01*
X74938981Y-123882688D01*
X74976747Y-123973864D01*
X74996000Y-124070656D01*
X74996000Y-124169344D01*
X74976747Y-124266136D01*
X74938981Y-124357312D01*
X74884150Y-124439372D01*
X74814372Y-124509150D01*
X74732312Y-124563981D01*
X74641136Y-124601747D01*
X74544344Y-124621000D01*
X74445656Y-124621000D01*
X74348864Y-124601747D01*
X74257688Y-124563981D01*
X74175628Y-124509150D01*
X74105850Y-124439372D01*
X74051019Y-124357312D01*
X74013253Y-124266136D01*
X73994000Y-124169344D01*
X73994000Y-124070656D01*
X74013253Y-123973864D01*
X74051019Y-123882688D01*
X74105850Y-123800628D01*
X74175628Y-123730850D01*
X74257688Y-123676019D01*
X74348864Y-123638253D01*
X74445656Y-123619000D01*
X74544344Y-123619000D01*
X74641136Y-123638253D01*
X74641136Y-123638253D01*
G37*
G36*
X82231000Y-124111000D02*
X80329000Y-124111000D01*
X80329000Y-122459000D01*
X82231000Y-122459000D01*
X82231000Y-124111000D01*
X82231000Y-124111000D01*
G37*
G36*
X106361000Y-123921000D02*
X104459000Y-123921000D01*
X104459000Y-122269000D01*
X106361000Y-122269000D01*
X106361000Y-123921000D01*
X106361000Y-123921000D01*
G37*
G36*
X119061000Y-123921000D02*
X117159000Y-123921000D01*
X117159000Y-122269000D01*
X119061000Y-122269000D01*
X119061000Y-123921000D01*
X119061000Y-123921000D01*
G37*
G36*
X85791000Y-123911000D02*
X84389000Y-123911000D01*
X84389000Y-123109000D01*
X85791000Y-123109000D01*
X85791000Y-123911000D01*
X85791000Y-123911000D01*
G37*
G36*
X93919000Y-123911000D02*
X92517000Y-123911000D01*
X92517000Y-123109000D01*
X93919000Y-123109000D01*
X93919000Y-123911000D01*
X93919000Y-123911000D01*
G37*
G36*
X88331000Y-123911000D02*
X86929000Y-123911000D01*
X86929000Y-123109000D01*
X88331000Y-123109000D01*
X88331000Y-123911000D01*
X88331000Y-123911000D01*
G37*
G36*
X78296000Y-123821000D02*
X75894000Y-123821000D01*
X75894000Y-120019000D01*
X78296000Y-120019000D01*
X78296000Y-123821000D01*
X78296000Y-123821000D01*
G37*
G36*
X126796000Y-123741000D02*
X124664000Y-123741000D01*
X124664000Y-122499000D01*
X126796000Y-122499000D01*
X126796000Y-123741000D01*
X126796000Y-123741000D01*
G37*
G36*
X122596000Y-123471000D02*
X121244000Y-123471000D01*
X121244000Y-122369000D01*
X122596000Y-122369000D01*
X122596000Y-123471000D01*
X122596000Y-123471000D01*
G37*
G36*
X142553855Y-121812140D02*
X142617618Y-121818420D01*
X142699427Y-121843237D01*
X142740333Y-121855645D01*
X142840491Y-121909181D01*
X142853426Y-121916095D01*
X142952553Y-121997447D01*
X143033905Y-122096574D01*
X143033906Y-122096576D01*
X143094355Y-122209667D01*
X143094355Y-122209668D01*
X143131580Y-122332382D01*
X143144149Y-122460000D01*
X143131580Y-122587618D01*
X143106763Y-122669427D01*
X143094355Y-122710333D01*
X143040819Y-122810491D01*
X143033905Y-122823426D01*
X142952553Y-122922553D01*
X142853426Y-123003905D01*
X142853424Y-123003906D01*
X142740333Y-123064355D01*
X142699427Y-123076763D01*
X142617618Y-123101580D01*
X142553855Y-123107860D01*
X142521974Y-123111000D01*
X141958026Y-123111000D01*
X141926145Y-123107860D01*
X141862382Y-123101580D01*
X141780573Y-123076763D01*
X141739667Y-123064355D01*
X141626576Y-123003906D01*
X141626574Y-123003905D01*
X141527447Y-122922553D01*
X141446095Y-122823426D01*
X141439181Y-122810491D01*
X141385645Y-122710333D01*
X141373237Y-122669427D01*
X141348420Y-122587618D01*
X141335851Y-122460000D01*
X141348420Y-122332382D01*
X141385645Y-122209668D01*
X141385645Y-122209667D01*
X141446094Y-122096576D01*
X141446095Y-122096574D01*
X141527447Y-121997447D01*
X141626574Y-121916095D01*
X141639509Y-121909181D01*
X141739667Y-121855645D01*
X141780573Y-121843237D01*
X141862382Y-121818420D01*
X141926145Y-121812140D01*
X141958026Y-121809000D01*
X142521974Y-121809000D01*
X142553855Y-121812140D01*
X142553855Y-121812140D01*
G37*
G36*
X106361000Y-121571000D02*
X104459000Y-121571000D01*
X104459000Y-119919000D01*
X106361000Y-119919000D01*
X106361000Y-121571000D01*
X106361000Y-121571000D01*
G37*
G36*
X119061000Y-121571000D02*
X117159000Y-121571000D01*
X117159000Y-119919000D01*
X119061000Y-119919000D01*
X119061000Y-121571000D01*
X119061000Y-121571000D01*
G37*
G36*
X122596000Y-121471000D02*
X121244000Y-121471000D01*
X121244000Y-120369000D01*
X122596000Y-120369000D01*
X122596000Y-121471000D01*
X122596000Y-121471000D01*
G37*
G36*
X126796000Y-121341000D02*
X124664000Y-121341000D01*
X124664000Y-120099000D01*
X126796000Y-120099000D01*
X126796000Y-121341000D01*
X126796000Y-121341000D01*
G37*
G36*
X82346000Y-121201000D02*
X80214000Y-121201000D01*
X80214000Y-119959000D01*
X82346000Y-119959000D01*
X82346000Y-121201000D01*
X82346000Y-121201000D01*
G37*
G36*
X85741000Y-121131000D02*
X84439000Y-121131000D01*
X84439000Y-119829000D01*
X85741000Y-119829000D01*
X85741000Y-121131000D01*
X85741000Y-121131000D01*
G37*
G36*
X96016000Y-120881000D02*
X95114000Y-120881000D01*
X95114000Y-119879000D01*
X96016000Y-119879000D01*
X96016000Y-120881000D01*
X96016000Y-120881000D01*
G37*
G36*
X94116000Y-120881000D02*
X93214000Y-120881000D01*
X93214000Y-119879000D01*
X94116000Y-119879000D01*
X94116000Y-120881000D01*
X94116000Y-120881000D01*
G37*
G36*
X91081000Y-120706000D02*
X89419000Y-120706000D01*
X89419000Y-118054000D01*
X91081000Y-118054000D01*
X91081000Y-120706000D01*
X91081000Y-120706000D01*
G37*
G36*
X88381000Y-120706000D02*
X86719000Y-120706000D01*
X86719000Y-119954000D01*
X88381000Y-119954000D01*
X88381000Y-120706000D01*
X88381000Y-120706000D01*
G37*
G36*
X99981000Y-120331000D02*
X98329000Y-120331000D01*
X98329000Y-118429000D01*
X99981000Y-118429000D01*
X99981000Y-120331000D01*
X99981000Y-120331000D01*
G37*
G36*
X102331000Y-120331000D02*
X100679000Y-120331000D01*
X100679000Y-118429000D01*
X102331000Y-118429000D01*
X102331000Y-120331000D01*
X102331000Y-120331000D01*
G37*
G36*
X74641136Y-119238253D02*
X74732312Y-119276019D01*
X74814372Y-119330850D01*
X74884150Y-119400628D01*
X74938981Y-119482688D01*
X74976747Y-119573864D01*
X74996000Y-119670656D01*
X74996000Y-119769344D01*
X74976747Y-119866136D01*
X74938981Y-119957312D01*
X74884150Y-120039372D01*
X74814372Y-120109150D01*
X74732312Y-120163981D01*
X74641136Y-120201747D01*
X74544344Y-120221000D01*
X74445656Y-120221000D01*
X74348864Y-120201747D01*
X74257688Y-120163981D01*
X74175628Y-120109150D01*
X74105850Y-120039372D01*
X74051019Y-119957312D01*
X74013253Y-119866136D01*
X73994000Y-119769344D01*
X73994000Y-119670656D01*
X74013253Y-119573864D01*
X74051019Y-119482688D01*
X74105850Y-119400628D01*
X74175628Y-119330850D01*
X74257688Y-119276019D01*
X74348864Y-119238253D01*
X74445656Y-119219000D01*
X74544344Y-119219000D01*
X74641136Y-119238253D01*
X74641136Y-119238253D01*
G37*
G36*
X114861000Y-119821000D02*
X113259000Y-119821000D01*
X113259000Y-117719000D01*
X114861000Y-117719000D01*
X114861000Y-119821000D01*
X114861000Y-119821000D01*
G37*
G36*
X112561000Y-119821000D02*
X110959000Y-119821000D01*
X110959000Y-117719000D01*
X112561000Y-117719000D01*
X112561000Y-119821000D01*
X112561000Y-119821000D01*
G37*
G36*
X110261000Y-119821000D02*
X108659000Y-119821000D01*
X108659000Y-117719000D01*
X110261000Y-117719000D01*
X110261000Y-119821000D01*
X110261000Y-119821000D01*
G37*
G36*
X85741000Y-118931000D02*
X84439000Y-118931000D01*
X84439000Y-117629000D01*
X85741000Y-117629000D01*
X85741000Y-118931000D01*
X85741000Y-118931000D01*
G37*
G36*
X95066000Y-118881000D02*
X94164000Y-118881000D01*
X94164000Y-117879000D01*
X95066000Y-117879000D01*
X95066000Y-118881000D01*
X95066000Y-118881000D01*
G37*
G36*
X88381000Y-118806000D02*
X86719000Y-118806000D01*
X86719000Y-118054000D01*
X88381000Y-118054000D01*
X88381000Y-118806000D01*
X88381000Y-118806000D01*
G37*
G36*
X82346000Y-118801000D02*
X80214000Y-118801000D01*
X80214000Y-117559000D01*
X82346000Y-117559000D01*
X82346000Y-118801000D01*
X82346000Y-118801000D01*
G37*
G36*
X78296000Y-118521000D02*
X75694000Y-118521000D01*
X75694000Y-116419000D01*
X78296000Y-116419000D01*
X78296000Y-118521000D01*
X78296000Y-118521000D01*
G37*
G36*
X72796000Y-118521000D02*
X70194000Y-118521000D01*
X70194000Y-116419000D01*
X72796000Y-116419000D01*
X72796000Y-118521000D01*
X72796000Y-118521000D01*
G37*
G36*
X139986565Y-115829389D02*
X140177834Y-115908615D01*
X140349976Y-116023637D01*
X140496363Y-116170024D01*
X140611385Y-116342166D01*
X140690611Y-116533435D01*
X140731000Y-116736484D01*
X140731000Y-116943516D01*
X140690611Y-117146565D01*
X140611385Y-117337834D01*
X140496363Y-117509976D01*
X140349976Y-117656363D01*
X140177834Y-117771385D01*
X139986565Y-117850611D01*
X139783516Y-117891000D01*
X139576484Y-117891000D01*
X139373435Y-117850611D01*
X139182166Y-117771385D01*
X139010024Y-117656363D01*
X138863637Y-117509976D01*
X138748615Y-117337834D01*
X138669389Y-117146565D01*
X138629000Y-116943516D01*
X138629000Y-116736484D01*
X138669389Y-116533435D01*
X138748615Y-116342166D01*
X138863637Y-116170024D01*
X139010024Y-116023637D01*
X139182166Y-115908615D01*
X139373435Y-115829389D01*
X139576484Y-115789000D01*
X139783516Y-115789000D01*
X139986565Y-115829389D01*
X139986565Y-115829389D01*
G37*
G36*
X133131000Y-117891000D02*
X131029000Y-117891000D01*
X131029000Y-115789000D01*
X133131000Y-115789000D01*
X133131000Y-117891000D01*
X133131000Y-117891000D01*
G37*
G36*
X101816000Y-114731000D02*
X100114000Y-114731000D01*
X100114000Y-113869000D01*
X101816000Y-113869000D01*
X101816000Y-114731000D01*
X101816000Y-114731000D01*
G37*
G36*
X94196000Y-114731000D02*
X92494000Y-114731000D01*
X92494000Y-113869000D01*
X94196000Y-113869000D01*
X94196000Y-114731000D01*
X94196000Y-114731000D01*
G37*
G36*
X95204000Y-111826000D02*
X94402000Y-111826000D01*
X94402000Y-110424000D01*
X95204000Y-110424000D01*
X95204000Y-111826000D01*
X95204000Y-111826000D01*
G37*
G36*
X93304000Y-111826000D02*
X92502000Y-111826000D01*
X92502000Y-110424000D01*
X93304000Y-110424000D01*
X93304000Y-111826000D01*
X93304000Y-111826000D01*
G37*
G36*
X101808000Y-111826000D02*
X101006000Y-111826000D01*
X101006000Y-110424000D01*
X101808000Y-110424000D01*
X101808000Y-111826000D01*
X101808000Y-111826000D01*
G37*
G36*
X99908000Y-111826000D02*
X99106000Y-111826000D01*
X99106000Y-110424000D01*
X99908000Y-110424000D01*
X99908000Y-111826000D01*
X99908000Y-111826000D01*
G37*
G36*
X98506000Y-111826000D02*
X97704000Y-111826000D01*
X97704000Y-110424000D01*
X98506000Y-110424000D01*
X98506000Y-111826000D01*
X98506000Y-111826000D01*
G37*
G36*
X96606000Y-111826000D02*
X95804000Y-111826000D01*
X95804000Y-110424000D01*
X96606000Y-110424000D01*
X96606000Y-111826000D01*
X96606000Y-111826000D01*
G37*
G36*
X113881000Y-111556000D02*
X112179000Y-111556000D01*
X112179000Y-110694000D01*
X113881000Y-110694000D01*
X113881000Y-111556000D01*
X113881000Y-111556000D01*
G37*
G36*
X74511000Y-111556000D02*
X72809000Y-111556000D01*
X72809000Y-110694000D01*
X74511000Y-110694000D01*
X74511000Y-111556000D01*
X74511000Y-111556000D01*
G37*
G36*
X82131000Y-111556000D02*
X80429000Y-111556000D01*
X80429000Y-110694000D01*
X82131000Y-110694000D01*
X82131000Y-111556000D01*
X82131000Y-111556000D01*
G37*
G36*
X121501000Y-111556000D02*
X119799000Y-111556000D01*
X119799000Y-110694000D01*
X121501000Y-110694000D01*
X121501000Y-111556000D01*
X121501000Y-111556000D01*
G37*
G36*
X128551000Y-111166000D02*
X127449000Y-111166000D01*
X127449000Y-109814000D01*
X128551000Y-109814000D01*
X128551000Y-111166000D01*
X128551000Y-111166000D01*
G37*
G36*
X126551000Y-111166000D02*
X125449000Y-111166000D01*
X125449000Y-109814000D01*
X126551000Y-109814000D01*
X126551000Y-111166000D01*
X126551000Y-111166000D01*
G37*
G36*
X129001000Y-108901000D02*
X127349000Y-108901000D01*
X127349000Y-106999000D01*
X129001000Y-106999000D01*
X129001000Y-108901000D01*
X129001000Y-108901000D01*
G37*
G36*
X126651000Y-108901000D02*
X124999000Y-108901000D01*
X124999000Y-106999000D01*
X126651000Y-106999000D01*
X126651000Y-108901000D01*
X126651000Y-108901000D01*
G37*
G36*
X139151000Y-108651000D02*
X138349000Y-108651000D01*
X138349000Y-107249000D01*
X139151000Y-107249000D01*
X139151000Y-108651000D01*
X139151000Y-108651000D01*
G37*
G36*
X131531000Y-108651000D02*
X130729000Y-108651000D01*
X130729000Y-107249000D01*
X131531000Y-107249000D01*
X131531000Y-108651000D01*
X131531000Y-108651000D01*
G37*
G36*
X141051000Y-108651000D02*
X140249000Y-108651000D01*
X140249000Y-107249000D01*
X141051000Y-107249000D01*
X141051000Y-108651000D01*
X141051000Y-108651000D01*
G37*
G36*
X133431000Y-108651000D02*
X132629000Y-108651000D01*
X132629000Y-107249000D01*
X133431000Y-107249000D01*
X133431000Y-108651000D01*
X133431000Y-108651000D01*
G37*
G36*
X94196000Y-108381000D02*
X92494000Y-108381000D01*
X92494000Y-107519000D01*
X94196000Y-107519000D01*
X94196000Y-108381000D01*
X94196000Y-108381000D01*
G37*
G36*
X101816000Y-108381000D02*
X100114000Y-108381000D01*
X100114000Y-107519000D01*
X101816000Y-107519000D01*
X101816000Y-108381000D01*
X101816000Y-108381000D01*
G37*
G36*
X85352198Y-105479954D02*
X85364450Y-105480556D01*
X85382869Y-105480556D01*
X85405149Y-105482750D01*
X85489236Y-105499476D01*
X85510655Y-105505974D01*
X85589871Y-105538785D01*
X85609607Y-105549335D01*
X85680897Y-105596969D01*
X85698208Y-105611176D01*
X85758824Y-105671792D01*
X85773031Y-105689103D01*
X85820665Y-105760393D01*
X85831215Y-105780129D01*
X85864026Y-105859345D01*
X85870524Y-105880764D01*
X85887250Y-105964851D01*
X85889444Y-105987131D01*
X85889444Y-106005550D01*
X85890046Y-106017802D01*
X85891852Y-106036140D01*
X85891852Y-106523860D01*
X85890263Y-106539999D01*
X85887347Y-106549611D01*
X85882612Y-106558469D01*
X85876237Y-106566237D01*
X85863798Y-106576446D01*
X85853432Y-106583372D01*
X85836105Y-106600698D01*
X85822490Y-106621073D01*
X85813112Y-106643711D01*
X85808331Y-106667745D01*
X85808331Y-106692249D01*
X85813111Y-106716283D01*
X85822487Y-106738922D01*
X85836101Y-106759297D01*
X85853427Y-106776624D01*
X85863796Y-106783552D01*
X85876237Y-106793763D01*
X85882612Y-106801531D01*
X85887347Y-106810389D01*
X85890263Y-106820001D01*
X85891852Y-106836140D01*
X85891852Y-107323861D01*
X85890046Y-107342198D01*
X85889444Y-107354450D01*
X85889444Y-107372869D01*
X85887250Y-107395149D01*
X85870524Y-107479236D01*
X85864026Y-107500655D01*
X85831215Y-107579871D01*
X85820665Y-107599607D01*
X85773031Y-107670897D01*
X85758824Y-107688208D01*
X85698208Y-107748824D01*
X85680897Y-107763031D01*
X85609607Y-107810665D01*
X85589871Y-107821215D01*
X85510655Y-107854026D01*
X85489236Y-107860524D01*
X85405149Y-107877250D01*
X85382869Y-107879444D01*
X85364450Y-107879444D01*
X85352198Y-107880046D01*
X85333861Y-107881852D01*
X84846139Y-107881852D01*
X84827802Y-107880046D01*
X84815550Y-107879444D01*
X84797131Y-107879444D01*
X84774851Y-107877250D01*
X84690764Y-107860524D01*
X84669345Y-107854026D01*
X84590129Y-107821215D01*
X84570393Y-107810665D01*
X84499103Y-107763031D01*
X84481792Y-107748824D01*
X84421176Y-107688208D01*
X84406969Y-107670897D01*
X84359335Y-107599607D01*
X84348785Y-107579871D01*
X84315974Y-107500655D01*
X84309476Y-107479236D01*
X84292750Y-107395149D01*
X84290556Y-107372869D01*
X84290556Y-107354450D01*
X84289954Y-107342198D01*
X84288148Y-107323861D01*
X84288148Y-106836140D01*
X84289737Y-106820001D01*
X84292653Y-106810389D01*
X84297388Y-106801531D01*
X84303763Y-106793763D01*
X84316202Y-106783554D01*
X84326568Y-106776628D01*
X84343895Y-106759302D01*
X84357510Y-106738927D01*
X84366888Y-106716289D01*
X84371669Y-106692255D01*
X84371669Y-106667751D01*
X84366889Y-106643717D01*
X84357513Y-106621078D01*
X84343899Y-106600703D01*
X84326573Y-106583376D01*
X84316204Y-106576448D01*
X84303763Y-106566237D01*
X84297388Y-106558469D01*
X84292653Y-106549611D01*
X84289737Y-106539999D01*
X84288148Y-106523860D01*
X84288148Y-106036140D01*
X84289954Y-106017802D01*
X84290556Y-106005550D01*
X84290556Y-105987131D01*
X84292750Y-105964851D01*
X84309476Y-105880764D01*
X84315974Y-105859345D01*
X84348785Y-105780129D01*
X84359335Y-105760393D01*
X84406969Y-105689103D01*
X84421176Y-105671792D01*
X84481792Y-105611176D01*
X84499103Y-105596969D01*
X84570393Y-105549335D01*
X84590129Y-105538785D01*
X84669345Y-105505974D01*
X84690764Y-105499476D01*
X84774851Y-105482750D01*
X84797131Y-105480556D01*
X84815550Y-105480556D01*
X84827802Y-105479954D01*
X84846140Y-105478148D01*
X85333860Y-105478148D01*
X85352198Y-105479954D01*
X85352198Y-105479954D01*
G37*
G36*
X78821000Y-107381000D02*
X78019000Y-107381000D01*
X78019000Y-105979000D01*
X78821000Y-105979000D01*
X78821000Y-107381000D01*
X78821000Y-107381000D01*
G37*
G36*
X82631000Y-107381000D02*
X81829000Y-107381000D01*
X81829000Y-105979000D01*
X82631000Y-105979000D01*
X82631000Y-107381000D01*
X82631000Y-107381000D01*
G37*
G36*
X80731000Y-107381000D02*
X79929000Y-107381000D01*
X79929000Y-105979000D01*
X80731000Y-105979000D01*
X80731000Y-107381000D01*
X80731000Y-107381000D01*
G37*
G36*
X76921000Y-107381000D02*
X76119000Y-107381000D01*
X76119000Y-105979000D01*
X76921000Y-105979000D01*
X76921000Y-107381000D01*
X76921000Y-107381000D01*
G37*
G36*
X73211000Y-107356000D02*
X72109000Y-107356000D01*
X72109000Y-106004000D01*
X73211000Y-106004000D01*
X73211000Y-107356000D01*
X73211000Y-107356000D01*
G37*
G36*
X75211000Y-107356000D02*
X74109000Y-107356000D01*
X74109000Y-106004000D01*
X75211000Y-106004000D01*
X75211000Y-107356000D01*
X75211000Y-107356000D01*
G37*
G36*
X139441000Y-106296000D02*
X138339000Y-106296000D01*
X138339000Y-104394000D01*
X139441000Y-104394000D01*
X139441000Y-106296000D01*
X139441000Y-106296000D01*
G37*
G36*
X141441000Y-106296000D02*
X140339000Y-106296000D01*
X140339000Y-104394000D01*
X141441000Y-104394000D01*
X141441000Y-106296000D01*
X141441000Y-106296000D01*
G37*
G36*
X131441000Y-106296000D02*
X130339000Y-106296000D01*
X130339000Y-104394000D01*
X131441000Y-104394000D01*
X131441000Y-106296000D01*
X131441000Y-106296000D01*
G37*
G36*
X133441000Y-106296000D02*
X132339000Y-106296000D01*
X132339000Y-104394000D01*
X133441000Y-104394000D01*
X133441000Y-106296000D01*
X133441000Y-106296000D01*
G37*
G36*
X135441000Y-106296000D02*
X134339000Y-106296000D01*
X134339000Y-104394000D01*
X135441000Y-104394000D01*
X135441000Y-106296000D01*
X135441000Y-106296000D01*
G37*
G36*
X137441000Y-106296000D02*
X136339000Y-106296000D01*
X136339000Y-104394000D01*
X137441000Y-104394000D01*
X137441000Y-106296000D01*
X137441000Y-106296000D01*
G37*
G36*
X129591000Y-104396000D02*
X126989000Y-104396000D01*
X126989000Y-103294000D01*
X129591000Y-103294000D01*
X129591000Y-104396000D01*
X129591000Y-104396000D01*
G37*
G36*
X144791000Y-104396000D02*
X142189000Y-104396000D01*
X142189000Y-103294000D01*
X144791000Y-103294000D01*
X144791000Y-104396000D01*
X144791000Y-104396000D01*
G37*
G36*
X121891364Y-95442053D02*
X121931134Y-95454118D01*
X121931137Y-95454119D01*
X121967792Y-95473712D01*
X121999921Y-95500079D01*
X122026288Y-95532208D01*
X122045881Y-95568863D01*
X122045882Y-95568866D01*
X122057947Y-95608636D01*
X122062020Y-95650000D01*
X122057947Y-95691364D01*
X122045882Y-95731134D01*
X122045881Y-95731137D01*
X122026288Y-95767792D01*
X121999921Y-95799921D01*
X121967788Y-95826291D01*
X121923880Y-95849760D01*
X121903505Y-95863373D01*
X121886178Y-95880701D01*
X121872564Y-95901075D01*
X121863187Y-95923714D01*
X121858406Y-95947748D01*
X121858406Y-95972252D01*
X121863186Y-95996285D01*
X121872564Y-96018924D01*
X121886177Y-96039299D01*
X121903505Y-96056626D01*
X121923880Y-96070240D01*
X121967788Y-96093709D01*
X121967791Y-96093711D01*
X121967792Y-96093712D01*
X121999921Y-96120079D01*
X122026288Y-96152208D01*
X122045881Y-96188863D01*
X122045882Y-96188866D01*
X122057947Y-96228636D01*
X122062020Y-96270000D01*
X122057947Y-96311364D01*
X122045882Y-96351134D01*
X122045881Y-96351137D01*
X122026288Y-96387792D01*
X121999921Y-96419921D01*
X121968683Y-96445557D01*
X121967788Y-96446291D01*
X121923880Y-96469760D01*
X121903505Y-96483373D01*
X121886178Y-96500701D01*
X121872564Y-96521075D01*
X121863187Y-96543714D01*
X121858406Y-96567748D01*
X121858406Y-96592252D01*
X121863186Y-96616285D01*
X121872564Y-96638924D01*
X121886177Y-96659299D01*
X121903505Y-96676626D01*
X121923880Y-96690240D01*
X121967788Y-96713709D01*
X121967791Y-96713711D01*
X121967792Y-96713712D01*
X121999921Y-96740079D01*
X122026288Y-96772208D01*
X122045881Y-96808863D01*
X122045882Y-96808866D01*
X122057947Y-96848636D01*
X122062020Y-96890000D01*
X122057947Y-96931364D01*
X122045882Y-96971134D01*
X122045881Y-96971137D01*
X122026288Y-97007792D01*
X121999921Y-97039921D01*
X121967788Y-97066291D01*
X121923880Y-97089760D01*
X121903505Y-97103373D01*
X121886178Y-97120701D01*
X121872564Y-97141075D01*
X121863187Y-97163714D01*
X121858406Y-97187748D01*
X121858406Y-97212252D01*
X121863186Y-97236285D01*
X121872564Y-97258924D01*
X121886177Y-97279299D01*
X121903505Y-97296626D01*
X121923880Y-97310240D01*
X121967788Y-97333709D01*
X121967791Y-97333711D01*
X121967792Y-97333712D01*
X121999921Y-97360079D01*
X122026288Y-97392208D01*
X122045881Y-97428863D01*
X122045882Y-97428866D01*
X122057947Y-97468636D01*
X122062020Y-97510000D01*
X122057947Y-97551364D01*
X122045882Y-97591134D01*
X122045881Y-97591137D01*
X122026288Y-97627792D01*
X121999921Y-97659921D01*
X121967788Y-97686291D01*
X121923880Y-97709760D01*
X121903505Y-97723373D01*
X121886178Y-97740701D01*
X121872564Y-97761075D01*
X121863187Y-97783714D01*
X121858406Y-97807748D01*
X121858406Y-97832252D01*
X121863186Y-97856285D01*
X121872564Y-97878924D01*
X121886177Y-97899299D01*
X121903505Y-97916626D01*
X121923880Y-97930240D01*
X121967788Y-97953709D01*
X121967791Y-97953711D01*
X121967792Y-97953712D01*
X121999921Y-97980079D01*
X122026288Y-98012208D01*
X122045881Y-98048863D01*
X122045882Y-98048866D01*
X122057947Y-98088636D01*
X122062020Y-98130000D01*
X122057947Y-98171364D01*
X122045882Y-98211134D01*
X122045881Y-98211137D01*
X122026288Y-98247792D01*
X121999921Y-98279921D01*
X121967788Y-98306291D01*
X121923880Y-98329760D01*
X121903505Y-98343373D01*
X121886178Y-98360701D01*
X121872564Y-98381075D01*
X121863187Y-98403714D01*
X121858406Y-98427748D01*
X121858406Y-98452252D01*
X121863186Y-98476285D01*
X121872564Y-98498924D01*
X121886177Y-98519299D01*
X121903505Y-98536626D01*
X121923880Y-98550240D01*
X121967788Y-98573709D01*
X121967791Y-98573711D01*
X121967792Y-98573712D01*
X121999921Y-98600079D01*
X122026288Y-98632208D01*
X122045881Y-98668863D01*
X122045882Y-98668866D01*
X122057947Y-98708636D01*
X122062020Y-98750000D01*
X122057947Y-98791364D01*
X122045882Y-98831134D01*
X122045881Y-98831137D01*
X122026288Y-98867792D01*
X121999921Y-98899921D01*
X121974236Y-98921000D01*
X121967788Y-98926291D01*
X121923880Y-98949760D01*
X121903505Y-98963373D01*
X121886178Y-98980701D01*
X121872564Y-99001075D01*
X121863187Y-99023714D01*
X121858406Y-99047748D01*
X121858406Y-99072252D01*
X121863186Y-99096285D01*
X121872564Y-99118924D01*
X121886177Y-99139299D01*
X121903505Y-99156626D01*
X121923880Y-99170240D01*
X121967788Y-99193709D01*
X121967791Y-99193711D01*
X121967792Y-99193712D01*
X121999921Y-99220079D01*
X122026288Y-99252208D01*
X122045881Y-99288863D01*
X122045882Y-99288866D01*
X122057947Y-99328636D01*
X122062020Y-99370000D01*
X122057947Y-99411364D01*
X122045882Y-99451134D01*
X122045881Y-99451137D01*
X122026288Y-99487792D01*
X121999921Y-99519921D01*
X121967788Y-99546291D01*
X121923880Y-99569760D01*
X121903505Y-99583373D01*
X121886178Y-99600701D01*
X121872564Y-99621075D01*
X121863187Y-99643714D01*
X121858406Y-99667748D01*
X121858406Y-99692252D01*
X121863186Y-99716285D01*
X121872564Y-99738924D01*
X121886177Y-99759299D01*
X121903505Y-99776626D01*
X121923880Y-99790240D01*
X121967788Y-99813709D01*
X121967791Y-99813711D01*
X121967792Y-99813712D01*
X121999921Y-99840079D01*
X122026288Y-99872208D01*
X122045881Y-99908863D01*
X122045882Y-99908866D01*
X122057947Y-99948636D01*
X122062020Y-99990000D01*
X122057947Y-100031364D01*
X122045882Y-100071134D01*
X122045881Y-100071137D01*
X122026288Y-100107792D01*
X121999921Y-100139921D01*
X121967788Y-100166291D01*
X121923880Y-100189760D01*
X121903505Y-100203373D01*
X121886178Y-100220701D01*
X121872564Y-100241075D01*
X121863187Y-100263714D01*
X121858406Y-100287748D01*
X121858406Y-100312252D01*
X121863186Y-100336285D01*
X121872564Y-100358924D01*
X121886177Y-100379299D01*
X121903505Y-100396626D01*
X121923880Y-100410240D01*
X121967788Y-100433709D01*
X121967791Y-100433711D01*
X121967792Y-100433712D01*
X121999921Y-100460079D01*
X122026288Y-100492208D01*
X122045881Y-100528863D01*
X122045882Y-100528866D01*
X122057947Y-100568636D01*
X122062020Y-100610000D01*
X122057947Y-100651364D01*
X122045882Y-100691134D01*
X122045881Y-100691137D01*
X122026288Y-100727792D01*
X121999921Y-100759921D01*
X121967788Y-100786291D01*
X121923880Y-100809760D01*
X121903505Y-100823373D01*
X121886178Y-100840701D01*
X121872564Y-100861075D01*
X121863187Y-100883714D01*
X121858406Y-100907748D01*
X121858406Y-100932252D01*
X121863186Y-100956285D01*
X121872564Y-100978924D01*
X121886177Y-100999299D01*
X121903505Y-101016626D01*
X121923880Y-101030240D01*
X121967788Y-101053709D01*
X121967791Y-101053711D01*
X121967792Y-101053712D01*
X121999921Y-101080079D01*
X122026288Y-101112208D01*
X122045881Y-101148863D01*
X122045882Y-101148866D01*
X122057947Y-101188636D01*
X122062020Y-101230000D01*
X122057947Y-101271364D01*
X122045882Y-101311134D01*
X122045881Y-101311137D01*
X122026288Y-101347792D01*
X121999921Y-101379921D01*
X121967788Y-101406291D01*
X121923880Y-101429760D01*
X121903505Y-101443373D01*
X121886178Y-101460701D01*
X121872564Y-101481075D01*
X121863187Y-101503714D01*
X121858406Y-101527748D01*
X121858406Y-101552252D01*
X121863186Y-101576285D01*
X121872564Y-101598924D01*
X121886177Y-101619299D01*
X121903505Y-101636626D01*
X121923880Y-101650240D01*
X121967788Y-101673709D01*
X121967791Y-101673711D01*
X121967792Y-101673712D01*
X121999921Y-101700079D01*
X122026288Y-101732208D01*
X122045881Y-101768863D01*
X122045882Y-101768866D01*
X122057947Y-101808636D01*
X122062020Y-101850000D01*
X122057947Y-101891364D01*
X122045882Y-101931134D01*
X122045881Y-101931137D01*
X122026288Y-101967792D01*
X121999921Y-101999921D01*
X121967788Y-102026291D01*
X121923880Y-102049760D01*
X121903505Y-102063373D01*
X121886178Y-102080701D01*
X121872564Y-102101075D01*
X121863187Y-102123714D01*
X121858406Y-102147748D01*
X121858406Y-102172252D01*
X121863186Y-102196285D01*
X121872564Y-102218924D01*
X121886177Y-102239299D01*
X121903505Y-102256626D01*
X121923880Y-102270240D01*
X121967788Y-102293709D01*
X121967791Y-102293711D01*
X121967792Y-102293712D01*
X121999921Y-102320079D01*
X122026288Y-102352208D01*
X122045881Y-102388863D01*
X122045882Y-102388866D01*
X122057947Y-102428636D01*
X122062020Y-102470000D01*
X122057947Y-102511364D01*
X122049676Y-102538627D01*
X122045881Y-102551137D01*
X122026288Y-102587792D01*
X121999921Y-102619921D01*
X121967788Y-102646291D01*
X121923880Y-102669760D01*
X121903505Y-102683373D01*
X121886178Y-102700701D01*
X121872564Y-102721075D01*
X121863187Y-102743714D01*
X121858406Y-102767748D01*
X121858406Y-102792252D01*
X121863186Y-102816285D01*
X121872564Y-102838924D01*
X121886177Y-102859299D01*
X121903505Y-102876626D01*
X121923880Y-102890240D01*
X121967788Y-102913709D01*
X121967791Y-102913711D01*
X121967792Y-102913712D01*
X121999921Y-102940079D01*
X122026288Y-102972208D01*
X122045881Y-103008863D01*
X122045882Y-103008866D01*
X122057947Y-103048636D01*
X122062020Y-103090000D01*
X122057947Y-103131364D01*
X122045882Y-103171134D01*
X122045881Y-103171137D01*
X122026288Y-103207792D01*
X121999921Y-103239921D01*
X121971799Y-103263000D01*
X121967788Y-103266291D01*
X121923880Y-103289760D01*
X121903505Y-103303373D01*
X121886178Y-103320701D01*
X121872564Y-103341075D01*
X121863187Y-103363714D01*
X121858406Y-103387748D01*
X121858406Y-103412252D01*
X121863186Y-103436285D01*
X121872564Y-103458924D01*
X121886177Y-103479299D01*
X121903505Y-103496626D01*
X121923880Y-103510240D01*
X121967788Y-103533709D01*
X121967791Y-103533711D01*
X121967792Y-103533712D01*
X121999921Y-103560079D01*
X122026288Y-103592208D01*
X122045881Y-103628863D01*
X122045882Y-103628866D01*
X122057947Y-103668636D01*
X122062020Y-103710000D01*
X122057947Y-103751364D01*
X122045882Y-103791134D01*
X122045881Y-103791137D01*
X122026288Y-103827792D01*
X121999921Y-103859921D01*
X121967792Y-103886288D01*
X121931137Y-103905881D01*
X121931134Y-103905882D01*
X121891364Y-103917947D01*
X121860360Y-103921000D01*
X118159640Y-103921000D01*
X118128636Y-103917947D01*
X118088866Y-103905882D01*
X118088863Y-103905881D01*
X118052208Y-103886288D01*
X118020079Y-103859921D01*
X117993712Y-103827792D01*
X117974119Y-103791137D01*
X117974118Y-103791134D01*
X117962053Y-103751364D01*
X117957980Y-103710000D01*
X117962053Y-103668636D01*
X117974118Y-103628866D01*
X117974119Y-103628863D01*
X117993712Y-103592208D01*
X118020079Y-103560079D01*
X118052208Y-103533712D01*
X118052209Y-103533711D01*
X118052212Y-103533709D01*
X118096120Y-103510240D01*
X118116495Y-103496627D01*
X118133822Y-103479299D01*
X118147436Y-103458925D01*
X118156813Y-103436286D01*
X118161594Y-103412252D01*
X118161594Y-103387748D01*
X118156814Y-103363715D01*
X118147436Y-103341076D01*
X118133823Y-103320701D01*
X118116495Y-103303374D01*
X118096120Y-103289760D01*
X118052212Y-103266291D01*
X118048202Y-103263000D01*
X118020079Y-103239921D01*
X117993712Y-103207792D01*
X117974119Y-103171137D01*
X117974118Y-103171134D01*
X117962053Y-103131364D01*
X117957980Y-103090000D01*
X117962053Y-103048636D01*
X117974118Y-103008866D01*
X117974119Y-103008863D01*
X117993712Y-102972208D01*
X118020079Y-102940079D01*
X118052208Y-102913712D01*
X118052209Y-102913711D01*
X118052212Y-102913709D01*
X118096120Y-102890240D01*
X118116495Y-102876627D01*
X118133822Y-102859299D01*
X118147436Y-102838925D01*
X118156813Y-102816286D01*
X118161594Y-102792252D01*
X118161594Y-102767748D01*
X118156814Y-102743715D01*
X118147436Y-102721076D01*
X118133823Y-102700701D01*
X118116495Y-102683374D01*
X118096120Y-102669760D01*
X118052212Y-102646291D01*
X118020079Y-102619921D01*
X117993712Y-102587792D01*
X117974119Y-102551137D01*
X117970324Y-102538627D01*
X117962053Y-102511364D01*
X117957980Y-102470000D01*
X117962053Y-102428636D01*
X117974118Y-102388866D01*
X117974119Y-102388863D01*
X117993712Y-102352208D01*
X118020079Y-102320079D01*
X118052208Y-102293712D01*
X118052209Y-102293711D01*
X118052212Y-102293709D01*
X118096120Y-102270240D01*
X118116495Y-102256627D01*
X118133822Y-102239299D01*
X118147436Y-102218925D01*
X118156813Y-102196286D01*
X118161594Y-102172252D01*
X118161594Y-102147748D01*
X118156814Y-102123715D01*
X118147436Y-102101076D01*
X118133823Y-102080701D01*
X118116495Y-102063374D01*
X118096120Y-102049760D01*
X118052212Y-102026291D01*
X118020079Y-101999921D01*
X117993712Y-101967792D01*
X117974119Y-101931137D01*
X117974118Y-101931134D01*
X117962053Y-101891364D01*
X117957980Y-101850000D01*
X117962053Y-101808636D01*
X117974118Y-101768866D01*
X117974119Y-101768863D01*
X117993712Y-101732208D01*
X118020079Y-101700079D01*
X118052208Y-101673712D01*
X118052209Y-101673711D01*
X118052212Y-101673709D01*
X118096120Y-101650240D01*
X118116495Y-101636627D01*
X118133822Y-101619299D01*
X118147436Y-101598925D01*
X118156813Y-101576286D01*
X118161594Y-101552252D01*
X118161594Y-101527748D01*
X118156814Y-101503715D01*
X118147436Y-101481076D01*
X118133823Y-101460701D01*
X118116495Y-101443374D01*
X118096120Y-101429760D01*
X118052212Y-101406291D01*
X118020079Y-101379921D01*
X117993712Y-101347792D01*
X117974119Y-101311137D01*
X117974118Y-101311134D01*
X117962053Y-101271364D01*
X117957980Y-101230000D01*
X117962053Y-101188636D01*
X117974118Y-101148866D01*
X117974119Y-101148863D01*
X117993712Y-101112208D01*
X118020079Y-101080079D01*
X118052208Y-101053712D01*
X118052209Y-101053711D01*
X118052212Y-101053709D01*
X118096120Y-101030240D01*
X118116495Y-101016627D01*
X118133822Y-100999299D01*
X118147436Y-100978925D01*
X118156813Y-100956286D01*
X118161594Y-100932252D01*
X118161594Y-100907748D01*
X118156814Y-100883715D01*
X118147436Y-100861076D01*
X118133823Y-100840701D01*
X118116495Y-100823374D01*
X118096120Y-100809760D01*
X118052212Y-100786291D01*
X118020079Y-100759921D01*
X117993712Y-100727792D01*
X117974119Y-100691137D01*
X117974118Y-100691134D01*
X117962053Y-100651364D01*
X117957980Y-100610000D01*
X117962053Y-100568636D01*
X117974118Y-100528866D01*
X117974119Y-100528863D01*
X117993712Y-100492208D01*
X118020079Y-100460079D01*
X118052208Y-100433712D01*
X118052209Y-100433711D01*
X118052212Y-100433709D01*
X118096120Y-100410240D01*
X118116495Y-100396627D01*
X118133822Y-100379299D01*
X118147436Y-100358925D01*
X118156813Y-100336286D01*
X118161594Y-100312252D01*
X118161594Y-100287748D01*
X118156814Y-100263715D01*
X118147436Y-100241076D01*
X118133823Y-100220701D01*
X118116495Y-100203374D01*
X118096120Y-100189760D01*
X118052212Y-100166291D01*
X118020079Y-100139921D01*
X117993712Y-100107792D01*
X117974119Y-100071137D01*
X117974118Y-100071134D01*
X117962053Y-100031364D01*
X117957980Y-99990000D01*
X117962053Y-99948636D01*
X117974118Y-99908866D01*
X117974119Y-99908863D01*
X117993712Y-99872208D01*
X118020079Y-99840079D01*
X118052208Y-99813712D01*
X118052209Y-99813711D01*
X118052212Y-99813709D01*
X118096120Y-99790240D01*
X118116495Y-99776627D01*
X118133822Y-99759299D01*
X118147436Y-99738925D01*
X118156813Y-99716286D01*
X118161594Y-99692252D01*
X118161594Y-99667748D01*
X118156814Y-99643715D01*
X118147436Y-99621076D01*
X118133823Y-99600701D01*
X118116495Y-99583374D01*
X118096120Y-99569760D01*
X118052212Y-99546291D01*
X118020079Y-99519921D01*
X117993712Y-99487792D01*
X117974119Y-99451137D01*
X117974118Y-99451134D01*
X117962053Y-99411364D01*
X117957980Y-99370000D01*
X117962053Y-99328636D01*
X117974118Y-99288866D01*
X117974119Y-99288863D01*
X117993712Y-99252208D01*
X118020079Y-99220079D01*
X118052208Y-99193712D01*
X118052209Y-99193711D01*
X118052212Y-99193709D01*
X118096120Y-99170240D01*
X118116495Y-99156627D01*
X118133822Y-99139299D01*
X118147436Y-99118925D01*
X118156813Y-99096286D01*
X118161594Y-99072252D01*
X118161594Y-99047748D01*
X118156814Y-99023715D01*
X118147436Y-99001076D01*
X118133823Y-98980701D01*
X118116495Y-98963374D01*
X118096120Y-98949760D01*
X118052212Y-98926291D01*
X118045765Y-98921000D01*
X118020079Y-98899921D01*
X117993712Y-98867792D01*
X117974119Y-98831137D01*
X117974118Y-98831134D01*
X117962053Y-98791364D01*
X117957980Y-98750000D01*
X117962053Y-98708636D01*
X117974118Y-98668866D01*
X117974119Y-98668863D01*
X117993712Y-98632208D01*
X118020079Y-98600079D01*
X118052208Y-98573712D01*
X118052209Y-98573711D01*
X118052212Y-98573709D01*
X118096120Y-98550240D01*
X118116495Y-98536627D01*
X118133822Y-98519299D01*
X118147436Y-98498925D01*
X118156813Y-98476286D01*
X118161594Y-98452252D01*
X118161594Y-98427748D01*
X118156814Y-98403715D01*
X118147436Y-98381076D01*
X118133823Y-98360701D01*
X118116495Y-98343374D01*
X118096120Y-98329760D01*
X118052212Y-98306291D01*
X118020079Y-98279921D01*
X117993712Y-98247792D01*
X117974119Y-98211137D01*
X117974118Y-98211134D01*
X117962053Y-98171364D01*
X117957980Y-98130000D01*
X117962053Y-98088636D01*
X117974118Y-98048866D01*
X117974119Y-98048863D01*
X117993712Y-98012208D01*
X118020079Y-97980079D01*
X118052208Y-97953712D01*
X118052209Y-97953711D01*
X118052212Y-97953709D01*
X118096120Y-97930240D01*
X118116495Y-97916627D01*
X118133822Y-97899299D01*
X118147436Y-97878925D01*
X118156813Y-97856286D01*
X118161594Y-97832252D01*
X118161594Y-97807748D01*
X118156814Y-97783715D01*
X118147436Y-97761076D01*
X118133823Y-97740701D01*
X118116495Y-97723374D01*
X118096120Y-97709760D01*
X118052212Y-97686291D01*
X118020079Y-97659921D01*
X117993712Y-97627792D01*
X117974119Y-97591137D01*
X117974118Y-97591134D01*
X117962053Y-97551364D01*
X117957980Y-97510000D01*
X117962053Y-97468636D01*
X117974118Y-97428866D01*
X117974119Y-97428863D01*
X117993712Y-97392208D01*
X118020079Y-97360079D01*
X118052208Y-97333712D01*
X118052209Y-97333711D01*
X118052212Y-97333709D01*
X118096120Y-97310240D01*
X118116495Y-97296627D01*
X118133822Y-97279299D01*
X118147436Y-97258925D01*
X118156813Y-97236286D01*
X118161594Y-97212252D01*
X118161594Y-97187748D01*
X118156814Y-97163715D01*
X118147436Y-97141076D01*
X118133823Y-97120701D01*
X118116495Y-97103374D01*
X118096120Y-97089760D01*
X118052212Y-97066291D01*
X118020079Y-97039921D01*
X117993712Y-97007792D01*
X117974119Y-96971137D01*
X117974118Y-96971134D01*
X117962053Y-96931364D01*
X117957980Y-96890000D01*
X117962053Y-96848636D01*
X117974118Y-96808866D01*
X117974119Y-96808863D01*
X117993712Y-96772208D01*
X118020079Y-96740079D01*
X118052208Y-96713712D01*
X118052209Y-96713711D01*
X118052212Y-96713709D01*
X118096120Y-96690240D01*
X118116495Y-96676627D01*
X118133822Y-96659299D01*
X118147436Y-96638925D01*
X118156813Y-96616286D01*
X118161594Y-96592252D01*
X118161594Y-96567748D01*
X118156814Y-96543715D01*
X118147436Y-96521076D01*
X118133823Y-96500701D01*
X118116495Y-96483374D01*
X118096120Y-96469760D01*
X118052212Y-96446291D01*
X118051318Y-96445557D01*
X118020079Y-96419921D01*
X117993712Y-96387792D01*
X117974119Y-96351137D01*
X117974118Y-96351134D01*
X117962053Y-96311364D01*
X117957980Y-96270000D01*
X117962053Y-96228636D01*
X117974118Y-96188866D01*
X117974119Y-96188863D01*
X117993712Y-96152208D01*
X118020079Y-96120079D01*
X118052208Y-96093712D01*
X118052209Y-96093711D01*
X118052212Y-96093709D01*
X118096120Y-96070240D01*
X118116495Y-96056627D01*
X118133822Y-96039299D01*
X118147436Y-96018925D01*
X118156813Y-95996286D01*
X118161594Y-95972252D01*
X118161594Y-95947748D01*
X118156814Y-95923715D01*
X118147436Y-95901076D01*
X118133823Y-95880701D01*
X118116495Y-95863374D01*
X118096120Y-95849760D01*
X118052212Y-95826291D01*
X118020079Y-95799921D01*
X117993712Y-95767792D01*
X117974119Y-95731137D01*
X117974118Y-95731134D01*
X117962053Y-95691364D01*
X117957980Y-95650000D01*
X117962053Y-95608636D01*
X117974118Y-95568866D01*
X117974119Y-95568863D01*
X117993712Y-95532208D01*
X118020079Y-95500079D01*
X118052208Y-95473712D01*
X118088863Y-95454119D01*
X118088866Y-95454118D01*
X118128636Y-95442053D01*
X118159640Y-95439000D01*
X121860360Y-95439000D01*
X121891364Y-95442053D01*
X121891364Y-95442053D01*
G37*
G36*
X79485442Y-101467518D02*
X79551627Y-101474037D01*
X79649459Y-101503714D01*
X79721467Y-101525557D01*
X79816371Y-101576285D01*
X79877991Y-101609222D01*
X79911383Y-101636626D01*
X80015186Y-101721814D01*
X80098448Y-101823271D01*
X80127778Y-101859009D01*
X80127779Y-101859011D01*
X80211443Y-102015533D01*
X80211443Y-102015534D01*
X80262963Y-102185373D01*
X80280359Y-102362000D01*
X80262963Y-102538627D01*
X80248049Y-102587792D01*
X80211443Y-102708467D01*
X80192602Y-102743715D01*
X80127778Y-102864991D01*
X80103873Y-102894119D01*
X80015186Y-103002186D01*
X79913729Y-103085448D01*
X79877991Y-103114778D01*
X79877989Y-103114779D01*
X79721467Y-103198443D01*
X79664853Y-103215616D01*
X79551627Y-103249963D01*
X79485442Y-103256482D01*
X79419260Y-103263000D01*
X79330740Y-103263000D01*
X79264558Y-103256482D01*
X79198373Y-103249963D01*
X79085147Y-103215616D01*
X79028533Y-103198443D01*
X78872011Y-103114779D01*
X78872009Y-103114778D01*
X78836271Y-103085448D01*
X78734814Y-103002186D01*
X78646127Y-102894119D01*
X78622222Y-102864991D01*
X78557398Y-102743715D01*
X78538557Y-102708467D01*
X78501951Y-102587792D01*
X78487037Y-102538627D01*
X78469641Y-102362000D01*
X78487037Y-102185373D01*
X78538557Y-102015534D01*
X78538557Y-102015533D01*
X78622221Y-101859011D01*
X78622222Y-101859009D01*
X78651552Y-101823271D01*
X78734814Y-101721814D01*
X78838617Y-101636626D01*
X78872009Y-101609222D01*
X78933629Y-101576285D01*
X79028533Y-101525557D01*
X79100541Y-101503714D01*
X79198373Y-101474037D01*
X79264558Y-101467518D01*
X79330740Y-101461000D01*
X79419260Y-101461000D01*
X79485442Y-101467518D01*
X79485442Y-101467518D01*
G37*
G36*
X71865442Y-101467518D02*
X71931627Y-101474037D01*
X72029459Y-101503714D01*
X72101467Y-101525557D01*
X72196371Y-101576285D01*
X72257991Y-101609222D01*
X72291383Y-101636626D01*
X72395186Y-101721814D01*
X72478448Y-101823271D01*
X72507778Y-101859009D01*
X72507779Y-101859011D01*
X72591443Y-102015533D01*
X72591443Y-102015534D01*
X72642963Y-102185373D01*
X72660359Y-102362000D01*
X72642963Y-102538627D01*
X72628049Y-102587792D01*
X72591443Y-102708467D01*
X72572602Y-102743715D01*
X72507778Y-102864991D01*
X72483873Y-102894119D01*
X72395186Y-103002186D01*
X72293729Y-103085448D01*
X72257991Y-103114778D01*
X72257989Y-103114779D01*
X72101467Y-103198443D01*
X72044853Y-103215616D01*
X71931627Y-103249963D01*
X71865442Y-103256482D01*
X71799260Y-103263000D01*
X71710740Y-103263000D01*
X71644558Y-103256482D01*
X71578373Y-103249963D01*
X71465147Y-103215616D01*
X71408533Y-103198443D01*
X71252011Y-103114779D01*
X71252009Y-103114778D01*
X71216271Y-103085448D01*
X71114814Y-103002186D01*
X71026127Y-102894119D01*
X71002222Y-102864991D01*
X70937398Y-102743715D01*
X70918557Y-102708467D01*
X70881951Y-102587792D01*
X70867037Y-102538627D01*
X70849641Y-102362000D01*
X70867037Y-102185373D01*
X70918557Y-102015534D01*
X70918557Y-102015533D01*
X71002221Y-101859011D01*
X71002222Y-101859009D01*
X71031552Y-101823271D01*
X71114814Y-101721814D01*
X71218617Y-101636626D01*
X71252009Y-101609222D01*
X71313629Y-101576285D01*
X71408533Y-101525557D01*
X71480541Y-101503714D01*
X71578373Y-101474037D01*
X71644558Y-101467518D01*
X71710740Y-101461000D01*
X71799260Y-101461000D01*
X71865442Y-101467518D01*
X71865442Y-101467518D01*
G37*
G36*
X144791000Y-102396000D02*
X142189000Y-102396000D01*
X142189000Y-101294000D01*
X144791000Y-101294000D01*
X144791000Y-102396000D01*
X144791000Y-102396000D01*
G37*
G36*
X129591000Y-102396000D02*
X126989000Y-102396000D01*
X126989000Y-101294000D01*
X129591000Y-101294000D01*
X129591000Y-102396000D01*
X129591000Y-102396000D01*
G37*
G36*
X71865442Y-98927518D02*
X71931627Y-98934037D01*
X72020512Y-98961000D01*
X72101467Y-98985557D01*
X72217816Y-99047748D01*
X72257991Y-99069222D01*
X72290967Y-99096285D01*
X72395186Y-99181814D01*
X72478448Y-99283271D01*
X72507778Y-99319009D01*
X72507779Y-99319011D01*
X72591443Y-99475533D01*
X72604908Y-99519921D01*
X72642963Y-99645373D01*
X72660359Y-99822000D01*
X72642963Y-99998627D01*
X72633032Y-100031364D01*
X72591443Y-100168467D01*
X72540531Y-100263715D01*
X72507778Y-100324991D01*
X72498509Y-100336285D01*
X72395186Y-100462186D01*
X72313935Y-100528866D01*
X72257991Y-100574778D01*
X72257989Y-100574779D01*
X72101467Y-100658443D01*
X72044853Y-100675616D01*
X71931627Y-100709963D01*
X71865443Y-100716481D01*
X71799260Y-100723000D01*
X71710740Y-100723000D01*
X71644558Y-100716482D01*
X71578373Y-100709963D01*
X71465147Y-100675616D01*
X71408533Y-100658443D01*
X71252011Y-100574779D01*
X71252009Y-100574778D01*
X71196065Y-100528866D01*
X71114814Y-100462186D01*
X71011491Y-100336285D01*
X71002222Y-100324991D01*
X70969469Y-100263715D01*
X70918557Y-100168467D01*
X70876968Y-100031364D01*
X70867037Y-99998627D01*
X70849641Y-99822000D01*
X70867037Y-99645373D01*
X70905092Y-99519921D01*
X70918557Y-99475533D01*
X71002221Y-99319011D01*
X71002222Y-99319009D01*
X71031552Y-99283271D01*
X71114814Y-99181814D01*
X71219033Y-99096285D01*
X71252009Y-99069222D01*
X71292184Y-99047748D01*
X71408533Y-98985557D01*
X71489488Y-98961000D01*
X71578373Y-98934037D01*
X71644557Y-98927519D01*
X71710740Y-98921000D01*
X71799260Y-98921000D01*
X71865442Y-98927518D01*
X71865442Y-98927518D01*
G37*
G36*
X79485442Y-98927518D02*
X79551627Y-98934037D01*
X79640512Y-98961000D01*
X79721467Y-98985557D01*
X79837816Y-99047748D01*
X79877991Y-99069222D01*
X79910967Y-99096285D01*
X80015186Y-99181814D01*
X80098448Y-99283271D01*
X80127778Y-99319009D01*
X80127779Y-99319011D01*
X80211443Y-99475533D01*
X80224908Y-99519921D01*
X80262963Y-99645373D01*
X80280359Y-99822000D01*
X80262963Y-99998627D01*
X80253032Y-100031364D01*
X80211443Y-100168467D01*
X80160531Y-100263715D01*
X80127778Y-100324991D01*
X80118509Y-100336285D01*
X80015186Y-100462186D01*
X79933935Y-100528866D01*
X79877991Y-100574778D01*
X79877989Y-100574779D01*
X79721467Y-100658443D01*
X79664853Y-100675616D01*
X79551627Y-100709963D01*
X79485443Y-100716481D01*
X79419260Y-100723000D01*
X79330740Y-100723000D01*
X79264558Y-100716482D01*
X79198373Y-100709963D01*
X79085147Y-100675616D01*
X79028533Y-100658443D01*
X78872011Y-100574779D01*
X78872009Y-100574778D01*
X78816065Y-100528866D01*
X78734814Y-100462186D01*
X78631491Y-100336285D01*
X78622222Y-100324991D01*
X78589469Y-100263715D01*
X78538557Y-100168467D01*
X78496968Y-100031364D01*
X78487037Y-99998627D01*
X78469641Y-99822000D01*
X78487037Y-99645373D01*
X78525092Y-99519921D01*
X78538557Y-99475533D01*
X78622221Y-99319011D01*
X78622222Y-99319009D01*
X78651552Y-99283271D01*
X78734814Y-99181814D01*
X78839033Y-99096285D01*
X78872009Y-99069222D01*
X78912184Y-99047748D01*
X79028533Y-98985557D01*
X79109488Y-98961000D01*
X79198373Y-98934037D01*
X79264557Y-98927519D01*
X79330740Y-98921000D01*
X79419260Y-98921000D01*
X79485442Y-98927518D01*
X79485442Y-98927518D01*
G37*
G36*
X129591000Y-100396000D02*
X126989000Y-100396000D01*
X126989000Y-99294000D01*
X129591000Y-99294000D01*
X129591000Y-100396000D01*
X129591000Y-100396000D01*
G37*
G36*
X144791000Y-100396000D02*
X142189000Y-100396000D01*
X142189000Y-99294000D01*
X144791000Y-99294000D01*
X144791000Y-100396000D01*
X144791000Y-100396000D01*
G37*
G36*
X144791000Y-98396000D02*
X142189000Y-98396000D01*
X142189000Y-97294000D01*
X144791000Y-97294000D01*
X144791000Y-98396000D01*
X144791000Y-98396000D01*
G37*
G36*
X129591000Y-98396000D02*
X126989000Y-98396000D01*
X126989000Y-97294000D01*
X129591000Y-97294000D01*
X129591000Y-98396000D01*
X129591000Y-98396000D01*
G37*
G36*
X71865442Y-96387518D02*
X71931627Y-96394037D01*
X72016955Y-96419921D01*
X72101467Y-96445557D01*
X72240087Y-96519652D01*
X72257991Y-96529222D01*
X72293729Y-96558552D01*
X72395186Y-96641814D01*
X72454190Y-96713712D01*
X72507778Y-96779009D01*
X72507779Y-96779011D01*
X72591443Y-96935533D01*
X72591443Y-96935534D01*
X72642963Y-97105373D01*
X72660359Y-97282000D01*
X72642963Y-97458627D01*
X72608616Y-97571853D01*
X72591443Y-97628467D01*
X72560535Y-97686291D01*
X72507778Y-97784991D01*
X72478448Y-97820729D01*
X72395186Y-97922186D01*
X72293729Y-98005448D01*
X72257991Y-98034778D01*
X72257989Y-98034779D01*
X72101467Y-98118443D01*
X72063368Y-98130000D01*
X71931627Y-98169963D01*
X71865443Y-98176481D01*
X71799260Y-98183000D01*
X71710740Y-98183000D01*
X71644557Y-98176481D01*
X71578373Y-98169963D01*
X71446632Y-98130000D01*
X71408533Y-98118443D01*
X71252011Y-98034779D01*
X71252009Y-98034778D01*
X71216271Y-98005448D01*
X71114814Y-97922186D01*
X71031552Y-97820729D01*
X71002222Y-97784991D01*
X70949465Y-97686291D01*
X70918557Y-97628467D01*
X70901384Y-97571853D01*
X70867037Y-97458627D01*
X70849641Y-97282000D01*
X70867037Y-97105373D01*
X70918557Y-96935534D01*
X70918557Y-96935533D01*
X71002221Y-96779011D01*
X71002222Y-96779009D01*
X71055810Y-96713712D01*
X71114814Y-96641814D01*
X71216271Y-96558552D01*
X71252009Y-96529222D01*
X71269913Y-96519652D01*
X71408533Y-96445557D01*
X71493045Y-96419921D01*
X71578373Y-96394037D01*
X71644558Y-96387518D01*
X71710740Y-96381000D01*
X71799260Y-96381000D01*
X71865442Y-96387518D01*
X71865442Y-96387518D01*
G37*
G36*
X79485442Y-96387518D02*
X79551627Y-96394037D01*
X79636955Y-96419921D01*
X79721467Y-96445557D01*
X79860087Y-96519652D01*
X79877991Y-96529222D01*
X79913729Y-96558552D01*
X80015186Y-96641814D01*
X80074190Y-96713712D01*
X80127778Y-96779009D01*
X80127779Y-96779011D01*
X80211443Y-96935533D01*
X80211443Y-96935534D01*
X80262963Y-97105373D01*
X80280359Y-97282000D01*
X80262963Y-97458627D01*
X80228616Y-97571853D01*
X80211443Y-97628467D01*
X80180535Y-97686291D01*
X80127778Y-97784991D01*
X80098448Y-97820729D01*
X80015186Y-97922186D01*
X79913729Y-98005448D01*
X79877991Y-98034778D01*
X79877989Y-98034779D01*
X79721467Y-98118443D01*
X79683368Y-98130000D01*
X79551627Y-98169963D01*
X79485442Y-98176482D01*
X79419260Y-98183000D01*
X79330740Y-98183000D01*
X79264557Y-98176481D01*
X79198373Y-98169963D01*
X79066632Y-98130000D01*
X79028533Y-98118443D01*
X78872011Y-98034779D01*
X78872009Y-98034778D01*
X78836271Y-98005448D01*
X78734814Y-97922186D01*
X78651552Y-97820729D01*
X78622222Y-97784991D01*
X78569465Y-97686291D01*
X78538557Y-97628467D01*
X78521384Y-97571853D01*
X78487037Y-97458627D01*
X78469641Y-97282000D01*
X78487037Y-97105373D01*
X78538557Y-96935534D01*
X78538557Y-96935533D01*
X78622221Y-96779011D01*
X78622222Y-96779009D01*
X78675810Y-96713712D01*
X78734814Y-96641814D01*
X78836271Y-96558552D01*
X78872009Y-96529222D01*
X78889913Y-96519652D01*
X79028533Y-96445557D01*
X79113045Y-96419921D01*
X79198373Y-96394037D01*
X79264558Y-96387518D01*
X79330740Y-96381000D01*
X79419260Y-96381000D01*
X79485442Y-96387518D01*
X79485442Y-96387518D01*
G37*
G36*
X76916000Y-97983000D02*
X76114000Y-97983000D01*
X76114000Y-96581000D01*
X76916000Y-96581000D01*
X76916000Y-97983000D01*
X76916000Y-97983000D01*
G37*
G36*
X75016000Y-97983000D02*
X74214000Y-97983000D01*
X74214000Y-96581000D01*
X75016000Y-96581000D01*
X75016000Y-97983000D01*
X75016000Y-97983000D01*
G37*
G36*
X144791000Y-96396000D02*
X142189000Y-96396000D01*
X142189000Y-95294000D01*
X144791000Y-95294000D01*
X144791000Y-96396000D01*
X144791000Y-96396000D01*
G37*
G36*
X129591000Y-96396000D02*
X126989000Y-96396000D01*
X126989000Y-95294000D01*
X129591000Y-95294000D01*
X129591000Y-96396000D01*
X129591000Y-96396000D01*
G37*
G36*
X72656000Y-95643000D02*
X70854000Y-95643000D01*
X70854000Y-93841000D01*
X72656000Y-93841000D01*
X72656000Y-95643000D01*
X72656000Y-95643000D01*
G37*
G36*
X80276000Y-95643000D02*
X78474000Y-95643000D01*
X78474000Y-93841000D01*
X80276000Y-93841000D01*
X80276000Y-95643000D01*
X80276000Y-95643000D01*
G37*
G36*
X76916000Y-95443000D02*
X76114000Y-95443000D01*
X76114000Y-94041000D01*
X76916000Y-94041000D01*
X76916000Y-95443000D01*
X76916000Y-95443000D01*
G37*
G36*
X75016000Y-95443000D02*
X74214000Y-95443000D01*
X74214000Y-94041000D01*
X75016000Y-94041000D01*
X75016000Y-95443000D01*
X75016000Y-95443000D01*
G37*
G36*
X129591000Y-94396000D02*
X126989000Y-94396000D01*
X126989000Y-93294000D01*
X129591000Y-93294000D01*
X129591000Y-94396000D01*
X129591000Y-94396000D01*
G37*
G36*
X144791000Y-94396000D02*
X142189000Y-94396000D01*
X142189000Y-93294000D01*
X144791000Y-93294000D01*
X144791000Y-94396000D01*
X144791000Y-94396000D01*
G37*
G36*
X123452198Y-91382954D02*
X123464450Y-91383556D01*
X123482869Y-91383556D01*
X123505149Y-91385750D01*
X123589236Y-91402476D01*
X123610655Y-91408974D01*
X123689871Y-91441785D01*
X123709607Y-91452335D01*
X123780897Y-91499969D01*
X123798208Y-91514176D01*
X123858824Y-91574792D01*
X123873031Y-91592103D01*
X123920665Y-91663393D01*
X123931215Y-91683129D01*
X123964026Y-91762345D01*
X123970524Y-91783764D01*
X123987250Y-91867851D01*
X123989444Y-91890131D01*
X123989444Y-91908550D01*
X123990046Y-91920802D01*
X123991852Y-91939140D01*
X123991852Y-92426860D01*
X123990263Y-92442999D01*
X123987347Y-92452611D01*
X123982612Y-92461469D01*
X123976237Y-92469237D01*
X123963798Y-92479446D01*
X123953432Y-92486372D01*
X123936105Y-92503698D01*
X123922490Y-92524073D01*
X123913112Y-92546711D01*
X123908331Y-92570745D01*
X123908331Y-92595249D01*
X123913111Y-92619283D01*
X123922487Y-92641922D01*
X123936101Y-92662297D01*
X123953427Y-92679624D01*
X123963796Y-92686552D01*
X123976237Y-92696763D01*
X123982612Y-92704531D01*
X123987347Y-92713389D01*
X123990263Y-92723001D01*
X123991852Y-92739140D01*
X123991852Y-93226861D01*
X123990046Y-93245198D01*
X123989444Y-93257450D01*
X123989444Y-93275869D01*
X123987250Y-93298149D01*
X123970524Y-93382236D01*
X123964026Y-93403655D01*
X123931215Y-93482871D01*
X123920665Y-93502607D01*
X123873031Y-93573897D01*
X123858824Y-93591208D01*
X123798208Y-93651824D01*
X123780897Y-93666031D01*
X123709607Y-93713665D01*
X123689871Y-93724215D01*
X123610655Y-93757026D01*
X123589236Y-93763524D01*
X123505149Y-93780250D01*
X123482869Y-93782444D01*
X123464450Y-93782444D01*
X123452198Y-93783046D01*
X123433861Y-93784852D01*
X122946139Y-93784852D01*
X122927802Y-93783046D01*
X122915550Y-93782444D01*
X122897131Y-93782444D01*
X122874851Y-93780250D01*
X122790764Y-93763524D01*
X122769345Y-93757026D01*
X122690129Y-93724215D01*
X122670393Y-93713665D01*
X122599103Y-93666031D01*
X122581792Y-93651824D01*
X122521176Y-93591208D01*
X122506969Y-93573897D01*
X122459335Y-93502607D01*
X122448785Y-93482871D01*
X122415974Y-93403655D01*
X122409476Y-93382236D01*
X122392750Y-93298149D01*
X122390556Y-93275869D01*
X122390556Y-93257450D01*
X122389954Y-93245198D01*
X122388148Y-93226861D01*
X122388148Y-92739140D01*
X122389737Y-92723001D01*
X122392653Y-92713389D01*
X122397388Y-92704531D01*
X122403763Y-92696763D01*
X122416202Y-92686554D01*
X122426568Y-92679628D01*
X122443895Y-92662302D01*
X122457510Y-92641927D01*
X122466888Y-92619289D01*
X122471669Y-92595255D01*
X122471669Y-92570751D01*
X122466889Y-92546717D01*
X122457513Y-92524078D01*
X122443899Y-92503703D01*
X122426573Y-92486376D01*
X122416204Y-92479448D01*
X122403763Y-92469237D01*
X122397388Y-92461469D01*
X122392653Y-92452611D01*
X122389737Y-92442999D01*
X122388148Y-92426860D01*
X122388148Y-91939140D01*
X122389954Y-91920802D01*
X122390556Y-91908550D01*
X122390556Y-91890131D01*
X122392750Y-91867851D01*
X122409476Y-91783764D01*
X122415974Y-91762345D01*
X122448785Y-91683129D01*
X122459335Y-91663393D01*
X122506969Y-91592103D01*
X122521176Y-91574792D01*
X122581792Y-91514176D01*
X122599103Y-91499969D01*
X122670393Y-91452335D01*
X122690129Y-91441785D01*
X122769345Y-91408974D01*
X122790764Y-91402476D01*
X122874851Y-91385750D01*
X122897131Y-91383556D01*
X122915550Y-91383556D01*
X122927802Y-91382954D01*
X122946140Y-91381148D01*
X123433860Y-91381148D01*
X123452198Y-91382954D01*
X123452198Y-91382954D01*
G37*
G36*
X120912198Y-91382954D02*
X120924450Y-91383556D01*
X120942869Y-91383556D01*
X120965149Y-91385750D01*
X121049236Y-91402476D01*
X121070655Y-91408974D01*
X121149871Y-91441785D01*
X121169607Y-91452335D01*
X121240897Y-91499969D01*
X121258208Y-91514176D01*
X121318824Y-91574792D01*
X121333031Y-91592103D01*
X121380665Y-91663393D01*
X121391215Y-91683129D01*
X121424026Y-91762345D01*
X121430524Y-91783764D01*
X121447250Y-91867851D01*
X121449444Y-91890131D01*
X121449444Y-91908550D01*
X121450046Y-91920802D01*
X121451852Y-91939140D01*
X121451852Y-92426860D01*
X121450263Y-92442999D01*
X121447347Y-92452611D01*
X121442612Y-92461469D01*
X121436237Y-92469237D01*
X121423798Y-92479446D01*
X121413432Y-92486372D01*
X121396105Y-92503698D01*
X121382490Y-92524073D01*
X121373112Y-92546711D01*
X121368331Y-92570745D01*
X121368331Y-92595249D01*
X121373111Y-92619283D01*
X121382487Y-92641922D01*
X121396101Y-92662297D01*
X121413427Y-92679624D01*
X121423796Y-92686552D01*
X121436237Y-92696763D01*
X121442612Y-92704531D01*
X121447347Y-92713389D01*
X121450263Y-92723001D01*
X121451852Y-92739140D01*
X121451852Y-93226861D01*
X121450046Y-93245198D01*
X121449444Y-93257450D01*
X121449444Y-93275869D01*
X121447250Y-93298149D01*
X121430524Y-93382236D01*
X121424026Y-93403655D01*
X121391215Y-93482871D01*
X121380665Y-93502607D01*
X121333031Y-93573897D01*
X121318824Y-93591208D01*
X121258208Y-93651824D01*
X121240897Y-93666031D01*
X121169607Y-93713665D01*
X121149871Y-93724215D01*
X121070655Y-93757026D01*
X121049236Y-93763524D01*
X120965149Y-93780250D01*
X120942869Y-93782444D01*
X120924450Y-93782444D01*
X120912198Y-93783046D01*
X120893861Y-93784852D01*
X120406139Y-93784852D01*
X120387802Y-93783046D01*
X120375550Y-93782444D01*
X120357131Y-93782444D01*
X120334851Y-93780250D01*
X120250764Y-93763524D01*
X120229345Y-93757026D01*
X120150129Y-93724215D01*
X120130393Y-93713665D01*
X120059103Y-93666031D01*
X120041792Y-93651824D01*
X119981176Y-93591208D01*
X119966969Y-93573897D01*
X119919335Y-93502607D01*
X119908785Y-93482871D01*
X119875974Y-93403655D01*
X119869476Y-93382236D01*
X119852750Y-93298149D01*
X119850556Y-93275869D01*
X119850556Y-93257450D01*
X119849954Y-93245198D01*
X119848148Y-93226861D01*
X119848148Y-92739140D01*
X119849737Y-92723001D01*
X119852653Y-92713389D01*
X119857388Y-92704531D01*
X119863763Y-92696763D01*
X119876202Y-92686554D01*
X119886568Y-92679628D01*
X119903895Y-92662302D01*
X119917510Y-92641927D01*
X119926888Y-92619289D01*
X119931669Y-92595255D01*
X119931669Y-92570751D01*
X119926889Y-92546717D01*
X119917513Y-92524078D01*
X119903899Y-92503703D01*
X119886573Y-92486376D01*
X119876204Y-92479448D01*
X119863763Y-92469237D01*
X119857388Y-92461469D01*
X119852653Y-92452611D01*
X119849737Y-92442999D01*
X119848148Y-92426860D01*
X119848148Y-91939140D01*
X119849954Y-91920802D01*
X119850556Y-91908550D01*
X119850556Y-91890131D01*
X119852750Y-91867851D01*
X119869476Y-91783764D01*
X119875974Y-91762345D01*
X119908785Y-91683129D01*
X119919335Y-91663393D01*
X119966969Y-91592103D01*
X119981176Y-91574792D01*
X120041792Y-91514176D01*
X120059103Y-91499969D01*
X120130393Y-91452335D01*
X120150129Y-91441785D01*
X120229345Y-91408974D01*
X120250764Y-91402476D01*
X120334851Y-91385750D01*
X120357131Y-91383556D01*
X120375550Y-91383556D01*
X120387802Y-91382954D01*
X120406140Y-91381148D01*
X120893860Y-91381148D01*
X120912198Y-91382954D01*
X120912198Y-91382954D01*
G37*
G36*
X129591000Y-92396000D02*
X126989000Y-92396000D01*
X126989000Y-91294000D01*
X129591000Y-91294000D01*
X129591000Y-92396000D01*
X129591000Y-92396000D01*
G37*
G36*
X144791000Y-92396000D02*
X142189000Y-92396000D01*
X142189000Y-91294000D01*
X144791000Y-91294000D01*
X144791000Y-92396000D01*
X144791000Y-92396000D01*
G37*
G36*
X80051000Y-91721000D02*
X78699000Y-91721000D01*
X78699000Y-90619000D01*
X80051000Y-90619000D01*
X80051000Y-91721000D01*
X80051000Y-91721000D01*
G37*
G36*
X76266000Y-91521000D02*
X74864000Y-91521000D01*
X74864000Y-90719000D01*
X76266000Y-90719000D01*
X76266000Y-91521000D01*
X76266000Y-91521000D01*
G37*
G36*
X103546000Y-90451000D02*
X102194000Y-90451000D01*
X102194000Y-89349000D01*
X103546000Y-89349000D01*
X103546000Y-90451000D01*
X103546000Y-90451000D01*
G37*
G36*
X116246000Y-90451000D02*
X114894000Y-90451000D01*
X114894000Y-89349000D01*
X116246000Y-89349000D01*
X116246000Y-90451000D01*
X116246000Y-90451000D01*
G37*
G36*
X113706000Y-90451000D02*
X112354000Y-90451000D01*
X112354000Y-89349000D01*
X113706000Y-89349000D01*
X113706000Y-90451000D01*
X113706000Y-90451000D01*
G37*
G36*
X106086000Y-90451000D02*
X104734000Y-90451000D01*
X104734000Y-89349000D01*
X106086000Y-89349000D01*
X106086000Y-90451000D01*
X106086000Y-90451000D01*
G37*
G36*
X95926000Y-90451000D02*
X94574000Y-90451000D01*
X94574000Y-89349000D01*
X95926000Y-89349000D01*
X95926000Y-90451000D01*
X95926000Y-90451000D01*
G37*
G36*
X101006000Y-90451000D02*
X99654000Y-90451000D01*
X99654000Y-89349000D01*
X101006000Y-89349000D01*
X101006000Y-90451000D01*
X101006000Y-90451000D01*
G37*
G36*
X98466000Y-90451000D02*
X97114000Y-90451000D01*
X97114000Y-89349000D01*
X98466000Y-89349000D01*
X98466000Y-90451000D01*
X98466000Y-90451000D01*
G37*
G36*
X129591000Y-90396000D02*
X126989000Y-90396000D01*
X126989000Y-89294000D01*
X129591000Y-89294000D01*
X129591000Y-90396000D01*
X129591000Y-90396000D01*
G37*
G36*
X144791000Y-90396000D02*
X142189000Y-90396000D01*
X142189000Y-89294000D01*
X144791000Y-89294000D01*
X144791000Y-90396000D01*
X144791000Y-90396000D01*
G37*
G36*
X121421000Y-90301000D02*
X120419000Y-90301000D01*
X120419000Y-89399000D01*
X121421000Y-89399000D01*
X121421000Y-90301000D01*
X121421000Y-90301000D01*
G37*
G36*
X118811000Y-90251000D02*
X117409000Y-90251000D01*
X117409000Y-89449000D01*
X118811000Y-89449000D01*
X118811000Y-90251000D01*
X118811000Y-90251000D01*
G37*
G36*
X111191000Y-90251000D02*
X109789000Y-90251000D01*
X109789000Y-89449000D01*
X111191000Y-89449000D01*
X111191000Y-90251000D01*
X111191000Y-90251000D01*
G37*
G36*
X126431000Y-90251000D02*
X125029000Y-90251000D01*
X125029000Y-89449000D01*
X126431000Y-89449000D01*
X126431000Y-90251000D01*
X126431000Y-90251000D01*
G37*
G36*
X108651000Y-90251000D02*
X107249000Y-90251000D01*
X107249000Y-89449000D01*
X108651000Y-89449000D01*
X108651000Y-90251000D01*
X108651000Y-90251000D01*
G37*
G36*
X93411000Y-90251000D02*
X92009000Y-90251000D01*
X92009000Y-89449000D01*
X93411000Y-89449000D01*
X93411000Y-90251000D01*
X93411000Y-90251000D01*
G37*
G36*
X80051000Y-89721000D02*
X78699000Y-89721000D01*
X78699000Y-88619000D01*
X80051000Y-88619000D01*
X80051000Y-89721000D01*
X80051000Y-89721000D01*
G37*
G36*
X76266000Y-89621000D02*
X74864000Y-89621000D01*
X74864000Y-88819000D01*
X76266000Y-88819000D01*
X76266000Y-89621000D01*
X76266000Y-89621000D01*
G37*
G36*
X123421000Y-89351000D02*
X122419000Y-89351000D01*
X122419000Y-88449000D01*
X123421000Y-88449000D01*
X123421000Y-89351000D01*
X123421000Y-89351000D01*
G37*
G36*
X95926000Y-88451000D02*
X94574000Y-88451000D01*
X94574000Y-87349000D01*
X95926000Y-87349000D01*
X95926000Y-88451000D01*
X95926000Y-88451000D01*
G37*
G36*
X98466000Y-88451000D02*
X97114000Y-88451000D01*
X97114000Y-87349000D01*
X98466000Y-87349000D01*
X98466000Y-88451000D01*
X98466000Y-88451000D01*
G37*
G36*
X101006000Y-88451000D02*
X99654000Y-88451000D01*
X99654000Y-87349000D01*
X101006000Y-87349000D01*
X101006000Y-88451000D01*
X101006000Y-88451000D01*
G37*
G36*
X103546000Y-88451000D02*
X102194000Y-88451000D01*
X102194000Y-87349000D01*
X103546000Y-87349000D01*
X103546000Y-88451000D01*
X103546000Y-88451000D01*
G37*
G36*
X106086000Y-88451000D02*
X104734000Y-88451000D01*
X104734000Y-87349000D01*
X106086000Y-87349000D01*
X106086000Y-88451000D01*
X106086000Y-88451000D01*
G37*
G36*
X113706000Y-88451000D02*
X112354000Y-88451000D01*
X112354000Y-87349000D01*
X113706000Y-87349000D01*
X113706000Y-88451000D01*
X113706000Y-88451000D01*
G37*
G36*
X116246000Y-88451000D02*
X114894000Y-88451000D01*
X114894000Y-87349000D01*
X116246000Y-87349000D01*
X116246000Y-88451000D01*
X116246000Y-88451000D01*
G37*
G36*
X121421000Y-88401000D02*
X120419000Y-88401000D01*
X120419000Y-87499000D01*
X121421000Y-87499000D01*
X121421000Y-88401000D01*
X121421000Y-88401000D01*
G37*
G36*
X118811000Y-88351000D02*
X117409000Y-88351000D01*
X117409000Y-87549000D01*
X118811000Y-87549000D01*
X118811000Y-88351000D01*
X118811000Y-88351000D01*
G37*
G36*
X126431000Y-88351000D02*
X125029000Y-88351000D01*
X125029000Y-87549000D01*
X126431000Y-87549000D01*
X126431000Y-88351000D01*
X126431000Y-88351000D01*
G37*
G36*
X93411000Y-88351000D02*
X92009000Y-88351000D01*
X92009000Y-87549000D01*
X93411000Y-87549000D01*
X93411000Y-88351000D01*
X93411000Y-88351000D01*
G37*
G36*
X111191000Y-88351000D02*
X109789000Y-88351000D01*
X109789000Y-87549000D01*
X111191000Y-87549000D01*
X111191000Y-88351000D01*
X111191000Y-88351000D01*
G37*
G36*
X108651000Y-88351000D02*
X107249000Y-88351000D01*
X107249000Y-87549000D01*
X108651000Y-87549000D01*
X108651000Y-88351000D01*
X108651000Y-88351000D01*
G37*
G36*
X89776876Y-85925479D02*
X89887337Y-85958987D01*
X89989136Y-86013400D01*
X89989138Y-86013402D01*
X90078369Y-86086631D01*
X90093089Y-86104568D01*
X90151599Y-86175860D01*
X90206013Y-86277662D01*
X90239521Y-86388123D01*
X90248000Y-86474214D01*
X90248000Y-87261786D01*
X90239521Y-87347877D01*
X90206013Y-87458338D01*
X90151600Y-87560137D01*
X90078369Y-87649369D01*
X89989137Y-87722600D01*
X89887338Y-87777013D01*
X89776877Y-87810521D01*
X89662000Y-87821835D01*
X89547124Y-87810521D01*
X89436663Y-87777013D01*
X89334864Y-87722600D01*
X89245632Y-87649369D01*
X89172401Y-87560137D01*
X89136126Y-87492271D01*
X89117988Y-87458337D01*
X89108035Y-87425526D01*
X89098657Y-87402888D01*
X89085043Y-87382513D01*
X89067716Y-87365186D01*
X89047341Y-87351573D01*
X89024702Y-87342196D01*
X89000668Y-87337416D01*
X88976164Y-87337416D01*
X88952131Y-87342197D01*
X88929492Y-87351575D01*
X88909117Y-87365189D01*
X88884484Y-87392368D01*
X88840031Y-87458898D01*
X88825824Y-87476208D01*
X88765208Y-87536824D01*
X88747897Y-87551031D01*
X88676607Y-87598665D01*
X88656871Y-87609215D01*
X88577655Y-87642026D01*
X88556236Y-87648524D01*
X88472149Y-87665250D01*
X88449869Y-87667444D01*
X88431450Y-87667444D01*
X88419198Y-87668046D01*
X88400861Y-87669852D01*
X87913140Y-87669852D01*
X87897001Y-87668263D01*
X87887389Y-87665347D01*
X87878531Y-87660612D01*
X87870763Y-87654237D01*
X87860554Y-87641798D01*
X87853628Y-87631432D01*
X87836302Y-87614105D01*
X87815927Y-87600490D01*
X87793289Y-87591112D01*
X87769255Y-87586331D01*
X87744751Y-87586331D01*
X87720717Y-87591111D01*
X87698078Y-87600487D01*
X87677703Y-87614101D01*
X87660376Y-87631427D01*
X87653448Y-87641796D01*
X87643237Y-87654237D01*
X87635469Y-87660612D01*
X87626611Y-87665347D01*
X87616999Y-87668263D01*
X87600860Y-87669852D01*
X87113139Y-87669852D01*
X87094802Y-87668046D01*
X87082550Y-87667444D01*
X87064131Y-87667444D01*
X87041851Y-87665250D01*
X86957764Y-87648524D01*
X86936345Y-87642026D01*
X86857129Y-87609215D01*
X86837393Y-87598665D01*
X86766103Y-87551031D01*
X86748792Y-87536824D01*
X86688176Y-87476208D01*
X86673972Y-87458900D01*
X86666935Y-87448369D01*
X86651390Y-87429427D01*
X86632448Y-87413881D01*
X86610837Y-87402330D01*
X86587388Y-87395216D01*
X86563002Y-87392814D01*
X86538615Y-87395216D01*
X86515166Y-87402328D01*
X86493555Y-87413879D01*
X86474613Y-87429424D01*
X86459067Y-87448366D01*
X86447516Y-87469977D01*
X86440402Y-87493426D01*
X86438000Y-87517814D01*
X86438000Y-87819000D01*
X85266000Y-87819000D01*
X85266000Y-85917000D01*
X86438000Y-85917000D01*
X86438000Y-86218186D01*
X86440402Y-86242572D01*
X86447515Y-86266021D01*
X86459066Y-86287632D01*
X86474612Y-86306574D01*
X86493554Y-86322120D01*
X86515165Y-86333671D01*
X86538614Y-86340784D01*
X86563000Y-86343186D01*
X86587386Y-86340784D01*
X86610835Y-86333671D01*
X86632446Y-86322120D01*
X86651388Y-86306574D01*
X86666935Y-86287631D01*
X86673972Y-86277100D01*
X86688176Y-86259792D01*
X86748792Y-86199176D01*
X86766103Y-86184969D01*
X86837393Y-86137335D01*
X86857129Y-86126785D01*
X86936345Y-86093974D01*
X86957764Y-86087476D01*
X87041851Y-86070750D01*
X87064131Y-86068556D01*
X87082550Y-86068556D01*
X87094802Y-86067954D01*
X87113140Y-86066148D01*
X87600860Y-86066148D01*
X87616999Y-86067737D01*
X87626611Y-86070653D01*
X87635469Y-86075388D01*
X87643237Y-86081763D01*
X87653446Y-86094202D01*
X87660372Y-86104568D01*
X87677698Y-86121895D01*
X87698073Y-86135510D01*
X87720711Y-86144888D01*
X87744745Y-86149669D01*
X87769249Y-86149669D01*
X87793283Y-86144889D01*
X87815922Y-86135513D01*
X87836297Y-86121899D01*
X87853624Y-86104573D01*
X87860552Y-86094204D01*
X87870763Y-86081763D01*
X87878531Y-86075388D01*
X87887389Y-86070653D01*
X87897001Y-86067737D01*
X87913140Y-86066148D01*
X88400860Y-86066148D01*
X88419198Y-86067954D01*
X88431450Y-86068556D01*
X88449869Y-86068556D01*
X88472149Y-86070750D01*
X88556236Y-86087476D01*
X88577655Y-86093974D01*
X88656871Y-86126785D01*
X88676607Y-86137335D01*
X88747897Y-86184969D01*
X88765208Y-86199176D01*
X88825824Y-86259792D01*
X88840031Y-86277102D01*
X88884484Y-86343632D01*
X88900029Y-86362574D01*
X88918971Y-86378119D01*
X88940582Y-86389671D01*
X88964031Y-86396784D01*
X88988418Y-86399186D01*
X89012804Y-86396784D01*
X89036253Y-86389671D01*
X89057864Y-86378120D01*
X89076806Y-86362575D01*
X89092351Y-86343633D01*
X89103903Y-86322022D01*
X89108035Y-86310472D01*
X89117987Y-86277663D01*
X89172400Y-86175864D01*
X89197821Y-86144889D01*
X89245631Y-86086631D01*
X89266918Y-86069161D01*
X89334860Y-86013401D01*
X89436662Y-85958987D01*
X89547123Y-85925479D01*
X89662000Y-85914165D01*
X89776876Y-85925479D01*
X89776876Y-85925479D01*
G37*
G36*
X88760876Y-83385479D02*
X88871337Y-83418987D01*
X88973136Y-83473400D01*
X88973138Y-83473402D01*
X89062369Y-83546631D01*
X89071520Y-83557782D01*
X89135599Y-83635860D01*
X89190013Y-83737662D01*
X89223521Y-83848123D01*
X89232000Y-83934214D01*
X89232000Y-84721786D01*
X89223521Y-84807877D01*
X89190013Y-84918338D01*
X89135600Y-85020137D01*
X89062369Y-85109369D01*
X88973137Y-85182600D01*
X88871338Y-85237013D01*
X88760877Y-85270521D01*
X88646000Y-85281835D01*
X88531124Y-85270521D01*
X88420663Y-85237013D01*
X88318864Y-85182600D01*
X88229632Y-85109369D01*
X88156401Y-85020137D01*
X88101989Y-84918338D01*
X88101988Y-84918337D01*
X88068479Y-84807876D01*
X88060000Y-84721785D01*
X88060000Y-83934216D01*
X88068479Y-83848125D01*
X88068479Y-83848124D01*
X88101987Y-83737663D01*
X88156400Y-83635864D01*
X88171695Y-83617227D01*
X88229631Y-83546631D01*
X88253551Y-83527000D01*
X88318860Y-83473401D01*
X88420662Y-83418987D01*
X88531123Y-83385479D01*
X88646000Y-83374165D01*
X88760876Y-83385479D01*
X88760876Y-83385479D01*
G37*
G36*
X86982876Y-83385479D02*
X87093337Y-83418987D01*
X87195136Y-83473400D01*
X87195138Y-83473402D01*
X87284369Y-83546631D01*
X87293520Y-83557782D01*
X87357599Y-83635860D01*
X87412013Y-83737662D01*
X87445521Y-83848123D01*
X87454000Y-83934214D01*
X87454000Y-84721786D01*
X87445521Y-84807877D01*
X87412013Y-84918338D01*
X87357600Y-85020137D01*
X87284369Y-85109369D01*
X87195137Y-85182600D01*
X87093338Y-85237013D01*
X86982877Y-85270521D01*
X86868000Y-85281835D01*
X86753124Y-85270521D01*
X86642663Y-85237013D01*
X86540864Y-85182600D01*
X86451632Y-85109369D01*
X86378401Y-85020137D01*
X86323989Y-84918338D01*
X86323988Y-84918337D01*
X86290479Y-84807876D01*
X86282000Y-84721785D01*
X86282000Y-83934216D01*
X86290479Y-83848125D01*
X86290479Y-83848124D01*
X86323987Y-83737663D01*
X86378400Y-83635864D01*
X86393695Y-83617227D01*
X86451631Y-83546631D01*
X86475551Y-83527000D01*
X86540860Y-83473401D01*
X86642662Y-83418987D01*
X86753123Y-83385479D01*
X86868000Y-83374165D01*
X86982876Y-83385479D01*
X86982876Y-83385479D01*
G37*
G36*
X100440443Y-83433519D02*
X100506627Y-83440037D01*
X100616610Y-83473400D01*
X100676467Y-83491557D01*
X100800363Y-83557782D01*
X100832991Y-83575222D01*
X100868729Y-83604552D01*
X100970186Y-83687814D01*
X101053448Y-83789271D01*
X101082778Y-83825009D01*
X101082779Y-83825011D01*
X101166443Y-83981533D01*
X101166443Y-83981534D01*
X101217963Y-84151373D01*
X101235359Y-84328000D01*
X101217963Y-84504627D01*
X101200667Y-84561643D01*
X101166443Y-84674467D01*
X101141150Y-84721786D01*
X101082778Y-84830991D01*
X101076524Y-84838611D01*
X100970186Y-84968186D01*
X100868729Y-85051448D01*
X100832991Y-85080778D01*
X100832989Y-85080779D01*
X100676467Y-85164443D01*
X100619853Y-85181616D01*
X100506627Y-85215963D01*
X100440443Y-85222481D01*
X100374260Y-85229000D01*
X100285740Y-85229000D01*
X100219557Y-85222481D01*
X100153373Y-85215963D01*
X100040147Y-85181616D01*
X99983533Y-85164443D01*
X99827011Y-85080779D01*
X99827009Y-85080778D01*
X99791271Y-85051448D01*
X99689814Y-84968186D01*
X99583476Y-84838611D01*
X99577222Y-84830991D01*
X99518850Y-84721786D01*
X99493557Y-84674467D01*
X99459333Y-84561643D01*
X99442037Y-84504627D01*
X99424641Y-84328000D01*
X99442037Y-84151373D01*
X99493557Y-83981534D01*
X99493557Y-83981533D01*
X99577221Y-83825011D01*
X99577222Y-83825009D01*
X99606552Y-83789271D01*
X99689814Y-83687814D01*
X99791271Y-83604552D01*
X99827009Y-83575222D01*
X99859637Y-83557782D01*
X99983533Y-83491557D01*
X100043390Y-83473400D01*
X100153373Y-83440037D01*
X100219557Y-83433519D01*
X100285740Y-83427000D01*
X100374260Y-83427000D01*
X100440443Y-83433519D01*
X100440443Y-83433519D01*
G37*
G36*
X109965443Y-83433519D02*
X110031627Y-83440037D01*
X110141610Y-83473400D01*
X110201467Y-83491557D01*
X110325363Y-83557782D01*
X110357991Y-83575222D01*
X110393729Y-83604552D01*
X110495186Y-83687814D01*
X110578448Y-83789271D01*
X110607778Y-83825009D01*
X110607779Y-83825011D01*
X110691443Y-83981533D01*
X110691443Y-83981534D01*
X110742963Y-84151373D01*
X110760359Y-84328000D01*
X110742963Y-84504627D01*
X110725667Y-84561643D01*
X110691443Y-84674467D01*
X110666150Y-84721786D01*
X110607778Y-84830991D01*
X110601524Y-84838611D01*
X110495186Y-84968186D01*
X110393729Y-85051448D01*
X110357991Y-85080778D01*
X110357989Y-85080779D01*
X110201467Y-85164443D01*
X110144853Y-85181616D01*
X110031627Y-85215963D01*
X109965443Y-85222481D01*
X109899260Y-85229000D01*
X109810740Y-85229000D01*
X109744557Y-85222481D01*
X109678373Y-85215963D01*
X109565147Y-85181616D01*
X109508533Y-85164443D01*
X109352011Y-85080779D01*
X109352009Y-85080778D01*
X109316271Y-85051448D01*
X109214814Y-84968186D01*
X109108476Y-84838611D01*
X109102222Y-84830991D01*
X109043850Y-84721786D01*
X109018557Y-84674467D01*
X108984333Y-84561643D01*
X108967037Y-84504627D01*
X108949641Y-84328000D01*
X108967037Y-84151373D01*
X109018557Y-83981534D01*
X109018557Y-83981533D01*
X109102221Y-83825011D01*
X109102222Y-83825009D01*
X109131552Y-83789271D01*
X109214814Y-83687814D01*
X109316271Y-83604552D01*
X109352009Y-83575222D01*
X109384637Y-83557782D01*
X109508533Y-83491557D01*
X109568390Y-83473400D01*
X109678373Y-83440037D01*
X109744557Y-83433519D01*
X109810740Y-83427000D01*
X109899260Y-83427000D01*
X109965443Y-83433519D01*
X109965443Y-83433519D01*
G37*
G36*
X117741000Y-85229000D02*
X115939000Y-85229000D01*
X115939000Y-83427000D01*
X117741000Y-83427000D01*
X117741000Y-85229000D01*
X117741000Y-85229000D01*
G37*
G36*
X119490443Y-83433519D02*
X119556627Y-83440037D01*
X119666610Y-83473400D01*
X119726467Y-83491557D01*
X119850363Y-83557782D01*
X119882991Y-83575222D01*
X119918729Y-83604552D01*
X120020186Y-83687814D01*
X120103448Y-83789271D01*
X120132778Y-83825009D01*
X120132779Y-83825011D01*
X120216443Y-83981533D01*
X120216443Y-83981534D01*
X120267963Y-84151373D01*
X120285359Y-84328000D01*
X120267963Y-84504627D01*
X120250667Y-84561643D01*
X120216443Y-84674467D01*
X120191150Y-84721786D01*
X120132778Y-84830991D01*
X120126524Y-84838611D01*
X120020186Y-84968186D01*
X119918729Y-85051448D01*
X119882991Y-85080778D01*
X119882989Y-85080779D01*
X119726467Y-85164443D01*
X119669853Y-85181616D01*
X119556627Y-85215963D01*
X119490443Y-85222481D01*
X119424260Y-85229000D01*
X119335740Y-85229000D01*
X119269557Y-85222481D01*
X119203373Y-85215963D01*
X119090147Y-85181616D01*
X119033533Y-85164443D01*
X118877011Y-85080779D01*
X118877009Y-85080778D01*
X118841271Y-85051448D01*
X118739814Y-84968186D01*
X118633476Y-84838611D01*
X118627222Y-84830991D01*
X118568850Y-84721786D01*
X118543557Y-84674467D01*
X118509333Y-84561643D01*
X118492037Y-84504627D01*
X118474641Y-84328000D01*
X118492037Y-84151373D01*
X118543557Y-83981534D01*
X118543557Y-83981533D01*
X118627221Y-83825011D01*
X118627222Y-83825009D01*
X118656552Y-83789271D01*
X118739814Y-83687814D01*
X118841271Y-83604552D01*
X118877009Y-83575222D01*
X118909637Y-83557782D01*
X119033533Y-83491557D01*
X119093390Y-83473400D01*
X119203373Y-83440037D01*
X119269557Y-83433519D01*
X119335740Y-83427000D01*
X119424260Y-83427000D01*
X119490443Y-83433519D01*
X119490443Y-83433519D01*
G37*
G36*
X122030443Y-83433519D02*
X122096627Y-83440037D01*
X122206610Y-83473400D01*
X122266467Y-83491557D01*
X122390363Y-83557782D01*
X122422991Y-83575222D01*
X122458729Y-83604552D01*
X122560186Y-83687814D01*
X122643448Y-83789271D01*
X122672778Y-83825009D01*
X122672779Y-83825011D01*
X122756443Y-83981533D01*
X122756443Y-83981534D01*
X122807963Y-84151373D01*
X122825359Y-84328000D01*
X122807963Y-84504627D01*
X122790667Y-84561643D01*
X122756443Y-84674467D01*
X122731150Y-84721786D01*
X122672778Y-84830991D01*
X122666524Y-84838611D01*
X122560186Y-84968186D01*
X122458729Y-85051448D01*
X122422991Y-85080778D01*
X122422989Y-85080779D01*
X122266467Y-85164443D01*
X122209853Y-85181616D01*
X122096627Y-85215963D01*
X122030443Y-85222481D01*
X121964260Y-85229000D01*
X121875740Y-85229000D01*
X121809557Y-85222481D01*
X121743373Y-85215963D01*
X121630147Y-85181616D01*
X121573533Y-85164443D01*
X121417011Y-85080779D01*
X121417009Y-85080778D01*
X121381271Y-85051448D01*
X121279814Y-84968186D01*
X121173476Y-84838611D01*
X121167222Y-84830991D01*
X121108850Y-84721786D01*
X121083557Y-84674467D01*
X121049333Y-84561643D01*
X121032037Y-84504627D01*
X121014641Y-84328000D01*
X121032037Y-84151373D01*
X121083557Y-83981534D01*
X121083557Y-83981533D01*
X121167221Y-83825011D01*
X121167222Y-83825009D01*
X121196552Y-83789271D01*
X121279814Y-83687814D01*
X121381271Y-83604552D01*
X121417009Y-83575222D01*
X121449637Y-83557782D01*
X121573533Y-83491557D01*
X121633390Y-83473400D01*
X121743373Y-83440037D01*
X121809557Y-83433519D01*
X121875740Y-83427000D01*
X121964260Y-83427000D01*
X122030443Y-83433519D01*
X122030443Y-83433519D01*
G37*
G36*
X108216000Y-85229000D02*
X106414000Y-85229000D01*
X106414000Y-83427000D01*
X108216000Y-83427000D01*
X108216000Y-85229000D01*
X108216000Y-85229000D01*
G37*
G36*
X97900443Y-83433519D02*
X97966627Y-83440037D01*
X98076610Y-83473400D01*
X98136467Y-83491557D01*
X98260363Y-83557782D01*
X98292991Y-83575222D01*
X98328729Y-83604552D01*
X98430186Y-83687814D01*
X98513448Y-83789271D01*
X98542778Y-83825009D01*
X98542779Y-83825011D01*
X98626443Y-83981533D01*
X98626443Y-83981534D01*
X98677963Y-84151373D01*
X98695359Y-84328000D01*
X98677963Y-84504627D01*
X98660667Y-84561643D01*
X98626443Y-84674467D01*
X98601150Y-84721786D01*
X98542778Y-84830991D01*
X98536524Y-84838611D01*
X98430186Y-84968186D01*
X98328729Y-85051448D01*
X98292991Y-85080778D01*
X98292989Y-85080779D01*
X98136467Y-85164443D01*
X98079853Y-85181616D01*
X97966627Y-85215963D01*
X97900443Y-85222481D01*
X97834260Y-85229000D01*
X97745740Y-85229000D01*
X97679557Y-85222481D01*
X97613373Y-85215963D01*
X97500147Y-85181616D01*
X97443533Y-85164443D01*
X97287011Y-85080779D01*
X97287009Y-85080778D01*
X97251271Y-85051448D01*
X97149814Y-84968186D01*
X97043476Y-84838611D01*
X97037222Y-84830991D01*
X96978850Y-84721786D01*
X96953557Y-84674467D01*
X96919333Y-84561643D01*
X96902037Y-84504627D01*
X96884641Y-84328000D01*
X96902037Y-84151373D01*
X96953557Y-83981534D01*
X96953557Y-83981533D01*
X97037221Y-83825011D01*
X97037222Y-83825009D01*
X97066552Y-83789271D01*
X97149814Y-83687814D01*
X97251271Y-83604552D01*
X97287009Y-83575222D01*
X97319637Y-83557782D01*
X97443533Y-83491557D01*
X97503390Y-83473400D01*
X97613373Y-83440037D01*
X97679557Y-83433519D01*
X97745740Y-83427000D01*
X97834260Y-83427000D01*
X97900443Y-83433519D01*
X97900443Y-83433519D01*
G37*
G36*
X96151000Y-85229000D02*
X94349000Y-85229000D01*
X94349000Y-83427000D01*
X96151000Y-83427000D01*
X96151000Y-85229000D01*
X96151000Y-85229000D01*
G37*
G36*
X124570443Y-83433519D02*
X124636627Y-83440037D01*
X124746610Y-83473400D01*
X124806467Y-83491557D01*
X124930363Y-83557782D01*
X124962991Y-83575222D01*
X124998729Y-83604552D01*
X125100186Y-83687814D01*
X125183448Y-83789271D01*
X125212778Y-83825009D01*
X125212779Y-83825011D01*
X125296443Y-83981533D01*
X125296443Y-83981534D01*
X125347963Y-84151373D01*
X125365359Y-84328000D01*
X125347963Y-84504627D01*
X125330667Y-84561643D01*
X125296443Y-84674467D01*
X125271150Y-84721786D01*
X125212778Y-84830991D01*
X125206524Y-84838611D01*
X125100186Y-84968186D01*
X124998729Y-85051448D01*
X124962991Y-85080778D01*
X124962989Y-85080779D01*
X124806467Y-85164443D01*
X124749853Y-85181616D01*
X124636627Y-85215963D01*
X124570443Y-85222481D01*
X124504260Y-85229000D01*
X124415740Y-85229000D01*
X124349557Y-85222481D01*
X124283373Y-85215963D01*
X124170147Y-85181616D01*
X124113533Y-85164443D01*
X123957011Y-85080779D01*
X123957009Y-85080778D01*
X123921271Y-85051448D01*
X123819814Y-84968186D01*
X123713476Y-84838611D01*
X123707222Y-84830991D01*
X123648850Y-84721786D01*
X123623557Y-84674467D01*
X123589333Y-84561643D01*
X123572037Y-84504627D01*
X123554641Y-84328000D01*
X123572037Y-84151373D01*
X123623557Y-83981534D01*
X123623557Y-83981533D01*
X123707221Y-83825011D01*
X123707222Y-83825009D01*
X123736552Y-83789271D01*
X123819814Y-83687814D01*
X123921271Y-83604552D01*
X123957009Y-83575222D01*
X123989637Y-83557782D01*
X124113533Y-83491557D01*
X124173390Y-83473400D01*
X124283373Y-83440037D01*
X124349557Y-83433519D01*
X124415740Y-83427000D01*
X124504260Y-83427000D01*
X124570443Y-83433519D01*
X124570443Y-83433519D01*
G37*
G36*
X77068643Y-83557781D02*
X77214415Y-83618162D01*
X77345611Y-83705824D01*
X77457176Y-83817389D01*
X77544838Y-83948585D01*
X77605219Y-84094357D01*
X77636000Y-84249107D01*
X77636000Y-84406893D01*
X77605219Y-84561643D01*
X77544838Y-84707415D01*
X77457176Y-84838611D01*
X77345611Y-84950176D01*
X77214415Y-85037838D01*
X77068643Y-85098219D01*
X76913893Y-85129000D01*
X76756107Y-85129000D01*
X76601357Y-85098219D01*
X76455585Y-85037838D01*
X76324389Y-84950176D01*
X76212824Y-84838611D01*
X76125162Y-84707415D01*
X76064781Y-84561643D01*
X76034000Y-84406893D01*
X76034000Y-84249107D01*
X76064781Y-84094357D01*
X76125162Y-83948585D01*
X76212824Y-83817389D01*
X76324389Y-83705824D01*
X76455585Y-83618162D01*
X76601357Y-83557781D01*
X76756107Y-83527000D01*
X76913893Y-83527000D01*
X77068643Y-83557781D01*
X77068643Y-83557781D01*
G37*
G36*
X80176000Y-85129000D02*
X78574000Y-85129000D01*
X78574000Y-83527000D01*
X80176000Y-83527000D01*
X80176000Y-85129000D01*
X80176000Y-85129000D01*
G37*
G36*
X74528643Y-83557781D02*
X74674415Y-83618162D01*
X74805611Y-83705824D01*
X74917176Y-83817389D01*
X75004838Y-83948585D01*
X75065219Y-84094357D01*
X75096000Y-84249107D01*
X75096000Y-84406893D01*
X75065219Y-84561643D01*
X75004838Y-84707415D01*
X74917176Y-84838611D01*
X74805611Y-84950176D01*
X74674415Y-85037838D01*
X74528643Y-85098219D01*
X74373893Y-85129000D01*
X74216107Y-85129000D01*
X74061357Y-85098219D01*
X73915585Y-85037838D01*
X73784389Y-84950176D01*
X73672824Y-84838611D01*
X73585162Y-84707415D01*
X73524781Y-84561643D01*
X73494000Y-84406893D01*
X73494000Y-84249107D01*
X73524781Y-84094357D01*
X73585162Y-83948585D01*
X73672824Y-83817389D01*
X73784389Y-83705824D01*
X73915585Y-83618162D01*
X74061357Y-83557781D01*
X74216107Y-83527000D01*
X74373893Y-83527000D01*
X74528643Y-83557781D01*
X74528643Y-83557781D01*
G37*
G36*
X71988643Y-83557781D02*
X72134415Y-83618162D01*
X72265611Y-83705824D01*
X72377176Y-83817389D01*
X72464838Y-83948585D01*
X72525219Y-84094357D01*
X72556000Y-84249107D01*
X72556000Y-84406893D01*
X72525219Y-84561643D01*
X72464838Y-84707415D01*
X72377176Y-84838611D01*
X72265611Y-84950176D01*
X72134415Y-85037838D01*
X71988643Y-85098219D01*
X71833893Y-85129000D01*
X71676107Y-85129000D01*
X71521357Y-85098219D01*
X71375585Y-85037838D01*
X71244389Y-84950176D01*
X71132824Y-84838611D01*
X71045162Y-84707415D01*
X70984781Y-84561643D01*
X70954000Y-84406893D01*
X70954000Y-84249107D01*
X70984781Y-84094357D01*
X71045162Y-83948585D01*
X71132824Y-83817389D01*
X71244389Y-83705824D01*
X71375585Y-83618162D01*
X71521357Y-83557781D01*
X71676107Y-83527000D01*
X71833893Y-83527000D01*
X71988643Y-83557781D01*
X71988643Y-83557781D01*
G37*
M02*
